<mxfile host="app.diagrams.net" agent="Mozilla/5.0 (Windows NT 10.0; Win64; x64) AppleWebKit/537.36 (KHTML, like Gecko) Chrome/138.0.0.0 Safari/537.36" version="28.0.6">
  <diagram name="Page-1" id="v79SRdzBsyWJK9kKa533">
    <mxGraphModel dx="4753" dy="2590" grid="1" gridSize="10" guides="1" tooltips="1" connect="1" arrows="1" fold="1" page="1" pageScale="1" pageWidth="850" pageHeight="1100" math="0" shadow="0">
      <root>
        <mxCell id="0" />
        <mxCell id="1" parent="0" />
        <mxCell id="z7WjeKVMrqfT_wvCUD4l-1" value="ทบทวนสัญลักษณ์" style="swimlane;fontFamily=Sarabun;fontSource=https%3A%2F%2Ffonts.googleapis.com%2Fcss%3Ffamily%3DSarabun;" vertex="1" parent="1">
          <mxGeometry x="341" y="700" width="640" height="290" as="geometry" />
        </mxCell>
        <mxCell id="z7WjeKVMrqfT_wvCUD4l-2" value="&lt;font data-font-src=&quot;https://fonts.googleapis.com/css?family=Sarabun&quot; face=&quot;Sarabun&quot;&gt;เริ่มต้น&lt;/font&gt;" style="ellipse;whiteSpace=wrap;html=1;" vertex="1" parent="z7WjeKVMrqfT_wvCUD4l-1">
          <mxGeometry x="20" y="40" width="130" height="30" as="geometry" />
        </mxCell>
        <mxCell id="z7WjeKVMrqfT_wvCUD4l-3" value="" style="endArrow=classic;html=1;rounded=0;" edge="1" parent="z7WjeKVMrqfT_wvCUD4l-1">
          <mxGeometry width="50" height="50" relative="1" as="geometry">
            <mxPoint x="84.5" y="70" as="sourcePoint" />
            <mxPoint x="84.5" y="120" as="targetPoint" />
          </mxGeometry>
        </mxCell>
        <mxCell id="z7WjeKVMrqfT_wvCUD4l-4" value="&lt;font face=&quot;Sarabun&quot;&gt;สิ้นสุด&lt;/font&gt;" style="ellipse;whiteSpace=wrap;html=1;" vertex="1" parent="z7WjeKVMrqfT_wvCUD4l-1">
          <mxGeometry x="150" y="90" width="130" height="30" as="geometry" />
        </mxCell>
        <mxCell id="z7WjeKVMrqfT_wvCUD4l-5" value="" style="endArrow=classic;html=1;rounded=0;" edge="1" parent="z7WjeKVMrqfT_wvCUD4l-1">
          <mxGeometry width="50" height="50" relative="1" as="geometry">
            <mxPoint x="214.5" y="40" as="sourcePoint" />
            <mxPoint x="214.5" y="90" as="targetPoint" />
          </mxGeometry>
        </mxCell>
        <mxCell id="z7WjeKVMrqfT_wvCUD4l-6" value="กระบวนการ" style="rounded=0;whiteSpace=wrap;html=1;fontFamily=Sarabun;fontSource=https%3A%2F%2Ffonts.googleapis.com%2Fcss%3Ffamily%3DSarabun;" vertex="1" parent="z7WjeKVMrqfT_wvCUD4l-1">
          <mxGeometry x="320" y="70" width="120" height="30" as="geometry" />
        </mxCell>
        <mxCell id="z7WjeKVMrqfT_wvCUD4l-7" value="" style="endArrow=classic;html=1;rounded=0;" edge="1" parent="z7WjeKVMrqfT_wvCUD4l-1">
          <mxGeometry width="50" height="50" relative="1" as="geometry">
            <mxPoint x="379" y="40" as="sourcePoint" />
            <mxPoint x="379.5" y="70" as="targetPoint" />
          </mxGeometry>
        </mxCell>
        <mxCell id="z7WjeKVMrqfT_wvCUD4l-8" value="" style="endArrow=classic;html=1;rounded=0;" edge="1" parent="z7WjeKVMrqfT_wvCUD4l-1">
          <mxGeometry width="50" height="50" relative="1" as="geometry">
            <mxPoint x="379.75" y="100" as="sourcePoint" />
            <mxPoint x="380.25" y="130" as="targetPoint" />
          </mxGeometry>
        </mxCell>
        <mxCell id="z7WjeKVMrqfT_wvCUD4l-9" value="ประโยคเงื่อนไข" style="rhombus;whiteSpace=wrap;html=1;fontFamily=Sarabun;fontSource=https%3A%2F%2Ffonts.googleapis.com%2Fcss%3Ffamily%3DSarabun;" vertex="1" parent="z7WjeKVMrqfT_wvCUD4l-1">
          <mxGeometry x="490" y="60" width="100" height="60" as="geometry" />
        </mxCell>
        <mxCell id="z7WjeKVMrqfT_wvCUD4l-10" value="" style="endArrow=classic;html=1;rounded=0;" edge="1" parent="z7WjeKVMrqfT_wvCUD4l-1">
          <mxGeometry width="50" height="50" relative="1" as="geometry">
            <mxPoint x="539.71" y="30" as="sourcePoint" />
            <mxPoint x="540.21" y="60" as="targetPoint" />
          </mxGeometry>
        </mxCell>
        <mxCell id="z7WjeKVMrqfT_wvCUD4l-11" value="" style="endArrow=classic;html=1;rounded=0;" edge="1" parent="z7WjeKVMrqfT_wvCUD4l-1">
          <mxGeometry width="50" height="50" relative="1" as="geometry">
            <mxPoint x="539.71" y="120" as="sourcePoint" />
            <mxPoint x="540" y="175" as="targetPoint" />
          </mxGeometry>
        </mxCell>
        <mxCell id="z7WjeKVMrqfT_wvCUD4l-12" value="จริง" style="edgeLabel;html=1;align=center;verticalAlign=middle;resizable=0;points=[];fontFamily=Sarabun;fontSource=https%3A%2F%2Ffonts.googleapis.com%2Fcss%3Ffamily%3DSarabun;" vertex="1" connectable="0" parent="z7WjeKVMrqfT_wvCUD4l-11">
          <mxGeometry x="-0.4142" y="-1" relative="1" as="geometry">
            <mxPoint as="offset" />
          </mxGeometry>
        </mxCell>
        <mxCell id="z7WjeKVMrqfT_wvCUD4l-13" value="" style="endArrow=classic;html=1;rounded=0;exitX=1;exitY=0.5;exitDx=0;exitDy=0;" edge="1" parent="z7WjeKVMrqfT_wvCUD4l-1" source="z7WjeKVMrqfT_wvCUD4l-9">
          <mxGeometry width="50" height="50" relative="1" as="geometry">
            <mxPoint x="620" y="95" as="sourcePoint" />
            <mxPoint x="610" y="175" as="targetPoint" />
            <Array as="points">
              <mxPoint x="610" y="90" />
            </Array>
          </mxGeometry>
        </mxCell>
        <mxCell id="z7WjeKVMrqfT_wvCUD4l-14" value="&lt;font data-font-src=&quot;https://fonts.googleapis.com/css?family=Sarabun&quot; face=&quot;Sarabun&quot;&gt;เท็จ&lt;/font&gt;" style="edgeLabel;html=1;align=center;verticalAlign=middle;resizable=0;points=[];" vertex="1" connectable="0" parent="z7WjeKVMrqfT_wvCUD4l-13">
          <mxGeometry x="-0.0019" y="-2" relative="1" as="geometry">
            <mxPoint as="offset" />
          </mxGeometry>
        </mxCell>
        <mxCell id="z7WjeKVMrqfT_wvCUD4l-15" value="&lt;font data-font-src=&quot;https://fonts.googleapis.com/css?family=Sarabun&quot; face=&quot;Sarabun&quot;&gt;ฟังก์ชัน/โมดูล&lt;/font&gt;" style="shape=process;whiteSpace=wrap;html=1;backgroundOutline=1;" vertex="1" parent="z7WjeKVMrqfT_wvCUD4l-1">
          <mxGeometry x="25" y="180" width="120" height="30" as="geometry" />
        </mxCell>
        <mxCell id="z7WjeKVMrqfT_wvCUD4l-16" value="" style="endArrow=classic;html=1;rounded=0;" edge="1" parent="z7WjeKVMrqfT_wvCUD4l-1">
          <mxGeometry width="50" height="50" relative="1" as="geometry">
            <mxPoint x="84.70999999999998" y="150" as="sourcePoint" />
            <mxPoint x="85.20999999999998" y="180" as="targetPoint" />
          </mxGeometry>
        </mxCell>
        <mxCell id="z7WjeKVMrqfT_wvCUD4l-17" value="" style="endArrow=classic;html=1;rounded=0;" edge="1" parent="z7WjeKVMrqfT_wvCUD4l-1">
          <mxGeometry width="50" height="50" relative="1" as="geometry">
            <mxPoint x="84.70999999999998" y="210" as="sourcePoint" />
            <mxPoint x="85.20999999999998" y="240" as="targetPoint" />
          </mxGeometry>
        </mxCell>
        <mxCell id="z7WjeKVMrqfT_wvCUD4l-18" value="" style="strokeWidth=2;html=1;shape=mxgraph.flowchart.start_2;whiteSpace=wrap;" vertex="1" parent="z7WjeKVMrqfT_wvCUD4l-1">
          <mxGeometry x="205" y="185" width="20" height="20" as="geometry" />
        </mxCell>
        <mxCell id="z7WjeKVMrqfT_wvCUD4l-19" value="" style="endArrow=classic;html=1;rounded=0;" edge="1" parent="z7WjeKVMrqfT_wvCUD4l-1">
          <mxGeometry width="50" height="50" relative="1" as="geometry">
            <mxPoint x="214.70999999999998" y="155" as="sourcePoint" />
            <mxPoint x="215.20999999999998" y="185" as="targetPoint" />
          </mxGeometry>
        </mxCell>
        <mxCell id="z7WjeKVMrqfT_wvCUD4l-20" value="" style="endArrow=classic;html=1;rounded=0;entryX=0;entryY=0.5;entryDx=0;entryDy=0;entryPerimeter=0;" edge="1" parent="z7WjeKVMrqfT_wvCUD4l-1" target="z7WjeKVMrqfT_wvCUD4l-18">
          <mxGeometry width="50" height="50" relative="1" as="geometry">
            <mxPoint x="189.99999999999997" y="155" as="sourcePoint" />
            <mxPoint x="190.49999999999997" y="185" as="targetPoint" />
            <Array as="points">
              <mxPoint x="190" y="180" />
            </Array>
          </mxGeometry>
        </mxCell>
        <mxCell id="z7WjeKVMrqfT_wvCUD4l-21" value="" style="endArrow=classic;html=1;rounded=0;entryX=1;entryY=0.5;entryDx=0;entryDy=0;entryPerimeter=0;" edge="1" parent="z7WjeKVMrqfT_wvCUD4l-1" target="z7WjeKVMrqfT_wvCUD4l-18">
          <mxGeometry width="50" height="50" relative="1" as="geometry">
            <mxPoint x="239.99999999999997" y="155" as="sourcePoint" />
            <mxPoint x="240.49999999999997" y="185" as="targetPoint" />
            <Array as="points">
              <mxPoint x="240" y="180" />
            </Array>
          </mxGeometry>
        </mxCell>
        <mxCell id="z7WjeKVMrqfT_wvCUD4l-22" value="" style="endArrow=classic;html=1;rounded=0;" edge="1" parent="z7WjeKVMrqfT_wvCUD4l-1">
          <mxGeometry width="50" height="50" relative="1" as="geometry">
            <mxPoint x="214.70999999999998" y="205" as="sourcePoint" />
            <mxPoint x="215.20999999999998" y="235" as="targetPoint" />
          </mxGeometry>
        </mxCell>
        <mxCell id="z7WjeKVMrqfT_wvCUD4l-23" value="&lt;font data-font-src=&quot;https://fonts.googleapis.com/css?family=Sarabun&quot; face=&quot;Sarabun&quot;&gt;ตัวเชื่อม&lt;/font&gt;" style="text;html=1;align=center;verticalAlign=middle;resizable=0;points=[];autosize=1;strokeColor=none;fillColor=none;" vertex="1" parent="z7WjeKVMrqfT_wvCUD4l-1">
          <mxGeometry x="220" y="190" width="60" height="30" as="geometry" />
        </mxCell>
        <mxCell id="z7WjeKVMrqfT_wvCUD4l-24" value="" style="endArrow=classic;html=1;rounded=0;" edge="1" parent="z7WjeKVMrqfT_wvCUD4l-1">
          <mxGeometry width="50" height="50" relative="1" as="geometry">
            <mxPoint x="353.71" y="165" as="sourcePoint" />
            <mxPoint x="354.21" y="195" as="targetPoint" />
          </mxGeometry>
        </mxCell>
        <mxCell id="z7WjeKVMrqfT_wvCUD4l-25" value="" style="verticalLabelPosition=bottom;verticalAlign=top;html=1;shape=offPageConnector;rounded=0;size=0.5;" vertex="1" parent="z7WjeKVMrqfT_wvCUD4l-1">
          <mxGeometry x="339" y="195" width="30" height="30" as="geometry" />
        </mxCell>
        <mxCell id="z7WjeKVMrqfT_wvCUD4l-26" value="" style="endArrow=classic;html=1;rounded=0;" edge="1" parent="z7WjeKVMrqfT_wvCUD4l-1">
          <mxGeometry width="50" height="50" relative="1" as="geometry">
            <mxPoint x="405.71" y="195" as="sourcePoint" />
            <mxPoint x="406.21" y="225" as="targetPoint" />
          </mxGeometry>
        </mxCell>
        <mxCell id="z7WjeKVMrqfT_wvCUD4l-27" value="" style="verticalLabelPosition=bottom;verticalAlign=top;html=1;shape=offPageConnector;rounded=0;size=0.5;" vertex="1" parent="z7WjeKVMrqfT_wvCUD4l-1">
          <mxGeometry x="391" y="165" width="30" height="30" as="geometry" />
        </mxCell>
        <mxCell id="z7WjeKVMrqfT_wvCUD4l-28" value="ก" style="text;html=1;align=center;verticalAlign=middle;resizable=0;points=[];autosize=1;strokeColor=none;fillColor=none;fontFamily=Sarabun;fontSource=https%3A%2F%2Ffonts.googleapis.com%2Fcss%3Ffamily%3DSarabun;" vertex="1" parent="z7WjeKVMrqfT_wvCUD4l-1">
          <mxGeometry x="339" y="190" width="30" height="30" as="geometry" />
        </mxCell>
        <mxCell id="z7WjeKVMrqfT_wvCUD4l-29" value="ก" style="text;html=1;align=center;verticalAlign=middle;resizable=0;points=[];autosize=1;strokeColor=none;fillColor=none;fontFamily=Sarabun;fontSource=https%3A%2F%2Ffonts.googleapis.com%2Fcss%3Ffamily%3DSarabun;" vertex="1" parent="z7WjeKVMrqfT_wvCUD4l-1">
          <mxGeometry x="391" y="160" width="30" height="30" as="geometry" />
        </mxCell>
        <mxCell id="z7WjeKVMrqfT_wvCUD4l-30" value="แสดงผล/รับค่า" style="shape=parallelogram;perimeter=parallelogramPerimeter;whiteSpace=wrap;html=1;fixedSize=1;fontFamily=Sarabun;fontSource=https%3A%2F%2Ffonts.googleapis.com%2Fcss%3Ffamily%3DSarabun;" vertex="1" parent="z7WjeKVMrqfT_wvCUD4l-1">
          <mxGeometry x="450" y="210" width="120" height="30" as="geometry" />
        </mxCell>
        <mxCell id="z7WjeKVMrqfT_wvCUD4l-31" value="" style="endArrow=classic;html=1;rounded=0;" edge="1" parent="z7WjeKVMrqfT_wvCUD4l-1">
          <mxGeometry width="50" height="50" relative="1" as="geometry">
            <mxPoint x="509.71" y="180" as="sourcePoint" />
            <mxPoint x="510.21" y="210" as="targetPoint" />
          </mxGeometry>
        </mxCell>
        <mxCell id="z7WjeKVMrqfT_wvCUD4l-32" value="" style="endArrow=classic;html=1;rounded=0;" edge="1" parent="z7WjeKVMrqfT_wvCUD4l-1">
          <mxGeometry width="50" height="50" relative="1" as="geometry">
            <mxPoint x="509.71" y="240" as="sourcePoint" />
            <mxPoint x="510.21" y="270" as="targetPoint" />
          </mxGeometry>
        </mxCell>
        <mxCell id="z7WjeKVMrqfT_wvCUD4l-33" style="edgeStyle=orthogonalEdgeStyle;rounded=0;orthogonalLoop=1;jettySize=auto;html=1;exitX=0.5;exitY=1;exitDx=0;exitDy=0;entryX=0.5;entryY=0;entryDx=0;entryDy=0;" edge="1" parent="z7WjeKVMrqfT_wvCUD4l-1" source="z7WjeKVMrqfT_wvCUD4l-2" target="z7WjeKVMrqfT_wvCUD4l-2">
          <mxGeometry relative="1" as="geometry" />
        </mxCell>
        <mxCell id="z7WjeKVMrqfT_wvCUD4l-34" value="หน้าต่อไป" style="text;html=1;align=center;verticalAlign=middle;resizable=0;points=[];autosize=1;strokeColor=none;fillColor=none;fontFamily=Sarabun;fontSource=https%3A%2F%2Ffonts.googleapis.com%2Fcss%3Ffamily%3DSarabun;" vertex="1" parent="z7WjeKVMrqfT_wvCUD4l-1">
          <mxGeometry x="345" y="230" width="70" height="30" as="geometry" />
        </mxCell>
        <mxCell id="z7WjeKVMrqfT_wvCUD4l-35" value="&lt;font data-font-src=&quot;https://fonts.googleapis.com/css?family=Sarabun&quot; face=&quot;Sarabun&quot;&gt;โจทย์ปัญหา&lt;/font&gt;" style="swimlane;whiteSpace=wrap;html=1;" vertex="1" parent="1">
          <mxGeometry x="341" y="1000" width="640" height="240" as="geometry" />
        </mxCell>
        <mxCell id="z7WjeKVMrqfT_wvCUD4l-36" value="&lt;font data-font-src=&quot;https://fonts.googleapis.com/css?family=Sarabun&quot; face=&quot;Sarabun&quot; style=&quot;font-size: 14px;&quot;&gt;จงเขียน Flowchart เพื่อแสดงขั้นตอนการทำงาน ของเครื่องขายน้ำอัตโนมัติที่ชื่อว่า &quot;ตะพาบลอย&quot;&lt;br&gt;โดยจะต้องมีสินค้าดังนี้&lt;br&gt;&lt;u&gt;ประเภทน้ำ&lt;span style=&quot;white-space: pre;&quot;&gt;&#x9;&lt;/span&gt;&lt;span style=&quot;white-space: pre;&quot;&gt;&#x9;&lt;/span&gt;&lt;span style=&quot;white-space: pre;&quot;&gt;&#x9;&lt;/span&gt;&lt;span style=&quot;white-space: pre;&quot;&gt;&#x9;&lt;/span&gt;&lt;span style=&quot;white-space: pre;&quot;&gt;&#x9;&lt;/span&gt;&lt;span style=&quot;white-space: pre;&quot;&gt;&#x9;&lt;span style=&quot;white-space: pre;&quot;&gt;&#x9;&lt;/span&gt;ข&lt;/span&gt;นม&lt;/u&gt;&lt;br&gt;&lt;span style=&quot;white-space: pre;&quot;&gt;&#x9;&lt;/span&gt;- โค้ก กระป๋องละ 10 บาท&lt;span style=&quot;white-space: pre;&quot;&gt;&#x9;&lt;/span&gt;&lt;span style=&quot;white-space: pre;&quot;&gt;&#x9;&lt;/span&gt;&lt;span style=&quot;white-space: pre;&quot;&gt;&#x9;&lt;/span&gt;&lt;span style=&quot;white-space: pre;&quot;&gt;&#x9;&lt;/span&gt;- เมล็ดทานตะวัน 13 บาท&lt;br&gt;&lt;span style=&quot;white-space: pre;&quot;&gt;&#x9;&lt;/span&gt;- น้ำเขียว กระป๋องละ 12 บาท&lt;span style=&quot;white-space: pre;&quot;&gt;&#x9;&lt;/span&gt;&lt;span style=&quot;white-space: pre;&quot;&gt;&#x9;&lt;/span&gt;&lt;span style=&quot;white-space: pre;&quot;&gt;&#x9;&lt;/span&gt;- ถั่วแปบ 20 บาท&lt;br&gt;&lt;span style=&quot;white-space: pre;&quot;&gt;&#x9;&lt;/span&gt;- อเมริกาโน่ 30 บาท&lt;span style=&quot;white-space: pre;&quot;&gt;&#x9;&lt;/span&gt;&lt;span style=&quot;white-space: pre;&quot;&gt;&#x9;&lt;/span&gt;&lt;span style=&quot;white-space: pre;&quot;&gt;&#x9;&lt;/span&gt;&lt;span style=&quot;white-space: pre;&quot;&gt;&#x9;&lt;/span&gt;&lt;span style=&quot;white-space: pre;&quot;&gt;&#x9;&lt;/span&gt;- จิ้นส้มหมก 15 บาท&lt;br&gt;&lt;span style=&quot;white-space: pre;&quot;&gt;&#x9;&lt;/span&gt;- ลาเต้ หวานเจี๊ยบ 35 บาท&lt;span style=&quot;white-space: pre;&quot;&gt;&#x9;&lt;/span&gt;&lt;br&gt;&lt;br&gt;&lt;u&gt;สิ่งที่ระบบควรจะทำได้&lt;/u&gt;&lt;br&gt;&lt;span style=&quot;white-space: pre;&quot;&gt;&#x9;&lt;/span&gt;- ลูกค้าเลือกสินค้า, ระบบจะต้องรวมยอดขาย และรวมรายการสินค้าทั้งหมดที่ลูกค้าเลือก&lt;br&gt;&lt;span style=&quot;white-space: pre;&quot;&gt;&#x9;&lt;/span&gt;- สรุปยอดว่าเหลือเงินในตู้อีกเท่าไหร่ เหลือเหรียญอะไรบ้าง? ธนบัตรอะไรบ้าง? อย่างละเท่าไหร่?&lt;br&gt;&lt;br&gt;&lt;br&gt;&lt;/font&gt;" style="text;html=1;align=left;verticalAlign=middle;resizable=0;points=[];autosize=1;strokeColor=none;fillColor=none;fontSize=14;" vertex="1" parent="z7WjeKVMrqfT_wvCUD4l-35">
          <mxGeometry x="30" y="30" width="580" height="240" as="geometry" />
        </mxCell>
        <mxCell id="z7WjeKVMrqfT_wvCUD4l-37" style="edgeStyle=orthogonalEdgeStyle;rounded=0;orthogonalLoop=1;jettySize=auto;html=1;entryX=0.5;entryY=0;entryDx=0;entryDy=0;" edge="1" parent="1" source="z7WjeKVMrqfT_wvCUD4l-38" target="z7WjeKVMrqfT_wvCUD4l-40">
          <mxGeometry relative="1" as="geometry" />
        </mxCell>
        <mxCell id="z7WjeKVMrqfT_wvCUD4l-38" value="&lt;font style=&quot;font-size: 20px;&quot;&gt;สินค้า&lt;/font&gt;" style="shape=process;whiteSpace=wrap;html=1;backgroundOutline=1;" vertex="1" parent="1">
          <mxGeometry x="2334" y="460" width="148" height="70" as="geometry" />
        </mxCell>
        <mxCell id="z7WjeKVMrqfT_wvCUD4l-39" style="edgeStyle=orthogonalEdgeStyle;rounded=0;orthogonalLoop=1;jettySize=auto;html=1;entryX=0.5;entryY=0;entryDx=0;entryDy=0;" edge="1" parent="1" source="z7WjeKVMrqfT_wvCUD4l-40" target="z7WjeKVMrqfT_wvCUD4l-45">
          <mxGeometry relative="1" as="geometry">
            <mxPoint x="2408" y="710" as="targetPoint" />
          </mxGeometry>
        </mxCell>
        <mxCell id="z7WjeKVMrqfT_wvCUD4l-40" value="&lt;font style=&quot;font-size: 18px;&quot;&gt;start&lt;/font&gt;" style="ellipse;whiteSpace=wrap;html=1;" vertex="1" parent="1">
          <mxGeometry x="2358" y="600" width="100" height="40" as="geometry" />
        </mxCell>
        <mxCell id="z7WjeKVMrqfT_wvCUD4l-41" style="edgeStyle=orthogonalEdgeStyle;rounded=0;orthogonalLoop=1;jettySize=auto;html=1;entryX=1;entryY=0.5;entryDx=0;entryDy=0;" edge="1" parent="1" source="z7WjeKVMrqfT_wvCUD4l-45" target="z7WjeKVMrqfT_wvCUD4l-50">
          <mxGeometry relative="1" as="geometry">
            <mxPoint x="2318" y="770" as="targetPoint" />
          </mxGeometry>
        </mxCell>
        <mxCell id="z7WjeKVMrqfT_wvCUD4l-42" value="ใช่" style="edgeLabel;html=1;align=center;verticalAlign=middle;resizable=0;points=[];" vertex="1" connectable="0" parent="z7WjeKVMrqfT_wvCUD4l-41">
          <mxGeometry x="-0.1907" y="3" relative="1" as="geometry">
            <mxPoint as="offset" />
          </mxGeometry>
        </mxCell>
        <mxCell id="z7WjeKVMrqfT_wvCUD4l-43" style="edgeStyle=orthogonalEdgeStyle;rounded=0;orthogonalLoop=1;jettySize=auto;html=1;" edge="1" parent="1" source="z7WjeKVMrqfT_wvCUD4l-45">
          <mxGeometry relative="1" as="geometry">
            <mxPoint x="2508" y="770" as="targetPoint" />
          </mxGeometry>
        </mxCell>
        <mxCell id="z7WjeKVMrqfT_wvCUD4l-44" value="ไม่" style="edgeLabel;html=1;align=center;verticalAlign=middle;resizable=0;points=[];" vertex="1" connectable="0" parent="z7WjeKVMrqfT_wvCUD4l-43">
          <mxGeometry x="-0.0679" y="-1" relative="1" as="geometry">
            <mxPoint as="offset" />
          </mxGeometry>
        </mxCell>
        <mxCell id="z7WjeKVMrqfT_wvCUD4l-45" value="เลือกขนมใช่มั้ย" style="rhombus;whiteSpace=wrap;html=1;" vertex="1" parent="1">
          <mxGeometry x="2368" y="730" width="80" height="80" as="geometry" />
        </mxCell>
        <mxCell id="z7WjeKVMrqfT_wvCUD4l-46" style="edgeStyle=orthogonalEdgeStyle;rounded=0;orthogonalLoop=1;jettySize=auto;html=1;" edge="1" parent="1" source="z7WjeKVMrqfT_wvCUD4l-50">
          <mxGeometry relative="1" as="geometry">
            <mxPoint x="2268" y="860" as="targetPoint" />
          </mxGeometry>
        </mxCell>
        <mxCell id="z7WjeKVMrqfT_wvCUD4l-47" value="ไม่" style="edgeLabel;html=1;align=center;verticalAlign=middle;resizable=0;points=[];" vertex="1" connectable="0" parent="z7WjeKVMrqfT_wvCUD4l-46">
          <mxGeometry x="-0.2933" y="-2" relative="1" as="geometry">
            <mxPoint as="offset" />
          </mxGeometry>
        </mxCell>
        <mxCell id="z7WjeKVMrqfT_wvCUD4l-48" value="" style="edgeStyle=orthogonalEdgeStyle;rounded=0;orthogonalLoop=1;jettySize=auto;html=1;" edge="1" parent="1" source="z7WjeKVMrqfT_wvCUD4l-50" target="z7WjeKVMrqfT_wvCUD4l-108">
          <mxGeometry relative="1" as="geometry" />
        </mxCell>
        <mxCell id="z7WjeKVMrqfT_wvCUD4l-49" value="ใช่" style="edgeLabel;html=1;align=center;verticalAlign=middle;resizable=0;points=[];" vertex="1" connectable="0" parent="z7WjeKVMrqfT_wvCUD4l-48">
          <mxGeometry x="-0.2824" y="-2" relative="1" as="geometry">
            <mxPoint as="offset" />
          </mxGeometry>
        </mxCell>
        <mxCell id="z7WjeKVMrqfT_wvCUD4l-50" value="&lt;div&gt;เมล็ดทานตะวัน มั้ย&lt;/div&gt;" style="rhombus;whiteSpace=wrap;html=1;" vertex="1" parent="1">
          <mxGeometry x="2228" y="730" width="80" height="80" as="geometry" />
        </mxCell>
        <mxCell id="z7WjeKVMrqfT_wvCUD4l-51" value="เมล็ดทานตะวัน&lt;div&gt;&amp;nbsp;13 บาท&lt;/div&gt;" style="rounded=0;whiteSpace=wrap;html=1;" vertex="1" parent="1">
          <mxGeometry x="1490" y="740" width="120" height="60" as="geometry" />
        </mxCell>
        <mxCell id="z7WjeKVMrqfT_wvCUD4l-52" value="" style="edgeStyle=orthogonalEdgeStyle;rounded=0;orthogonalLoop=1;jettySize=auto;html=1;" edge="1" parent="1" source="z7WjeKVMrqfT_wvCUD4l-55" target="z7WjeKVMrqfT_wvCUD4l-110">
          <mxGeometry relative="1" as="geometry" />
        </mxCell>
        <mxCell id="z7WjeKVMrqfT_wvCUD4l-53" style="edgeStyle=orthogonalEdgeStyle;rounded=0;orthogonalLoop=1;jettySize=auto;html=1;entryX=1;entryY=0.5;entryDx=0;entryDy=0;" edge="1" parent="1" source="z7WjeKVMrqfT_wvCUD4l-55" target="z7WjeKVMrqfT_wvCUD4l-112">
          <mxGeometry relative="1" as="geometry">
            <Array as="points">
              <mxPoint x="2268" y="1020" />
            </Array>
          </mxGeometry>
        </mxCell>
        <mxCell id="z7WjeKVMrqfT_wvCUD4l-54" value="ไม่" style="edgeLabel;html=1;align=center;verticalAlign=middle;resizable=0;points=[];" vertex="1" connectable="0" parent="z7WjeKVMrqfT_wvCUD4l-53">
          <mxGeometry x="0.429" y="-2" relative="1" as="geometry">
            <mxPoint as="offset" />
          </mxGeometry>
        </mxCell>
        <mxCell id="z7WjeKVMrqfT_wvCUD4l-55" value="&amp;nbsp;ถั่วแปบ มั้ย" style="rhombus;whiteSpace=wrap;html=1;" vertex="1" parent="1">
          <mxGeometry x="2228" y="860" width="80" height="80" as="geometry" />
        </mxCell>
        <mxCell id="z7WjeKVMrqfT_wvCUD4l-56" style="edgeStyle=orthogonalEdgeStyle;rounded=0;orthogonalLoop=1;jettySize=auto;html=1;" edge="1" parent="1" source="z7WjeKVMrqfT_wvCUD4l-57">
          <mxGeometry relative="1" as="geometry">
            <mxPoint x="1420.0000000000002" y="900" as="targetPoint" />
          </mxGeometry>
        </mxCell>
        <mxCell id="z7WjeKVMrqfT_wvCUD4l-57" value="&amp;nbsp;ถั่วแปบ&lt;div&gt;&amp;nbsp;20 บาท&lt;/div&gt;" style="rounded=0;whiteSpace=wrap;html=1;" vertex="1" parent="1">
          <mxGeometry x="1490" y="870" width="120" height="60" as="geometry" />
        </mxCell>
        <mxCell id="z7WjeKVMrqfT_wvCUD4l-58" style="edgeStyle=orthogonalEdgeStyle;rounded=0;orthogonalLoop=1;jettySize=auto;html=1;" edge="1" parent="1" source="z7WjeKVMrqfT_wvCUD4l-59">
          <mxGeometry relative="1" as="geometry">
            <mxPoint x="1420.0000000000002" y="1020" as="targetPoint" />
          </mxGeometry>
        </mxCell>
        <mxCell id="z7WjeKVMrqfT_wvCUD4l-59" value="จิ้นส้มหมก&amp;nbsp;&lt;div&gt;15 บาท&lt;/div&gt;" style="rounded=0;whiteSpace=wrap;html=1;" vertex="1" parent="1">
          <mxGeometry x="1490" y="990" width="120" height="60" as="geometry" />
        </mxCell>
        <mxCell id="z7WjeKVMrqfT_wvCUD4l-60" style="edgeStyle=orthogonalEdgeStyle;rounded=0;orthogonalLoop=1;jettySize=auto;html=1;" edge="1" parent="1" source="z7WjeKVMrqfT_wvCUD4l-64">
          <mxGeometry relative="1" as="geometry">
            <mxPoint x="2549" y="860" as="targetPoint" />
          </mxGeometry>
        </mxCell>
        <mxCell id="z7WjeKVMrqfT_wvCUD4l-61" value="ไม่" style="edgeLabel;html=1;align=center;verticalAlign=middle;resizable=0;points=[];" vertex="1" connectable="0" parent="z7WjeKVMrqfT_wvCUD4l-60">
          <mxGeometry x="-0.2933" y="-2" relative="1" as="geometry">
            <mxPoint as="offset" />
          </mxGeometry>
        </mxCell>
        <mxCell id="z7WjeKVMrqfT_wvCUD4l-62" value="" style="edgeStyle=orthogonalEdgeStyle;rounded=0;orthogonalLoop=1;jettySize=auto;html=1;" edge="1" parent="1" source="z7WjeKVMrqfT_wvCUD4l-64" target="z7WjeKVMrqfT_wvCUD4l-115">
          <mxGeometry relative="1" as="geometry" />
        </mxCell>
        <mxCell id="z7WjeKVMrqfT_wvCUD4l-63" value="ใช่" style="edgeLabel;html=1;align=center;verticalAlign=middle;resizable=0;points=[];" vertex="1" connectable="0" parent="z7WjeKVMrqfT_wvCUD4l-62">
          <mxGeometry x="0.1009" y="-3" relative="1" as="geometry">
            <mxPoint as="offset" />
          </mxGeometry>
        </mxCell>
        <mxCell id="z7WjeKVMrqfT_wvCUD4l-64" value="โค้กมั้ย" style="rhombus;whiteSpace=wrap;html=1;" vertex="1" parent="1">
          <mxGeometry x="2509" y="730" width="80" height="80" as="geometry" />
        </mxCell>
        <mxCell id="z7WjeKVMrqfT_wvCUD4l-65" style="edgeStyle=orthogonalEdgeStyle;rounded=0;orthogonalLoop=1;jettySize=auto;html=1;entryX=0.5;entryY=0;entryDx=0;entryDy=0;" edge="1" parent="1" source="z7WjeKVMrqfT_wvCUD4l-69" target="z7WjeKVMrqfT_wvCUD4l-74">
          <mxGeometry relative="1" as="geometry" />
        </mxCell>
        <mxCell id="z7WjeKVMrqfT_wvCUD4l-66" value="ไม่" style="edgeLabel;html=1;align=center;verticalAlign=middle;resizable=0;points=[];" vertex="1" connectable="0" parent="z7WjeKVMrqfT_wvCUD4l-65">
          <mxGeometry x="-0.2963" y="-1" relative="1" as="geometry">
            <mxPoint as="offset" />
          </mxGeometry>
        </mxCell>
        <mxCell id="z7WjeKVMrqfT_wvCUD4l-67" value="" style="edgeStyle=orthogonalEdgeStyle;rounded=0;orthogonalLoop=1;jettySize=auto;html=1;" edge="1" parent="1" source="z7WjeKVMrqfT_wvCUD4l-69" target="z7WjeKVMrqfT_wvCUD4l-117">
          <mxGeometry relative="1" as="geometry" />
        </mxCell>
        <mxCell id="z7WjeKVMrqfT_wvCUD4l-68" value="ใช่" style="edgeLabel;html=1;align=center;verticalAlign=middle;resizable=0;points=[];" vertex="1" connectable="0" parent="z7WjeKVMrqfT_wvCUD4l-67">
          <mxGeometry x="-0.1437" y="-1" relative="1" as="geometry">
            <mxPoint as="offset" />
          </mxGeometry>
        </mxCell>
        <mxCell id="z7WjeKVMrqfT_wvCUD4l-69" value="&lt;div&gt;น้ำเขียวมั้ย&lt;/div&gt;" style="rhombus;whiteSpace=wrap;html=1;" vertex="1" parent="1">
          <mxGeometry x="2509" y="860" width="80" height="80" as="geometry" />
        </mxCell>
        <mxCell id="z7WjeKVMrqfT_wvCUD4l-70" style="edgeStyle=orthogonalEdgeStyle;rounded=0;orthogonalLoop=1;jettySize=auto;html=1;entryX=0;entryY=0.5;entryDx=0;entryDy=0;" edge="1" parent="1" source="z7WjeKVMrqfT_wvCUD4l-74" target="z7WjeKVMrqfT_wvCUD4l-121">
          <mxGeometry relative="1" as="geometry">
            <Array as="points">
              <mxPoint x="2548" y="1140" />
            </Array>
          </mxGeometry>
        </mxCell>
        <mxCell id="z7WjeKVMrqfT_wvCUD4l-71" value="ใช่" style="edgeLabel;html=1;align=center;verticalAlign=middle;resizable=0;points=[];" vertex="1" connectable="0" parent="z7WjeKVMrqfT_wvCUD4l-70">
          <mxGeometry x="0.4107" y="1" relative="1" as="geometry">
            <mxPoint as="offset" />
          </mxGeometry>
        </mxCell>
        <mxCell id="z7WjeKVMrqfT_wvCUD4l-72" value="" style="edgeStyle=orthogonalEdgeStyle;rounded=0;orthogonalLoop=1;jettySize=auto;html=1;" edge="1" parent="1" source="z7WjeKVMrqfT_wvCUD4l-74" target="z7WjeKVMrqfT_wvCUD4l-119">
          <mxGeometry relative="1" as="geometry" />
        </mxCell>
        <mxCell id="z7WjeKVMrqfT_wvCUD4l-73" value="ใช่" style="edgeLabel;html=1;align=center;verticalAlign=middle;resizable=0;points=[];" vertex="1" connectable="0" parent="z7WjeKVMrqfT_wvCUD4l-72">
          <mxGeometry x="-0.2486" y="1" relative="1" as="geometry">
            <mxPoint as="offset" />
          </mxGeometry>
        </mxCell>
        <mxCell id="z7WjeKVMrqfT_wvCUD4l-74" value="&lt;br&gt;อเมริกาโน่ มั้ย&lt;div&gt;&amp;nbsp;&lt;br&gt;&lt;/div&gt;" style="rhombus;whiteSpace=wrap;html=1;" vertex="1" parent="1">
          <mxGeometry x="2509" y="980" width="80" height="80" as="geometry" />
        </mxCell>
        <mxCell id="z7WjeKVMrqfT_wvCUD4l-75" value="โค้ก&amp;nbsp;&lt;div&gt;กระป๋องละ 10 บาท&lt;/div&gt;" style="rounded=0;whiteSpace=wrap;html=1;" vertex="1" parent="1">
          <mxGeometry x="3250" y="740" width="120" height="60" as="geometry" />
        </mxCell>
        <mxCell id="z7WjeKVMrqfT_wvCUD4l-76" style="edgeStyle=orthogonalEdgeStyle;rounded=0;orthogonalLoop=1;jettySize=auto;html=1;" edge="1" parent="1" source="z7WjeKVMrqfT_wvCUD4l-77">
          <mxGeometry relative="1" as="geometry">
            <mxPoint x="3420" y="900" as="targetPoint" />
          </mxGeometry>
        </mxCell>
        <mxCell id="z7WjeKVMrqfT_wvCUD4l-77" value="&lt;div&gt;น้ำเขียว&lt;/div&gt;&lt;div&gt;กระป๋องละ 12 บาท&lt;/div&gt;" style="rounded=0;whiteSpace=wrap;html=1;" vertex="1" parent="1">
          <mxGeometry x="3245" y="870" width="120" height="60" as="geometry" />
        </mxCell>
        <mxCell id="z7WjeKVMrqfT_wvCUD4l-78" style="edgeStyle=orthogonalEdgeStyle;rounded=0;orthogonalLoop=1;jettySize=auto;html=1;" edge="1" parent="1" source="z7WjeKVMrqfT_wvCUD4l-79">
          <mxGeometry relative="1" as="geometry">
            <mxPoint x="3420" y="1020" as="targetPoint" />
          </mxGeometry>
        </mxCell>
        <mxCell id="z7WjeKVMrqfT_wvCUD4l-79" value="&lt;br&gt;อเมริกาโน่&lt;div&gt;&amp;nbsp;30 บาท&lt;br&gt;&lt;/div&gt;" style="rounded=0;whiteSpace=wrap;html=1;" vertex="1" parent="1">
          <mxGeometry x="3250" y="990" width="120" height="60" as="geometry" />
        </mxCell>
        <mxCell id="z7WjeKVMrqfT_wvCUD4l-80" style="edgeStyle=orthogonalEdgeStyle;rounded=0;orthogonalLoop=1;jettySize=auto;html=1;" edge="1" parent="1" source="z7WjeKVMrqfT_wvCUD4l-81">
          <mxGeometry relative="1" as="geometry">
            <mxPoint x="3420" y="1140" as="targetPoint" />
          </mxGeometry>
        </mxCell>
        <mxCell id="z7WjeKVMrqfT_wvCUD4l-81" value="&lt;br&gt;ลาเต้ หวานเจี๊ยบ&lt;div&gt;&amp;nbsp;35 บาท&lt;span style=&quot;white-space: pre;&quot;&gt;&amp;nbsp;&amp;nbsp;&amp;nbsp;&amp;nbsp;&lt;/span&gt;&lt;br&gt;&lt;/div&gt;" style="rounded=0;whiteSpace=wrap;html=1;" vertex="1" parent="1">
          <mxGeometry x="3245" y="1110" width="120" height="60" as="geometry" />
        </mxCell>
        <mxCell id="z7WjeKVMrqfT_wvCUD4l-82" value="" style="endArrow=classic;html=1;rounded=0;entryX=0;entryY=0.5;entryDx=0;entryDy=0;" edge="1" parent="1" target="z7WjeKVMrqfT_wvCUD4l-86">
          <mxGeometry width="50" height="50" relative="1" as="geometry">
            <mxPoint x="1420" y="1300" as="sourcePoint" />
            <mxPoint x="2348" y="1300" as="targetPoint" />
          </mxGeometry>
        </mxCell>
        <mxCell id="z7WjeKVMrqfT_wvCUD4l-83" value="" style="endArrow=classic;html=1;rounded=0;" edge="1" parent="1" source="z7WjeKVMrqfT_wvCUD4l-86">
          <mxGeometry width="50" height="50" relative="1" as="geometry">
            <mxPoint x="2708" y="1300" as="sourcePoint" />
            <mxPoint x="2393" y="1300" as="targetPoint" />
          </mxGeometry>
        </mxCell>
        <mxCell id="z7WjeKVMrqfT_wvCUD4l-84" value="" style="endArrow=classic;html=1;rounded=0;" edge="1" parent="1">
          <mxGeometry width="50" height="50" relative="1" as="geometry">
            <mxPoint x="3420" y="1300" as="sourcePoint" />
            <mxPoint x="2423" y="1299.58" as="targetPoint" />
          </mxGeometry>
        </mxCell>
        <mxCell id="z7WjeKVMrqfT_wvCUD4l-85" style="edgeStyle=orthogonalEdgeStyle;rounded=0;orthogonalLoop=1;jettySize=auto;html=1;entryX=0.5;entryY=0;entryDx=0;entryDy=0;" edge="1" parent="1" source="z7WjeKVMrqfT_wvCUD4l-86">
          <mxGeometry relative="1" as="geometry">
            <mxPoint x="2412.9999999999995" y="1410" as="targetPoint" />
          </mxGeometry>
        </mxCell>
        <mxCell id="z7WjeKVMrqfT_wvCUD4l-86" value="" style="ellipse;whiteSpace=wrap;html=1;aspect=fixed;" vertex="1" parent="1">
          <mxGeometry x="2403" y="1290" width="20" height="20" as="geometry" />
        </mxCell>
        <mxCell id="z7WjeKVMrqfT_wvCUD4l-87" value="&lt;font style=&quot;font-size: 18px;&quot;&gt;stop&lt;/font&gt;" style="ellipse;whiteSpace=wrap;html=1;" vertex="1" parent="1">
          <mxGeometry x="2352.5" y="1540" width="115" height="50" as="geometry" />
        </mxCell>
        <mxCell id="z7WjeKVMrqfT_wvCUD4l-88" value="" style="edgeStyle=orthogonalEdgeStyle;rounded=0;orthogonalLoop=1;jettySize=auto;html=1;" edge="1" parent="1" source="z7WjeKVMrqfT_wvCUD4l-89" target="z7WjeKVMrqfT_wvCUD4l-123">
          <mxGeometry relative="1" as="geometry" />
        </mxCell>
        <mxCell id="z7WjeKVMrqfT_wvCUD4l-89" value="จำนวน 20 ถุง" style="rounded=0;whiteSpace=wrap;html=1;" vertex="1" parent="1">
          <mxGeometry x="1860" y="740" width="120" height="60" as="geometry" />
        </mxCell>
        <mxCell id="z7WjeKVMrqfT_wvCUD4l-90" value="" style="edgeStyle=orthogonalEdgeStyle;rounded=0;orthogonalLoop=1;jettySize=auto;html=1;" edge="1" parent="1" source="z7WjeKVMrqfT_wvCUD4l-91" target="z7WjeKVMrqfT_wvCUD4l-125">
          <mxGeometry relative="1" as="geometry" />
        </mxCell>
        <mxCell id="z7WjeKVMrqfT_wvCUD4l-91" value="จำนวน 20 ถุง" style="rounded=0;whiteSpace=wrap;html=1;" vertex="1" parent="1">
          <mxGeometry x="1860" y="870" width="120" height="60" as="geometry" />
        </mxCell>
        <mxCell id="z7WjeKVMrqfT_wvCUD4l-92" value="" style="edgeStyle=orthogonalEdgeStyle;rounded=0;orthogonalLoop=1;jettySize=auto;html=1;" edge="1" parent="1" source="z7WjeKVMrqfT_wvCUD4l-93" target="z7WjeKVMrqfT_wvCUD4l-127">
          <mxGeometry relative="1" as="geometry" />
        </mxCell>
        <mxCell id="z7WjeKVMrqfT_wvCUD4l-93" value="จำนวน 20 ถุง" style="rounded=0;whiteSpace=wrap;html=1;" vertex="1" parent="1">
          <mxGeometry x="1860" y="990" width="120" height="60" as="geometry" />
        </mxCell>
        <mxCell id="z7WjeKVMrqfT_wvCUD4l-94" value="" style="edgeStyle=orthogonalEdgeStyle;rounded=0;orthogonalLoop=1;jettySize=auto;html=1;" edge="1" parent="1" source="z7WjeKVMrqfT_wvCUD4l-95" target="z7WjeKVMrqfT_wvCUD4l-130">
          <mxGeometry relative="1" as="geometry" />
        </mxCell>
        <mxCell id="z7WjeKVMrqfT_wvCUD4l-95" value="จำนวน 20 กระป๋อง" style="rounded=0;whiteSpace=wrap;html=1;" vertex="1" parent="1">
          <mxGeometry x="2890" y="740" width="120" height="60" as="geometry" />
        </mxCell>
        <mxCell id="z7WjeKVMrqfT_wvCUD4l-96" value="" style="edgeStyle=orthogonalEdgeStyle;rounded=0;orthogonalLoop=1;jettySize=auto;html=1;" edge="1" parent="1" source="z7WjeKVMrqfT_wvCUD4l-97" target="z7WjeKVMrqfT_wvCUD4l-132">
          <mxGeometry relative="1" as="geometry" />
        </mxCell>
        <mxCell id="z7WjeKVMrqfT_wvCUD4l-97" value="จำนวน 20 กระป๋อง" style="rounded=0;whiteSpace=wrap;html=1;" vertex="1" parent="1">
          <mxGeometry x="2890" y="870" width="120" height="60" as="geometry" />
        </mxCell>
        <mxCell id="z7WjeKVMrqfT_wvCUD4l-98" value="" style="edgeStyle=orthogonalEdgeStyle;rounded=0;orthogonalLoop=1;jettySize=auto;html=1;" edge="1" parent="1" source="z7WjeKVMrqfT_wvCUD4l-99" target="z7WjeKVMrqfT_wvCUD4l-134">
          <mxGeometry relative="1" as="geometry" />
        </mxCell>
        <mxCell id="z7WjeKVMrqfT_wvCUD4l-99" value="จำนวน&amp;nbsp; 20 กระป๋อง&lt;div&gt;&lt;br&gt;&lt;/div&gt;" style="rounded=0;whiteSpace=wrap;html=1;" vertex="1" parent="1">
          <mxGeometry x="2890" y="990" width="120" height="60" as="geometry" />
        </mxCell>
        <mxCell id="z7WjeKVMrqfT_wvCUD4l-100" value="" style="edgeStyle=orthogonalEdgeStyle;rounded=0;orthogonalLoop=1;jettySize=auto;html=1;" edge="1" parent="1" source="z7WjeKVMrqfT_wvCUD4l-101" target="z7WjeKVMrqfT_wvCUD4l-136">
          <mxGeometry relative="1" as="geometry" />
        </mxCell>
        <mxCell id="z7WjeKVMrqfT_wvCUD4l-101" value="จำนวน 20 กระป๋อง" style="rounded=0;whiteSpace=wrap;html=1;" vertex="1" parent="1">
          <mxGeometry x="2890" y="1110" width="120" height="60" as="geometry" />
        </mxCell>
        <mxCell id="z7WjeKVMrqfT_wvCUD4l-102" value="" style="endArrow=none;html=1;rounded=0;exitX=1;exitY=0.5;exitDx=0;exitDy=0;" edge="1" parent="1">
          <mxGeometry width="50" height="50" relative="1" as="geometry">
            <mxPoint x="3370" y="769.4700000000003" as="sourcePoint" />
            <mxPoint x="3420" y="769.4700000000003" as="targetPoint" />
          </mxGeometry>
        </mxCell>
        <mxCell id="z7WjeKVMrqfT_wvCUD4l-103" value="" style="endArrow=none;html=1;rounded=0;" edge="1" parent="1">
          <mxGeometry width="50" height="50" relative="1" as="geometry">
            <mxPoint x="3420" y="1300" as="sourcePoint" />
            <mxPoint x="3420" y="770" as="targetPoint" />
          </mxGeometry>
        </mxCell>
        <mxCell id="z7WjeKVMrqfT_wvCUD4l-104" value="" style="endArrow=none;html=1;rounded=0;" edge="1" parent="1">
          <mxGeometry width="50" height="50" relative="1" as="geometry">
            <mxPoint x="1420" y="1300" as="sourcePoint" />
            <mxPoint x="1420" y="768.4762137276784" as="targetPoint" />
          </mxGeometry>
        </mxCell>
        <mxCell id="z7WjeKVMrqfT_wvCUD4l-105" style="edgeStyle=orthogonalEdgeStyle;rounded=0;orthogonalLoop=1;jettySize=auto;html=1;entryX=0.5;entryY=0;entryDx=0;entryDy=0;" edge="1" parent="1" source="z7WjeKVMrqfT_wvCUD4l-106" target="z7WjeKVMrqfT_wvCUD4l-87">
          <mxGeometry relative="1" as="geometry" />
        </mxCell>
        <mxCell id="z7WjeKVMrqfT_wvCUD4l-106" value="จำนวนสินค้าที่เลือก" style="shape=parallelogram;perimeter=parallelogramPerimeter;whiteSpace=wrap;html=1;fixedSize=1;" vertex="1" parent="1">
          <mxGeometry x="2350" y="1410" width="120" height="60" as="geometry" />
        </mxCell>
        <mxCell id="z7WjeKVMrqfT_wvCUD4l-107" value="" style="edgeStyle=orthogonalEdgeStyle;rounded=0;orthogonalLoop=1;jettySize=auto;html=1;" edge="1" parent="1" source="z7WjeKVMrqfT_wvCUD4l-108" target="z7WjeKVMrqfT_wvCUD4l-89">
          <mxGeometry relative="1" as="geometry" />
        </mxCell>
        <mxCell id="z7WjeKVMrqfT_wvCUD4l-108" value="เมล็ดทานตะวัน" style="rounded=0;whiteSpace=wrap;html=1;" vertex="1" parent="1">
          <mxGeometry x="2048" y="740" width="120" height="60" as="geometry" />
        </mxCell>
        <mxCell id="z7WjeKVMrqfT_wvCUD4l-109" value="" style="edgeStyle=orthogonalEdgeStyle;rounded=0;orthogonalLoop=1;jettySize=auto;html=1;" edge="1" parent="1" source="z7WjeKVMrqfT_wvCUD4l-110" target="z7WjeKVMrqfT_wvCUD4l-91">
          <mxGeometry relative="1" as="geometry" />
        </mxCell>
        <mxCell id="z7WjeKVMrqfT_wvCUD4l-110" value="ถั่วแปบ" style="rounded=0;whiteSpace=wrap;html=1;" vertex="1" parent="1">
          <mxGeometry x="2048" y="870" width="120" height="60" as="geometry" />
        </mxCell>
        <mxCell id="z7WjeKVMrqfT_wvCUD4l-111" value="" style="edgeStyle=orthogonalEdgeStyle;rounded=0;orthogonalLoop=1;jettySize=auto;html=1;" edge="1" parent="1" source="z7WjeKVMrqfT_wvCUD4l-112" target="z7WjeKVMrqfT_wvCUD4l-93">
          <mxGeometry relative="1" as="geometry" />
        </mxCell>
        <mxCell id="z7WjeKVMrqfT_wvCUD4l-112" value="จิ้นส้มหมก" style="rounded=0;whiteSpace=wrap;html=1;" vertex="1" parent="1">
          <mxGeometry x="2048" y="990" width="120" height="60" as="geometry" />
        </mxCell>
        <mxCell id="z7WjeKVMrqfT_wvCUD4l-113" value="ใช่" style="text;html=1;align=center;verticalAlign=middle;resizable=0;points=[];autosize=1;strokeColor=none;fillColor=none;" vertex="1" parent="1">
          <mxGeometry x="2178" y="878" width="40" height="30" as="geometry" />
        </mxCell>
        <mxCell id="z7WjeKVMrqfT_wvCUD4l-114" value="" style="edgeStyle=orthogonalEdgeStyle;rounded=0;orthogonalLoop=1;jettySize=auto;html=1;" edge="1" parent="1" source="z7WjeKVMrqfT_wvCUD4l-115" target="z7WjeKVMrqfT_wvCUD4l-95">
          <mxGeometry relative="1" as="geometry" />
        </mxCell>
        <mxCell id="z7WjeKVMrqfT_wvCUD4l-115" value="โค้ก" style="rounded=0;whiteSpace=wrap;html=1;" vertex="1" parent="1">
          <mxGeometry x="2698" y="740" width="120" height="60" as="geometry" />
        </mxCell>
        <mxCell id="z7WjeKVMrqfT_wvCUD4l-116" value="" style="edgeStyle=orthogonalEdgeStyle;rounded=0;orthogonalLoop=1;jettySize=auto;html=1;" edge="1" parent="1" source="z7WjeKVMrqfT_wvCUD4l-117" target="z7WjeKVMrqfT_wvCUD4l-97">
          <mxGeometry relative="1" as="geometry" />
        </mxCell>
        <mxCell id="z7WjeKVMrqfT_wvCUD4l-117" value="น้ำเขียว" style="rounded=0;whiteSpace=wrap;html=1;" vertex="1" parent="1">
          <mxGeometry x="2698" y="870" width="120" height="60" as="geometry" />
        </mxCell>
        <mxCell id="z7WjeKVMrqfT_wvCUD4l-118" value="" style="edgeStyle=orthogonalEdgeStyle;rounded=0;orthogonalLoop=1;jettySize=auto;html=1;" edge="1" parent="1" source="z7WjeKVMrqfT_wvCUD4l-119" target="z7WjeKVMrqfT_wvCUD4l-99">
          <mxGeometry relative="1" as="geometry" />
        </mxCell>
        <mxCell id="z7WjeKVMrqfT_wvCUD4l-119" value="เมล็ดทานตะวัน" style="rounded=0;whiteSpace=wrap;html=1;" vertex="1" parent="1">
          <mxGeometry x="2698" y="990" width="120" height="60" as="geometry" />
        </mxCell>
        <mxCell id="z7WjeKVMrqfT_wvCUD4l-120" value="" style="edgeStyle=orthogonalEdgeStyle;rounded=0;orthogonalLoop=1;jettySize=auto;html=1;" edge="1" parent="1" source="z7WjeKVMrqfT_wvCUD4l-121" target="z7WjeKVMrqfT_wvCUD4l-101">
          <mxGeometry relative="1" as="geometry" />
        </mxCell>
        <mxCell id="z7WjeKVMrqfT_wvCUD4l-121" value="ลาเต้หวานเจี๊ยบ" style="rounded=0;whiteSpace=wrap;html=1;" vertex="1" parent="1">
          <mxGeometry x="2698" y="1110" width="120" height="60" as="geometry" />
        </mxCell>
        <mxCell id="z7WjeKVMrqfT_wvCUD4l-122" value="" style="edgeStyle=orthogonalEdgeStyle;rounded=0;orthogonalLoop=1;jettySize=auto;html=1;" edge="1" parent="1" source="z7WjeKVMrqfT_wvCUD4l-123" target="z7WjeKVMrqfT_wvCUD4l-51">
          <mxGeometry relative="1" as="geometry" />
        </mxCell>
        <mxCell id="z7WjeKVMrqfT_wvCUD4l-123" value="เมล็ดทานตะวัน - a&amp;nbsp;&lt;div&gt;= เมล็ดทานตะวัน&amp;nbsp;&lt;/div&gt;" style="rounded=0;whiteSpace=wrap;html=1;" vertex="1" parent="1">
          <mxGeometry x="1670" y="740" width="120" height="60" as="geometry" />
        </mxCell>
        <mxCell id="z7WjeKVMrqfT_wvCUD4l-124" value="" style="edgeStyle=orthogonalEdgeStyle;rounded=0;orthogonalLoop=1;jettySize=auto;html=1;" edge="1" parent="1" source="z7WjeKVMrqfT_wvCUD4l-125" target="z7WjeKVMrqfT_wvCUD4l-57">
          <mxGeometry relative="1" as="geometry" />
        </mxCell>
        <mxCell id="z7WjeKVMrqfT_wvCUD4l-125" value="ถั่วแปบ - b = ถั่วแปบ" style="rounded=0;whiteSpace=wrap;html=1;" vertex="1" parent="1">
          <mxGeometry x="1670" y="870" width="120" height="60" as="geometry" />
        </mxCell>
        <mxCell id="z7WjeKVMrqfT_wvCUD4l-126" value="" style="edgeStyle=orthogonalEdgeStyle;rounded=0;orthogonalLoop=1;jettySize=auto;html=1;" edge="1" parent="1" source="z7WjeKVMrqfT_wvCUD4l-127" target="z7WjeKVMrqfT_wvCUD4l-59">
          <mxGeometry relative="1" as="geometry" />
        </mxCell>
        <mxCell id="z7WjeKVMrqfT_wvCUD4l-127" value="จิ้นส้มหมก - c&amp;nbsp;&lt;div&gt;= จิ้นส้มหมก&lt;/div&gt;" style="rounded=0;whiteSpace=wrap;html=1;" vertex="1" parent="1">
          <mxGeometry x="1670" y="990" width="120" height="60" as="geometry" />
        </mxCell>
        <mxCell id="z7WjeKVMrqfT_wvCUD4l-128" value="" style="endArrow=none;html=1;rounded=0;" edge="1" parent="1">
          <mxGeometry width="50" height="50" relative="1" as="geometry">
            <mxPoint x="1420" y="770" as="sourcePoint" />
            <mxPoint x="1490" y="770" as="targetPoint" />
          </mxGeometry>
        </mxCell>
        <mxCell id="z7WjeKVMrqfT_wvCUD4l-129" value="" style="edgeStyle=orthogonalEdgeStyle;rounded=0;orthogonalLoop=1;jettySize=auto;html=1;" edge="1" parent="1" source="z7WjeKVMrqfT_wvCUD4l-130" target="z7WjeKVMrqfT_wvCUD4l-75">
          <mxGeometry relative="1" as="geometry" />
        </mxCell>
        <mxCell id="z7WjeKVMrqfT_wvCUD4l-130" value="โค้ก - d = โค้ก" style="rounded=0;whiteSpace=wrap;html=1;" vertex="1" parent="1">
          <mxGeometry x="3070" y="740" width="120" height="60" as="geometry" />
        </mxCell>
        <mxCell id="z7WjeKVMrqfT_wvCUD4l-131" value="" style="edgeStyle=orthogonalEdgeStyle;rounded=0;orthogonalLoop=1;jettySize=auto;html=1;" edge="1" parent="1" source="z7WjeKVMrqfT_wvCUD4l-132" target="z7WjeKVMrqfT_wvCUD4l-77">
          <mxGeometry relative="1" as="geometry" />
        </mxCell>
        <mxCell id="z7WjeKVMrqfT_wvCUD4l-132" value="น้ำเขียว - e = น้ำเขียว" style="rounded=0;whiteSpace=wrap;html=1;" vertex="1" parent="1">
          <mxGeometry x="3070" y="870" width="120" height="60" as="geometry" />
        </mxCell>
        <mxCell id="z7WjeKVMrqfT_wvCUD4l-133" value="" style="edgeStyle=orthogonalEdgeStyle;rounded=0;orthogonalLoop=1;jettySize=auto;html=1;" edge="1" parent="1" source="z7WjeKVMrqfT_wvCUD4l-134" target="z7WjeKVMrqfT_wvCUD4l-79">
          <mxGeometry relative="1" as="geometry" />
        </mxCell>
        <mxCell id="z7WjeKVMrqfT_wvCUD4l-134" value="อเมริกาโน่ - f&amp;nbsp;&lt;div&gt;= อเมริกาโน่&lt;/div&gt;" style="rounded=0;whiteSpace=wrap;html=1;" vertex="1" parent="1">
          <mxGeometry x="3070" y="990" width="120" height="60" as="geometry" />
        </mxCell>
        <mxCell id="z7WjeKVMrqfT_wvCUD4l-135" value="" style="edgeStyle=orthogonalEdgeStyle;rounded=0;orthogonalLoop=1;jettySize=auto;html=1;" edge="1" parent="1" source="z7WjeKVMrqfT_wvCUD4l-136" target="z7WjeKVMrqfT_wvCUD4l-81">
          <mxGeometry relative="1" as="geometry" />
        </mxCell>
        <mxCell id="z7WjeKVMrqfT_wvCUD4l-136" value="ลาเต้หวานเจี๊ยบ - g&amp;nbsp;&lt;div&gt;= ลาเต้หวานเจี๊ยบ&lt;/div&gt;" style="rounded=0;whiteSpace=wrap;html=1;" vertex="1" parent="1">
          <mxGeometry x="3070" y="1110" width="120" height="60" as="geometry" />
        </mxCell>
        <mxCell id="z7WjeKVMrqfT_wvCUD4l-137" value="" style="edgeStyle=orthogonalEdgeStyle;rounded=0;orthogonalLoop=1;jettySize=auto;html=1;" edge="1" parent="1" source="z7WjeKVMrqfT_wvCUD4l-138" target="z7WjeKVMrqfT_wvCUD4l-222">
          <mxGeometry relative="1" as="geometry" />
        </mxCell>
        <mxCell id="z7WjeKVMrqfT_wvCUD4l-138" value="เหรียญ 1&lt;div&gt;= 30 เหรียญ&lt;/div&gt;" style="rounded=0;whiteSpace=wrap;html=1;" vertex="1" parent="1">
          <mxGeometry x="2629.5" y="2000" width="90" height="40" as="geometry" />
        </mxCell>
        <mxCell id="z7WjeKVMrqfT_wvCUD4l-139" value="" style="edgeStyle=orthogonalEdgeStyle;rounded=0;orthogonalLoop=1;jettySize=auto;html=1;" edge="1" parent="1" source="z7WjeKVMrqfT_wvCUD4l-140" target="z7WjeKVMrqfT_wvCUD4l-226">
          <mxGeometry relative="1" as="geometry" />
        </mxCell>
        <mxCell id="z7WjeKVMrqfT_wvCUD4l-140" value="เหรียญ 5&lt;div&gt;= 30 เหรียญ&lt;/div&gt;" style="rounded=0;whiteSpace=wrap;html=1;" vertex="1" parent="1">
          <mxGeometry x="2629.5" y="2200" width="90" height="40" as="geometry" />
        </mxCell>
        <mxCell id="z7WjeKVMrqfT_wvCUD4l-141" value="" style="edgeStyle=orthogonalEdgeStyle;rounded=0;orthogonalLoop=1;jettySize=auto;html=1;" edge="1" parent="1" source="z7WjeKVMrqfT_wvCUD4l-142" target="z7WjeKVMrqfT_wvCUD4l-228">
          <mxGeometry relative="1" as="geometry" />
        </mxCell>
        <mxCell id="z7WjeKVMrqfT_wvCUD4l-142" value="เหรียญ 10&lt;div&gt;= 30 เหรียญ&lt;/div&gt;" style="rounded=0;whiteSpace=wrap;html=1;" vertex="1" parent="1">
          <mxGeometry x="2629.5" y="2301" width="90" height="40" as="geometry" />
        </mxCell>
        <mxCell id="z7WjeKVMrqfT_wvCUD4l-143" value="" style="edgeStyle=orthogonalEdgeStyle;rounded=0;orthogonalLoop=1;jettySize=auto;html=1;" edge="1" parent="1" source="z7WjeKVMrqfT_wvCUD4l-144" target="z7WjeKVMrqfT_wvCUD4l-202">
          <mxGeometry relative="1" as="geometry" />
        </mxCell>
        <mxCell id="z7WjeKVMrqfT_wvCUD4l-144" value="&lt;div&gt;แบงค์ 20&lt;/div&gt;&lt;div&gt;&lt;span style=&quot;background-color: transparent; color: light-dark(rgb(0, 0, 0), rgb(255, 255, 255));&quot;&gt;= 50 แบงค์&lt;/span&gt;&lt;/div&gt;" style="rounded=0;whiteSpace=wrap;html=1;" vertex="1" parent="1">
          <mxGeometry x="2118.5" y="2000" width="90" height="40" as="geometry" />
        </mxCell>
        <mxCell id="z7WjeKVMrqfT_wvCUD4l-145" value="" style="edgeStyle=orthogonalEdgeStyle;rounded=0;orthogonalLoop=1;jettySize=auto;html=1;" edge="1" parent="1" source="z7WjeKVMrqfT_wvCUD4l-146" target="z7WjeKVMrqfT_wvCUD4l-204">
          <mxGeometry relative="1" as="geometry" />
        </mxCell>
        <mxCell id="z7WjeKVMrqfT_wvCUD4l-146" value="&lt;div&gt;แบงค์ 50&lt;/div&gt;&lt;div&gt;= 40 แบงค์&lt;/div&gt;" style="rounded=0;whiteSpace=wrap;html=1;" vertex="1" parent="1">
          <mxGeometry x="2118.5" y="2105" width="90" height="40" as="geometry" />
        </mxCell>
        <mxCell id="z7WjeKVMrqfT_wvCUD4l-147" value="" style="edgeStyle=orthogonalEdgeStyle;rounded=0;orthogonalLoop=1;jettySize=auto;html=1;" edge="1" parent="1" source="z7WjeKVMrqfT_wvCUD4l-148" target="z7WjeKVMrqfT_wvCUD4l-208">
          <mxGeometry relative="1" as="geometry" />
        </mxCell>
        <mxCell id="z7WjeKVMrqfT_wvCUD4l-148" value="&lt;div&gt;แบงค์ 100&lt;/div&gt;&lt;div&gt;= 30 แบงค์&lt;/div&gt;" style="rounded=0;whiteSpace=wrap;html=1;" vertex="1" parent="1">
          <mxGeometry x="2118.5" y="2208.5" width="90" height="40" as="geometry" />
        </mxCell>
        <mxCell id="z7WjeKVMrqfT_wvCUD4l-149" value="" style="edgeStyle=orthogonalEdgeStyle;rounded=0;orthogonalLoop=1;jettySize=auto;html=1;" edge="1" parent="1" source="z7WjeKVMrqfT_wvCUD4l-151" target="z7WjeKVMrqfT_wvCUD4l-173">
          <mxGeometry relative="1" as="geometry" />
        </mxCell>
        <mxCell id="z7WjeKVMrqfT_wvCUD4l-150" value="" style="edgeStyle=orthogonalEdgeStyle;rounded=0;orthogonalLoop=1;jettySize=auto;html=1;" edge="1" parent="1" source="z7WjeKVMrqfT_wvCUD4l-151" target="z7WjeKVMrqfT_wvCUD4l-138">
          <mxGeometry relative="1" as="geometry" />
        </mxCell>
        <mxCell id="z7WjeKVMrqfT_wvCUD4l-151" value="เหรียญ 1 บาท&lt;div&gt;มั้ย&lt;/div&gt;" style="rhombus;whiteSpace=wrap;html=1;" vertex="1" parent="1">
          <mxGeometry x="2498.5" y="1980" width="80" height="80" as="geometry" />
        </mxCell>
        <mxCell id="z7WjeKVMrqfT_wvCUD4l-152" value="" style="edgeStyle=orthogonalEdgeStyle;rounded=0;orthogonalLoop=1;jettySize=auto;html=1;" edge="1" parent="1" source="z7WjeKVMrqfT_wvCUD4l-154" target="z7WjeKVMrqfT_wvCUD4l-140">
          <mxGeometry relative="1" as="geometry" />
        </mxCell>
        <mxCell id="z7WjeKVMrqfT_wvCUD4l-153" style="edgeStyle=orthogonalEdgeStyle;rounded=0;orthogonalLoop=1;jettySize=auto;html=1;entryX=0;entryY=0.5;entryDx=0;entryDy=0;" edge="1" parent="1" source="z7WjeKVMrqfT_wvCUD4l-154" target="z7WjeKVMrqfT_wvCUD4l-142">
          <mxGeometry relative="1" as="geometry">
            <Array as="points">
              <mxPoint x="2538.5" y="2321" />
            </Array>
          </mxGeometry>
        </mxCell>
        <mxCell id="z7WjeKVMrqfT_wvCUD4l-154" value="เหรียญ 5 บาท&lt;div&gt;มั้ย&lt;/div&gt;" style="rhombus;whiteSpace=wrap;html=1;" vertex="1" parent="1">
          <mxGeometry x="2498.5" y="2180" width="80" height="80" as="geometry" />
        </mxCell>
        <mxCell id="z7WjeKVMrqfT_wvCUD4l-155" value="" style="edgeStyle=orthogonalEdgeStyle;rounded=0;orthogonalLoop=1;jettySize=auto;html=1;" edge="1" parent="1" source="z7WjeKVMrqfT_wvCUD4l-158" target="z7WjeKVMrqfT_wvCUD4l-162">
          <mxGeometry relative="1" as="geometry" />
        </mxCell>
        <mxCell id="z7WjeKVMrqfT_wvCUD4l-156" value="" style="edgeStyle=orthogonalEdgeStyle;rounded=0;orthogonalLoop=1;jettySize=auto;html=1;" edge="1" parent="1" source="z7WjeKVMrqfT_wvCUD4l-158" target="z7WjeKVMrqfT_wvCUD4l-144">
          <mxGeometry relative="1" as="geometry" />
        </mxCell>
        <mxCell id="z7WjeKVMrqfT_wvCUD4l-157" value="ใช่" style="edgeLabel;html=1;align=center;verticalAlign=middle;resizable=0;points=[];" vertex="1" connectable="0" parent="z7WjeKVMrqfT_wvCUD4l-156">
          <mxGeometry x="-0.1863" y="2" relative="1" as="geometry">
            <mxPoint as="offset" />
          </mxGeometry>
        </mxCell>
        <mxCell id="z7WjeKVMrqfT_wvCUD4l-158" value="แบงค์ 20 บาท&lt;div&gt;มั้ย&lt;/div&gt;" style="rhombus;whiteSpace=wrap;html=1;" vertex="1" parent="1">
          <mxGeometry x="2258.5" y="1980" width="80" height="80" as="geometry" />
        </mxCell>
        <mxCell id="z7WjeKVMrqfT_wvCUD4l-159" value="" style="edgeStyle=orthogonalEdgeStyle;rounded=0;orthogonalLoop=1;jettySize=auto;html=1;" edge="1" parent="1" source="z7WjeKVMrqfT_wvCUD4l-162" target="z7WjeKVMrqfT_wvCUD4l-166">
          <mxGeometry relative="1" as="geometry" />
        </mxCell>
        <mxCell id="z7WjeKVMrqfT_wvCUD4l-160" value="" style="edgeStyle=orthogonalEdgeStyle;rounded=0;orthogonalLoop=1;jettySize=auto;html=1;" edge="1" parent="1" source="z7WjeKVMrqfT_wvCUD4l-162" target="z7WjeKVMrqfT_wvCUD4l-146">
          <mxGeometry relative="1" as="geometry" />
        </mxCell>
        <mxCell id="z7WjeKVMrqfT_wvCUD4l-161" value="ใช่" style="edgeLabel;html=1;align=center;verticalAlign=middle;resizable=0;points=[];" vertex="1" connectable="0" parent="z7WjeKVMrqfT_wvCUD4l-160">
          <mxGeometry x="-0.2705" y="-1" relative="1" as="geometry">
            <mxPoint as="offset" />
          </mxGeometry>
        </mxCell>
        <mxCell id="z7WjeKVMrqfT_wvCUD4l-162" value="แบงค์ 50 บาท&lt;div&gt;มั้ย&lt;/div&gt;" style="rhombus;whiteSpace=wrap;html=1;" vertex="1" parent="1">
          <mxGeometry x="2258.5" y="2085" width="80" height="80" as="geometry" />
        </mxCell>
        <mxCell id="z7WjeKVMrqfT_wvCUD4l-163" value="" style="edgeStyle=orthogonalEdgeStyle;rounded=0;orthogonalLoop=1;jettySize=auto;html=1;" edge="1" parent="1" source="z7WjeKVMrqfT_wvCUD4l-166" target="z7WjeKVMrqfT_wvCUD4l-170">
          <mxGeometry relative="1" as="geometry" />
        </mxCell>
        <mxCell id="z7WjeKVMrqfT_wvCUD4l-164" value="" style="edgeStyle=orthogonalEdgeStyle;rounded=0;orthogonalLoop=1;jettySize=auto;html=1;" edge="1" parent="1" source="z7WjeKVMrqfT_wvCUD4l-166" target="z7WjeKVMrqfT_wvCUD4l-148">
          <mxGeometry relative="1" as="geometry" />
        </mxCell>
        <mxCell id="z7WjeKVMrqfT_wvCUD4l-165" value="ใช่" style="edgeLabel;html=1;align=center;verticalAlign=middle;resizable=0;points=[];" vertex="1" connectable="0" parent="z7WjeKVMrqfT_wvCUD4l-164">
          <mxGeometry x="-0.1863" y="-1" relative="1" as="geometry">
            <mxPoint as="offset" />
          </mxGeometry>
        </mxCell>
        <mxCell id="z7WjeKVMrqfT_wvCUD4l-166" value="แบงค์ 100 บาท&lt;div&gt;มั้ย&lt;/div&gt;" style="rhombus;whiteSpace=wrap;html=1;" vertex="1" parent="1">
          <mxGeometry x="2258.5" y="2188.5" width="80" height="80" as="geometry" />
        </mxCell>
        <mxCell id="z7WjeKVMrqfT_wvCUD4l-167" value="" style="edgeStyle=orthogonalEdgeStyle;rounded=0;orthogonalLoop=1;jettySize=auto;html=1;" edge="1" parent="1" source="z7WjeKVMrqfT_wvCUD4l-170" target="z7WjeKVMrqfT_wvCUD4l-177">
          <mxGeometry relative="1" as="geometry" />
        </mxCell>
        <mxCell id="z7WjeKVMrqfT_wvCUD4l-168" value="ใช่" style="edgeLabel;html=1;align=center;verticalAlign=middle;resizable=0;points=[];" vertex="1" connectable="0" parent="z7WjeKVMrqfT_wvCUD4l-167">
          <mxGeometry x="-0.3126" y="-1" relative="1" as="geometry">
            <mxPoint as="offset" />
          </mxGeometry>
        </mxCell>
        <mxCell id="z7WjeKVMrqfT_wvCUD4l-169" style="edgeStyle=orthogonalEdgeStyle;rounded=0;orthogonalLoop=1;jettySize=auto;html=1;entryX=1;entryY=0.5;entryDx=0;entryDy=0;" edge="1" parent="1" source="z7WjeKVMrqfT_wvCUD4l-170" target="z7WjeKVMrqfT_wvCUD4l-179">
          <mxGeometry relative="1" as="geometry">
            <Array as="points">
              <mxPoint x="2298.5" y="2446" />
            </Array>
          </mxGeometry>
        </mxCell>
        <mxCell id="z7WjeKVMrqfT_wvCUD4l-170" value="แบงค์ 500 บาท&lt;div&gt;มั้ย&lt;/div&gt;" style="rhombus;whiteSpace=wrap;html=1;" vertex="1" parent="1">
          <mxGeometry x="2258.5" y="2296" width="80" height="80" as="geometry" />
        </mxCell>
        <mxCell id="z7WjeKVMrqfT_wvCUD4l-171" value="" style="edgeStyle=orthogonalEdgeStyle;rounded=0;orthogonalLoop=1;jettySize=auto;html=1;" edge="1" parent="1" source="z7WjeKVMrqfT_wvCUD4l-173" target="z7WjeKVMrqfT_wvCUD4l-154">
          <mxGeometry relative="1" as="geometry" />
        </mxCell>
        <mxCell id="z7WjeKVMrqfT_wvCUD4l-172" value="" style="edgeStyle=orthogonalEdgeStyle;rounded=0;orthogonalLoop=1;jettySize=auto;html=1;" edge="1" parent="1" source="z7WjeKVMrqfT_wvCUD4l-173" target="z7WjeKVMrqfT_wvCUD4l-175">
          <mxGeometry relative="1" as="geometry" />
        </mxCell>
        <mxCell id="z7WjeKVMrqfT_wvCUD4l-173" value="เหรียญ 2 บาท&lt;div&gt;มั้ย&lt;/div&gt;" style="rhombus;whiteSpace=wrap;html=1;" vertex="1" parent="1">
          <mxGeometry x="2498.5" y="2080" width="80" height="80" as="geometry" />
        </mxCell>
        <mxCell id="z7WjeKVMrqfT_wvCUD4l-174" value="" style="edgeStyle=orthogonalEdgeStyle;rounded=0;orthogonalLoop=1;jettySize=auto;html=1;" edge="1" parent="1" source="z7WjeKVMrqfT_wvCUD4l-175" target="z7WjeKVMrqfT_wvCUD4l-224">
          <mxGeometry relative="1" as="geometry" />
        </mxCell>
        <mxCell id="z7WjeKVMrqfT_wvCUD4l-175" value="เหรียญ 2&lt;div&gt;= 30 เหรียญ&lt;/div&gt;" style="rounded=0;whiteSpace=wrap;html=1;" vertex="1" parent="1">
          <mxGeometry x="2629.5" y="2100" width="90" height="40" as="geometry" />
        </mxCell>
        <mxCell id="z7WjeKVMrqfT_wvCUD4l-176" value="" style="edgeStyle=orthogonalEdgeStyle;rounded=0;orthogonalLoop=1;jettySize=auto;html=1;" edge="1" parent="1" source="z7WjeKVMrqfT_wvCUD4l-177" target="z7WjeKVMrqfT_wvCUD4l-210">
          <mxGeometry relative="1" as="geometry" />
        </mxCell>
        <mxCell id="z7WjeKVMrqfT_wvCUD4l-177" value="&lt;div&gt;แบงค์ 500&lt;/div&gt;&lt;div&gt;= 20 แบงค์&lt;/div&gt;" style="rounded=0;whiteSpace=wrap;html=1;" vertex="1" parent="1">
          <mxGeometry x="2118.5" y="2316" width="90" height="40" as="geometry" />
        </mxCell>
        <mxCell id="z7WjeKVMrqfT_wvCUD4l-178" value="" style="edgeStyle=orthogonalEdgeStyle;rounded=0;orthogonalLoop=1;jettySize=auto;html=1;" edge="1" parent="1" source="z7WjeKVMrqfT_wvCUD4l-179" target="z7WjeKVMrqfT_wvCUD4l-212">
          <mxGeometry relative="1" as="geometry" />
        </mxCell>
        <mxCell id="z7WjeKVMrqfT_wvCUD4l-179" value="&lt;div&gt;แบงค์ 1000&lt;/div&gt;&lt;div&gt;= 10 แบงค์&lt;/div&gt;" style="rounded=0;whiteSpace=wrap;html=1;" vertex="1" parent="1">
          <mxGeometry x="2118.5" y="2426" width="90" height="40" as="geometry" />
        </mxCell>
        <mxCell id="z7WjeKVMrqfT_wvCUD4l-180" value="" style="edgeStyle=orthogonalEdgeStyle;rounded=0;orthogonalLoop=1;jettySize=auto;html=1;" edge="1" parent="1" source="z7WjeKVMrqfT_wvCUD4l-183" target="z7WjeKVMrqfT_wvCUD4l-151">
          <mxGeometry relative="1" as="geometry" />
        </mxCell>
        <mxCell id="z7WjeKVMrqfT_wvCUD4l-181" value="" style="edgeStyle=orthogonalEdgeStyle;rounded=0;orthogonalLoop=1;jettySize=auto;html=1;" edge="1" parent="1" source="z7WjeKVMrqfT_wvCUD4l-183" target="z7WjeKVMrqfT_wvCUD4l-158">
          <mxGeometry relative="1" as="geometry" />
        </mxCell>
        <mxCell id="z7WjeKVMrqfT_wvCUD4l-182" value="ไม่" style="edgeLabel;html=1;align=center;verticalAlign=middle;resizable=0;points=[];" vertex="1" connectable="0" parent="z7WjeKVMrqfT_wvCUD4l-181">
          <mxGeometry x="-0.1934" y="1" relative="1" as="geometry">
            <mxPoint as="offset" />
          </mxGeometry>
        </mxCell>
        <mxCell id="z7WjeKVMrqfT_wvCUD4l-183" value="เหรียญ&lt;div&gt;ใช่มั้ย&lt;/div&gt;" style="rhombus;whiteSpace=wrap;html=1;" vertex="1" parent="1">
          <mxGeometry x="2378.5" y="1980" width="80" height="80" as="geometry" />
        </mxCell>
        <mxCell id="z7WjeKVMrqfT_wvCUD4l-184" value="" style="edgeStyle=orthogonalEdgeStyle;rounded=0;orthogonalLoop=1;jettySize=auto;html=1;" edge="1" parent="1" source="z7WjeKVMrqfT_wvCUD4l-185" target="z7WjeKVMrqfT_wvCUD4l-187">
          <mxGeometry relative="1" as="geometry" />
        </mxCell>
        <mxCell id="z7WjeKVMrqfT_wvCUD4l-185" value="&lt;font style=&quot;font-size: 20px;&quot;&gt;&lt;b&gt;เช็คเงิน&lt;/b&gt;&lt;/font&gt;" style="shape=process;whiteSpace=wrap;html=1;backgroundOutline=1;" vertex="1" parent="1">
          <mxGeometry x="2344.25" y="1770" width="148.5" height="70" as="geometry" />
        </mxCell>
        <mxCell id="z7WjeKVMrqfT_wvCUD4l-186" value="" style="edgeStyle=orthogonalEdgeStyle;rounded=0;orthogonalLoop=1;jettySize=auto;html=1;" edge="1" parent="1" source="z7WjeKVMrqfT_wvCUD4l-187" target="z7WjeKVMrqfT_wvCUD4l-183">
          <mxGeometry relative="1" as="geometry" />
        </mxCell>
        <mxCell id="z7WjeKVMrqfT_wvCUD4l-187" value="&lt;font style=&quot;font-size: 18px;&quot;&gt;start&lt;/font&gt;" style="ellipse;whiteSpace=wrap;html=1;" vertex="1" parent="1">
          <mxGeometry x="2373.5" y="1894" width="90" height="40" as="geometry" />
        </mxCell>
        <mxCell id="z7WjeKVMrqfT_wvCUD4l-188" value="yes" style="text;html=1;align=center;verticalAlign=middle;whiteSpace=wrap;rounded=0;" vertex="1" parent="1">
          <mxGeometry x="2438.5" y="1985" width="60" height="30" as="geometry" />
        </mxCell>
        <mxCell id="z7WjeKVMrqfT_wvCUD4l-189" value="ไม่" style="text;html=1;align=center;verticalAlign=middle;whiteSpace=wrap;rounded=0;" vertex="1" parent="1">
          <mxGeometry x="2288.5" y="2055" width="60" height="30" as="geometry" />
        </mxCell>
        <mxCell id="z7WjeKVMrqfT_wvCUD4l-190" value="ไม่" style="text;html=1;align=center;verticalAlign=middle;whiteSpace=wrap;rounded=0;" vertex="1" parent="1">
          <mxGeometry x="2288.5" y="2160" width="60" height="30" as="geometry" />
        </mxCell>
        <mxCell id="z7WjeKVMrqfT_wvCUD4l-191" value="ไม่" style="text;html=1;align=center;verticalAlign=middle;whiteSpace=wrap;rounded=0;" vertex="1" parent="1">
          <mxGeometry x="2288.5" y="2266" width="60" height="30" as="geometry" />
        </mxCell>
        <mxCell id="z7WjeKVMrqfT_wvCUD4l-192" value="ไม่" style="text;html=1;align=center;verticalAlign=middle;whiteSpace=wrap;rounded=0;" vertex="1" parent="1">
          <mxGeometry x="2288.5" y="2396" width="60" height="30" as="geometry" />
        </mxCell>
        <mxCell id="z7WjeKVMrqfT_wvCUD4l-193" value="ไม่" style="text;html=1;align=center;verticalAlign=middle;whiteSpace=wrap;rounded=0;" vertex="1" parent="1">
          <mxGeometry x="2488.5" y="2050" width="60" height="30" as="geometry" />
        </mxCell>
        <mxCell id="z7WjeKVMrqfT_wvCUD4l-194" value="ไม่" style="text;html=1;align=center;verticalAlign=middle;whiteSpace=wrap;rounded=0;" vertex="1" parent="1">
          <mxGeometry x="2478.5" y="2150" width="60" height="30" as="geometry" />
        </mxCell>
        <mxCell id="z7WjeKVMrqfT_wvCUD4l-195" value="ไม่" style="text;html=1;align=center;verticalAlign=middle;whiteSpace=wrap;rounded=0;" vertex="1" parent="1">
          <mxGeometry x="2488.5" y="2271" width="60" height="30" as="geometry" />
        </mxCell>
        <mxCell id="z7WjeKVMrqfT_wvCUD4l-196" value="ใช่" style="text;html=1;align=center;verticalAlign=middle;whiteSpace=wrap;rounded=0;" vertex="1" parent="1">
          <mxGeometry x="2563.5" y="1990" width="60" height="30" as="geometry" />
        </mxCell>
        <mxCell id="z7WjeKVMrqfT_wvCUD4l-197" value="ใช่" style="text;html=1;align=center;verticalAlign=middle;whiteSpace=wrap;rounded=0;" vertex="1" parent="1">
          <mxGeometry x="2569.5" y="2085" width="60" height="30" as="geometry" />
        </mxCell>
        <mxCell id="z7WjeKVMrqfT_wvCUD4l-198" value="ใช่" style="text;html=1;align=center;verticalAlign=middle;whiteSpace=wrap;rounded=0;" vertex="1" parent="1">
          <mxGeometry x="2569.5" y="2188.5" width="60" height="30" as="geometry" />
        </mxCell>
        <mxCell id="z7WjeKVMrqfT_wvCUD4l-199" style="edgeStyle=orthogonalEdgeStyle;rounded=0;orthogonalLoop=1;jettySize=auto;html=1;entryX=0.5;entryY=0;entryDx=0;entryDy=0;" edge="1" parent="1" source="z7WjeKVMrqfT_wvCUD4l-200">
          <mxGeometry relative="1" as="geometry">
            <mxPoint x="2433.5" y="2634" as="targetPoint" />
          </mxGeometry>
        </mxCell>
        <mxCell id="z7WjeKVMrqfT_wvCUD4l-200" value="" style="ellipse;whiteSpace=wrap;html=1;aspect=fixed;" vertex="1" parent="1">
          <mxGeometry x="2418.5" y="2520" width="30" height="30" as="geometry" />
        </mxCell>
        <mxCell id="z7WjeKVMrqfT_wvCUD4l-201" value="" style="edgeStyle=orthogonalEdgeStyle;rounded=0;orthogonalLoop=1;jettySize=auto;html=1;" edge="1" parent="1" source="z7WjeKVMrqfT_wvCUD4l-202" target="z7WjeKVMrqfT_wvCUD4l-206">
          <mxGeometry relative="1" as="geometry" />
        </mxCell>
        <mxCell id="z7WjeKVMrqfT_wvCUD4l-202" value="จำนวน&lt;div&gt;= a1&lt;/div&gt;" style="rounded=0;whiteSpace=wrap;html=1;" vertex="1" parent="1">
          <mxGeometry x="1965" y="2000" width="90" height="40" as="geometry" />
        </mxCell>
        <mxCell id="z7WjeKVMrqfT_wvCUD4l-203" value="" style="edgeStyle=orthogonalEdgeStyle;rounded=0;orthogonalLoop=1;jettySize=auto;html=1;" edge="1" parent="1" source="z7WjeKVMrqfT_wvCUD4l-204" target="z7WjeKVMrqfT_wvCUD4l-214">
          <mxGeometry relative="1" as="geometry" />
        </mxCell>
        <mxCell id="z7WjeKVMrqfT_wvCUD4l-204" value="จำนวน&lt;div&gt;= b1&lt;/div&gt;" style="rounded=0;whiteSpace=wrap;html=1;" vertex="1" parent="1">
          <mxGeometry x="1965" y="2105" width="90" height="40" as="geometry" />
        </mxCell>
        <mxCell id="z7WjeKVMrqfT_wvCUD4l-205" style="edgeStyle=orthogonalEdgeStyle;rounded=0;orthogonalLoop=1;jettySize=auto;html=1;entryX=0;entryY=0.5;entryDx=0;entryDy=0;" edge="1" parent="1" source="z7WjeKVMrqfT_wvCUD4l-206" target="z7WjeKVMrqfT_wvCUD4l-200">
          <mxGeometry relative="1" as="geometry">
            <Array as="points">
              <mxPoint x="1755" y="2020" />
              <mxPoint x="1755" y="2535" />
            </Array>
          </mxGeometry>
        </mxCell>
        <mxCell id="z7WjeKVMrqfT_wvCUD4l-206" value="&lt;div&gt;แบงค์ 20 + a1&lt;/div&gt;&lt;div&gt;= แบงค์ 20&lt;/div&gt;" style="rounded=0;whiteSpace=wrap;html=1;" vertex="1" parent="1">
          <mxGeometry x="1815" y="2000" width="90" height="40" as="geometry" />
        </mxCell>
        <mxCell id="z7WjeKVMrqfT_wvCUD4l-207" value="" style="edgeStyle=orthogonalEdgeStyle;rounded=0;orthogonalLoop=1;jettySize=auto;html=1;" edge="1" parent="1" source="z7WjeKVMrqfT_wvCUD4l-208" target="z7WjeKVMrqfT_wvCUD4l-216">
          <mxGeometry relative="1" as="geometry" />
        </mxCell>
        <mxCell id="z7WjeKVMrqfT_wvCUD4l-208" value="จำนวน&lt;div&gt;= c1&lt;/div&gt;" style="rounded=0;whiteSpace=wrap;html=1;" vertex="1" parent="1">
          <mxGeometry x="1965" y="2208.5" width="90" height="40" as="geometry" />
        </mxCell>
        <mxCell id="z7WjeKVMrqfT_wvCUD4l-209" value="" style="edgeStyle=orthogonalEdgeStyle;rounded=0;orthogonalLoop=1;jettySize=auto;html=1;" edge="1" parent="1" source="z7WjeKVMrqfT_wvCUD4l-210" target="z7WjeKVMrqfT_wvCUD4l-218">
          <mxGeometry relative="1" as="geometry" />
        </mxCell>
        <mxCell id="z7WjeKVMrqfT_wvCUD4l-210" value="จำนวน&lt;div&gt;= d1&lt;/div&gt;" style="rounded=0;whiteSpace=wrap;html=1;" vertex="1" parent="1">
          <mxGeometry x="1965" y="2316" width="90" height="40" as="geometry" />
        </mxCell>
        <mxCell id="z7WjeKVMrqfT_wvCUD4l-211" value="" style="edgeStyle=orthogonalEdgeStyle;rounded=0;orthogonalLoop=1;jettySize=auto;html=1;" edge="1" parent="1" source="z7WjeKVMrqfT_wvCUD4l-212" target="z7WjeKVMrqfT_wvCUD4l-220">
          <mxGeometry relative="1" as="geometry" />
        </mxCell>
        <mxCell id="z7WjeKVMrqfT_wvCUD4l-212" value="จำนวน&lt;div&gt;= e1&lt;/div&gt;" style="rounded=0;whiteSpace=wrap;html=1;" vertex="1" parent="1">
          <mxGeometry x="1965" y="2426" width="90" height="40" as="geometry" />
        </mxCell>
        <mxCell id="z7WjeKVMrqfT_wvCUD4l-213" style="edgeStyle=orthogonalEdgeStyle;rounded=0;orthogonalLoop=1;jettySize=auto;html=1;" edge="1" parent="1" source="z7WjeKVMrqfT_wvCUD4l-214">
          <mxGeometry relative="1" as="geometry">
            <mxPoint x="1755" y="2125" as="targetPoint" />
          </mxGeometry>
        </mxCell>
        <mxCell id="z7WjeKVMrqfT_wvCUD4l-214" value="&lt;div&gt;แบงค์ 50 + b1&lt;/div&gt;&lt;div&gt;= แบงค์ 50&lt;/div&gt;" style="rounded=0;whiteSpace=wrap;html=1;" vertex="1" parent="1">
          <mxGeometry x="1815" y="2105" width="90" height="40" as="geometry" />
        </mxCell>
        <mxCell id="z7WjeKVMrqfT_wvCUD4l-215" style="edgeStyle=orthogonalEdgeStyle;rounded=0;orthogonalLoop=1;jettySize=auto;html=1;" edge="1" parent="1" source="z7WjeKVMrqfT_wvCUD4l-216">
          <mxGeometry relative="1" as="geometry">
            <mxPoint x="1755" y="2228.5" as="targetPoint" />
          </mxGeometry>
        </mxCell>
        <mxCell id="z7WjeKVMrqfT_wvCUD4l-216" value="&lt;div&gt;แบงค์ 100 + c1&lt;/div&gt;&lt;div&gt;= แบงค์ 100&lt;/div&gt;" style="rounded=0;whiteSpace=wrap;html=1;" vertex="1" parent="1">
          <mxGeometry x="1815" y="2208.5" width="90" height="40" as="geometry" />
        </mxCell>
        <mxCell id="z7WjeKVMrqfT_wvCUD4l-217" style="edgeStyle=orthogonalEdgeStyle;rounded=0;orthogonalLoop=1;jettySize=auto;html=1;" edge="1" parent="1" source="z7WjeKVMrqfT_wvCUD4l-218">
          <mxGeometry relative="1" as="geometry">
            <mxPoint x="1755" y="2336" as="targetPoint" />
          </mxGeometry>
        </mxCell>
        <mxCell id="z7WjeKVMrqfT_wvCUD4l-218" value="&lt;div&gt;แบงค์ 500 + d1&lt;/div&gt;&lt;div&gt;= แบงค์ 500&lt;/div&gt;" style="rounded=0;whiteSpace=wrap;html=1;" vertex="1" parent="1">
          <mxGeometry x="1815" y="2316" width="90" height="40" as="geometry" />
        </mxCell>
        <mxCell id="z7WjeKVMrqfT_wvCUD4l-219" style="edgeStyle=orthogonalEdgeStyle;rounded=0;orthogonalLoop=1;jettySize=auto;html=1;" edge="1" parent="1" source="z7WjeKVMrqfT_wvCUD4l-220">
          <mxGeometry relative="1" as="geometry">
            <mxPoint x="1755" y="2446" as="targetPoint" />
          </mxGeometry>
        </mxCell>
        <mxCell id="z7WjeKVMrqfT_wvCUD4l-220" value="&lt;div&gt;แบงค์ 1000 + e1&lt;/div&gt;&lt;div&gt;= แบงค์ 1000&lt;/div&gt;" style="rounded=0;whiteSpace=wrap;html=1;" vertex="1" parent="1">
          <mxGeometry x="1815" y="2426" width="90" height="40" as="geometry" />
        </mxCell>
        <mxCell id="z7WjeKVMrqfT_wvCUD4l-221" value="" style="edgeStyle=orthogonalEdgeStyle;rounded=0;orthogonalLoop=1;jettySize=auto;html=1;" edge="1" parent="1" source="z7WjeKVMrqfT_wvCUD4l-222" target="z7WjeKVMrqfT_wvCUD4l-230">
          <mxGeometry relative="1" as="geometry" />
        </mxCell>
        <mxCell id="z7WjeKVMrqfT_wvCUD4l-222" value="จำนวน&lt;div&gt;= f1&lt;/div&gt;" style="rounded=0;whiteSpace=wrap;html=1;" vertex="1" parent="1">
          <mxGeometry x="2775" y="2000" width="90" height="40" as="geometry" />
        </mxCell>
        <mxCell id="z7WjeKVMrqfT_wvCUD4l-223" value="" style="edgeStyle=orthogonalEdgeStyle;rounded=0;orthogonalLoop=1;jettySize=auto;html=1;" edge="1" parent="1" source="z7WjeKVMrqfT_wvCUD4l-224" target="z7WjeKVMrqfT_wvCUD4l-232">
          <mxGeometry relative="1" as="geometry" />
        </mxCell>
        <mxCell id="z7WjeKVMrqfT_wvCUD4l-224" value="จำนวน&lt;div&gt;= g1&lt;/div&gt;" style="rounded=0;whiteSpace=wrap;html=1;" vertex="1" parent="1">
          <mxGeometry x="2775" y="2100" width="90" height="40" as="geometry" />
        </mxCell>
        <mxCell id="z7WjeKVMrqfT_wvCUD4l-225" value="" style="edgeStyle=orthogonalEdgeStyle;rounded=0;orthogonalLoop=1;jettySize=auto;html=1;" edge="1" parent="1" source="z7WjeKVMrqfT_wvCUD4l-226" target="z7WjeKVMrqfT_wvCUD4l-234">
          <mxGeometry relative="1" as="geometry" />
        </mxCell>
        <mxCell id="z7WjeKVMrqfT_wvCUD4l-226" value="จำนวน&lt;div&gt;= h1&lt;/div&gt;" style="rounded=0;whiteSpace=wrap;html=1;" vertex="1" parent="1">
          <mxGeometry x="2775" y="2200" width="90" height="40" as="geometry" />
        </mxCell>
        <mxCell id="z7WjeKVMrqfT_wvCUD4l-227" value="" style="edgeStyle=orthogonalEdgeStyle;rounded=0;orthogonalLoop=1;jettySize=auto;html=1;" edge="1" parent="1" source="z7WjeKVMrqfT_wvCUD4l-228" target="z7WjeKVMrqfT_wvCUD4l-236">
          <mxGeometry relative="1" as="geometry" />
        </mxCell>
        <mxCell id="z7WjeKVMrqfT_wvCUD4l-228" value="จำนวน&lt;div&gt;= i1&lt;/div&gt;" style="rounded=0;whiteSpace=wrap;html=1;" vertex="1" parent="1">
          <mxGeometry x="2775" y="2300" width="90" height="40" as="geometry" />
        </mxCell>
        <mxCell id="z7WjeKVMrqfT_wvCUD4l-229" style="edgeStyle=orthogonalEdgeStyle;rounded=0;orthogonalLoop=1;jettySize=auto;html=1;entryX=1;entryY=0.5;entryDx=0;entryDy=0;" edge="1" parent="1" source="z7WjeKVMrqfT_wvCUD4l-230" target="z7WjeKVMrqfT_wvCUD4l-200">
          <mxGeometry relative="1" as="geometry">
            <Array as="points">
              <mxPoint x="3065" y="2020" />
              <mxPoint x="3065" y="2535" />
            </Array>
          </mxGeometry>
        </mxCell>
        <mxCell id="z7WjeKVMrqfT_wvCUD4l-230" value="เหรียญ 1 + f1&lt;div&gt;= เหรียญ 1&lt;/div&gt;" style="rounded=0;whiteSpace=wrap;html=1;" vertex="1" parent="1">
          <mxGeometry x="2915" y="2000" width="90" height="40" as="geometry" />
        </mxCell>
        <mxCell id="z7WjeKVMrqfT_wvCUD4l-231" style="edgeStyle=orthogonalEdgeStyle;rounded=0;orthogonalLoop=1;jettySize=auto;html=1;" edge="1" parent="1" source="z7WjeKVMrqfT_wvCUD4l-232">
          <mxGeometry relative="1" as="geometry">
            <mxPoint x="3065" y="2120" as="targetPoint" />
          </mxGeometry>
        </mxCell>
        <mxCell id="z7WjeKVMrqfT_wvCUD4l-232" value="เหรียญ 2 + g1&lt;div&gt;= เหรียญ 2&lt;/div&gt;" style="rounded=0;whiteSpace=wrap;html=1;" vertex="1" parent="1">
          <mxGeometry x="2915" y="2100" width="90" height="40" as="geometry" />
        </mxCell>
        <mxCell id="z7WjeKVMrqfT_wvCUD4l-233" style="edgeStyle=orthogonalEdgeStyle;rounded=0;orthogonalLoop=1;jettySize=auto;html=1;" edge="1" parent="1" source="z7WjeKVMrqfT_wvCUD4l-234">
          <mxGeometry relative="1" as="geometry">
            <mxPoint x="3065" y="2220" as="targetPoint" />
          </mxGeometry>
        </mxCell>
        <mxCell id="z7WjeKVMrqfT_wvCUD4l-234" value="เหรียญ 5 + h1&lt;div&gt;= เหรียญ 5&lt;/div&gt;" style="rounded=0;whiteSpace=wrap;html=1;" vertex="1" parent="1">
          <mxGeometry x="2915" y="2200" width="90" height="40" as="geometry" />
        </mxCell>
        <mxCell id="z7WjeKVMrqfT_wvCUD4l-235" style="edgeStyle=orthogonalEdgeStyle;rounded=0;orthogonalLoop=1;jettySize=auto;html=1;" edge="1" parent="1" source="z7WjeKVMrqfT_wvCUD4l-236">
          <mxGeometry relative="1" as="geometry">
            <mxPoint x="3065" y="2321" as="targetPoint" />
          </mxGeometry>
        </mxCell>
        <mxCell id="z7WjeKVMrqfT_wvCUD4l-236" value="เหรียญ 10 + i1&lt;div&gt;= เหรียญ 10&lt;/div&gt;" style="rounded=0;whiteSpace=wrap;html=1;" vertex="1" parent="1">
          <mxGeometry x="2915" y="2301" width="90" height="40" as="geometry" />
        </mxCell>
        <mxCell id="z7WjeKVMrqfT_wvCUD4l-237" style="edgeStyle=orthogonalEdgeStyle;rounded=0;orthogonalLoop=1;jettySize=auto;html=1;entryX=1;entryY=0.5;entryDx=0;entryDy=0;" edge="1" parent="1">
          <mxGeometry relative="1" as="geometry">
            <Array as="points">
              <mxPoint x="2858" y="2700" />
              <mxPoint x="2858" y="3215" />
            </Array>
            <mxPoint x="2241.5" y="3215" as="targetPoint" />
          </mxGeometry>
        </mxCell>
        <mxCell id="z7WjeKVMrqfT_wvCUD4l-238" value="" style="edgeStyle=orthogonalEdgeStyle;rounded=0;orthogonalLoop=1;jettySize=auto;html=1;" edge="1" parent="1" source="z7WjeKVMrqfT_wvCUD4l-239" target="z7WjeKVMrqfT_wvCUD4l-250">
          <mxGeometry relative="1" as="geometry" />
        </mxCell>
        <mxCell id="z7WjeKVMrqfT_wvCUD4l-239" value="&lt;font style=&quot;font-size: 20px;&quot; data-font-src=&quot;https://fonts.googleapis.com/css?family=Sarabun&quot; face=&quot;Sarabun&quot;&gt;เริ่มต้น&lt;/font&gt;" style="ellipse;whiteSpace=wrap;html=1;" vertex="1" parent="1">
          <mxGeometry x="705" y="1440" width="130" height="44" as="geometry" />
        </mxCell>
        <mxCell id="z7WjeKVMrqfT_wvCUD4l-240" value="" style="ellipse;whiteSpace=wrap;html=1;aspect=fixed;" vertex="1" parent="1">
          <mxGeometry x="770.25" y="1800" width="20" height="20" as="geometry" />
        </mxCell>
        <mxCell id="z7WjeKVMrqfT_wvCUD4l-241" style="edgeStyle=orthogonalEdgeStyle;rounded=0;orthogonalLoop=1;jettySize=auto;html=1;entryX=0.5;entryY=0;entryDx=0;entryDy=0;" edge="1" parent="1" source="z7WjeKVMrqfT_wvCUD4l-242" target="z7WjeKVMrqfT_wvCUD4l-252">
          <mxGeometry relative="1" as="geometry" />
        </mxCell>
        <mxCell id="z7WjeKVMrqfT_wvCUD4l-242" value="" style="shape=parallelogram;perimeter=parallelogramPerimeter;whiteSpace=wrap;html=1;fixedSize=1;align=left;" vertex="1" parent="1">
          <mxGeometry x="581.25" y="1603" width="377.5" height="225" as="geometry" />
        </mxCell>
        <mxCell id="z7WjeKVMrqfT_wvCUD4l-243" value="&lt;h1 style=&quot;margin-top: 0px;&quot;&gt;&lt;font style=&quot;font-size: 20px;&quot;&gt;&amp;nbsp; สินค้า&lt;/font&gt;&lt;/h1&gt;&lt;div&gt;&lt;font style=&quot;font-size: 18px;&quot;&gt;&amp;nbsp; ประเภทน้ำ&lt;/font&gt;&lt;/div&gt;&lt;div&gt;&lt;font style=&quot;font-size: 20px;&quot;&gt;&lt;br&gt;&lt;/font&gt;&lt;/div&gt;&lt;div&gt;&lt;font style=&quot;font-size: 14px;&quot;&gt;โค้กกระป๋อง 10 บาท&lt;/font&gt;&lt;/div&gt;&lt;div&gt;&lt;font style=&quot;font-size: 14px;&quot;&gt;น้ำเขียวกระป๋อง 12 บาท&lt;/font&gt;&lt;/div&gt;&lt;div&gt;&lt;font style=&quot;font-size: 14px;&quot;&gt;อเมริกาโน่ 30 บาท&lt;/font&gt;&lt;/div&gt;&lt;div&gt;&lt;font style=&quot;font-size: 14px;&quot;&gt;ลาเต้หวานเจี๊ยบ 35 บาท&lt;/font&gt;&lt;/div&gt;" style="text;html=1;whiteSpace=wrap;overflow=hidden;rounded=0;" vertex="1" parent="1">
          <mxGeometry x="598.25" y="1619" width="159.75" height="179" as="geometry" />
        </mxCell>
        <mxCell id="z7WjeKVMrqfT_wvCUD4l-244" value="&lt;h1 style=&quot;margin-top: 0px;&quot;&gt;&lt;span style=&quot;font-size: 18px; background-color: transparent; color: light-dark(rgb(0, 0, 0), rgb(255, 255, 255)); font-weight: normal;&quot;&gt;ประเภทขนม&lt;/span&gt;&lt;/h1&gt;&lt;div&gt;&lt;span style=&quot;font-size: 14px;&quot;&gt;เมล็ดทานตะวัน 13 บาท&lt;/span&gt;&lt;/div&gt;&lt;div&gt;&lt;span style=&quot;font-size: 14px;&quot;&gt;ถั่วแปบ 20 บาท&lt;/span&gt;&lt;/div&gt;&lt;div&gt;&lt;span style=&quot;font-size: 14px;&quot;&gt;จิ้นส้มหมก 15 บาท&lt;/span&gt;&lt;/div&gt;" style="text;html=1;whiteSpace=wrap;overflow=hidden;rounded=0;" vertex="1" parent="1">
          <mxGeometry x="810.25" y="1654.5" width="155" height="195" as="geometry" />
        </mxCell>
        <mxCell id="z7WjeKVMrqfT_wvCUD4l-245" value="" style="edgeStyle=orthogonalEdgeStyle;rounded=0;orthogonalLoop=1;jettySize=auto;html=1;" edge="1" parent="1" source="z7WjeKVMrqfT_wvCUD4l-246" target="z7WjeKVMrqfT_wvCUD4l-521">
          <mxGeometry relative="1" as="geometry" />
        </mxCell>
        <mxCell id="z7WjeKVMrqfT_wvCUD4l-246" value="&lt;font size=&quot;1&quot;&gt;&lt;b&gt;เช็คเงิน&lt;/b&gt;&lt;/font&gt;" style="shape=process;whiteSpace=wrap;html=1;backgroundOutline=1;" vertex="1" parent="1">
          <mxGeometry x="720" y="2756" width="100" height="40" as="geometry" />
        </mxCell>
        <mxCell id="z7WjeKVMrqfT_wvCUD4l-247" value="" style="edgeStyle=orthogonalEdgeStyle;rounded=0;orthogonalLoop=1;jettySize=auto;html=1;" edge="1" parent="1" source="z7WjeKVMrqfT_wvCUD4l-248" target="z7WjeKVMrqfT_wvCUD4l-264">
          <mxGeometry relative="1" as="geometry" />
        </mxCell>
        <mxCell id="z7WjeKVMrqfT_wvCUD4l-248" value="&lt;font size=&quot;1&quot;&gt;&lt;b&gt;สินค้า&lt;/b&gt;&lt;/font&gt;" style="shape=process;whiteSpace=wrap;html=1;backgroundOutline=1;" vertex="1" parent="1">
          <mxGeometry x="720" y="1949" width="100" height="40" as="geometry" />
        </mxCell>
        <mxCell id="z7WjeKVMrqfT_wvCUD4l-249" style="edgeStyle=orthogonalEdgeStyle;rounded=0;orthogonalLoop=1;jettySize=auto;html=1;" edge="1" parent="1" source="z7WjeKVMrqfT_wvCUD4l-250">
          <mxGeometry relative="1" as="geometry">
            <mxPoint x="770" y="1600" as="targetPoint" />
          </mxGeometry>
        </mxCell>
        <mxCell id="z7WjeKVMrqfT_wvCUD4l-250" value="" style="ellipse;whiteSpace=wrap;html=1;aspect=fixed;" vertex="1" parent="1">
          <mxGeometry x="758" y="1540" width="24" height="24" as="geometry" />
        </mxCell>
        <mxCell id="z7WjeKVMrqfT_wvCUD4l-251" value="" style="edgeStyle=orthogonalEdgeStyle;rounded=0;orthogonalLoop=1;jettySize=auto;html=1;" edge="1" parent="1" source="z7WjeKVMrqfT_wvCUD4l-252" target="z7WjeKVMrqfT_wvCUD4l-248">
          <mxGeometry relative="1" as="geometry" />
        </mxCell>
        <mxCell id="z7WjeKVMrqfT_wvCUD4l-252" value="" style="ellipse;whiteSpace=wrap;html=1;aspect=fixed;" vertex="1" parent="1">
          <mxGeometry x="758" y="1884" width="24" height="24" as="geometry" />
        </mxCell>
        <mxCell id="z7WjeKVMrqfT_wvCUD4l-253" value="&lt;b&gt;&lt;font style=&quot;font-size: 14px;&quot;&gt;|&lt;/font&gt;&lt;/b&gt;&lt;div&gt;&lt;b&gt;&lt;font style=&quot;font-size: 14px;&quot;&gt;|&lt;/font&gt;&lt;/b&gt;&lt;/div&gt;&lt;div&gt;&lt;b&gt;&lt;font style=&quot;font-size: 14px;&quot;&gt;|&lt;/font&gt;&lt;/b&gt;&lt;/div&gt;&lt;div&gt;&lt;b&gt;&lt;font style=&quot;font-size: 14px;&quot;&gt;|&lt;/font&gt;&lt;/b&gt;&lt;/div&gt;&lt;div&gt;&lt;b&gt;&lt;font style=&quot;font-size: 14px;&quot;&gt;|&lt;/font&gt;&lt;/b&gt;&lt;/div&gt;&lt;div&gt;&lt;b&gt;&lt;font style=&quot;font-size: 14px;&quot;&gt;|&lt;/font&gt;&lt;/b&gt;&lt;/div&gt;" style="text;html=1;align=center;verticalAlign=middle;whiteSpace=wrap;rounded=0;" vertex="1" parent="1">
          <mxGeometry x="750.25" y="1709" width="60" height="30" as="geometry" />
        </mxCell>
        <mxCell id="z7WjeKVMrqfT_wvCUD4l-254" value="" style="edgeStyle=orthogonalEdgeStyle;rounded=0;orthogonalLoop=1;jettySize=auto;html=1;entryX=0.5;entryY=0;entryDx=0;entryDy=0;" edge="1" parent="1" source="z7WjeKVMrqfT_wvCUD4l-255" target="z7WjeKVMrqfT_wvCUD4l-276">
          <mxGeometry relative="1" as="geometry">
            <mxPoint x="770" y="2204" as="targetPoint" />
          </mxGeometry>
        </mxCell>
        <mxCell id="z7WjeKVMrqfT_wvCUD4l-255" value="จำนวนและราคา:&lt;div&gt;len/sum&lt;/div&gt;" style="shape=parallelogram;perimeter=parallelogramPerimeter;whiteSpace=wrap;html=1;fixedSize=1;" vertex="1" parent="1">
          <mxGeometry x="710" y="2094" width="120" height="60" as="geometry" />
        </mxCell>
        <mxCell id="z7WjeKVMrqfT_wvCUD4l-256" value="" style="edgeStyle=orthogonalEdgeStyle;rounded=0;orthogonalLoop=1;jettySize=auto;html=1;" edge="1" parent="1" source="z7WjeKVMrqfT_wvCUD4l-257" target="z7WjeKVMrqfT_wvCUD4l-272">
          <mxGeometry relative="1" as="geometry" />
        </mxCell>
        <mxCell id="z7WjeKVMrqfT_wvCUD4l-257" value="m = รับเงิน" style="shape=parallelogram;perimeter=parallelogramPerimeter;whiteSpace=wrap;html=1;fixedSize=1;" vertex="1" parent="1">
          <mxGeometry x="710" y="2324" width="120" height="60" as="geometry" />
        </mxCell>
        <mxCell id="z7WjeKVMrqfT_wvCUD4l-258" style="edgeStyle=orthogonalEdgeStyle;rounded=0;orthogonalLoop=1;jettySize=auto;html=1;entryX=0.5;entryY=0;entryDx=0;entryDy=0;" edge="1" parent="1" source="z7WjeKVMrqfT_wvCUD4l-262" target="z7WjeKVMrqfT_wvCUD4l-270">
          <mxGeometry relative="1" as="geometry" />
        </mxCell>
        <mxCell id="z7WjeKVMrqfT_wvCUD4l-259" value="ใช่" style="edgeLabel;html=1;align=center;verticalAlign=middle;resizable=0;points=[];" vertex="1" connectable="0" parent="z7WjeKVMrqfT_wvCUD4l-258">
          <mxGeometry x="-0.3636" relative="1" as="geometry">
            <mxPoint as="offset" />
          </mxGeometry>
        </mxCell>
        <mxCell id="z7WjeKVMrqfT_wvCUD4l-260" style="edgeStyle=orthogonalEdgeStyle;rounded=0;orthogonalLoop=1;jettySize=auto;html=1;entryX=0.5;entryY=1;entryDx=0;entryDy=0;" edge="1" parent="1" source="z7WjeKVMrqfT_wvCUD4l-262" target="z7WjeKVMrqfT_wvCUD4l-266">
          <mxGeometry relative="1" as="geometry" />
        </mxCell>
        <mxCell id="z7WjeKVMrqfT_wvCUD4l-261" value="ไม่" style="edgeLabel;html=1;align=center;verticalAlign=middle;resizable=0;points=[];" vertex="1" connectable="0" parent="z7WjeKVMrqfT_wvCUD4l-260">
          <mxGeometry x="-0.7424" y="1" relative="1" as="geometry">
            <mxPoint as="offset" />
          </mxGeometry>
        </mxCell>
        <mxCell id="z7WjeKVMrqfT_wvCUD4l-262" value="m &amp;gt;= sum&lt;div&gt;?&lt;/div&gt;" style="rhombus;whiteSpace=wrap;html=1;" vertex="1" parent="1">
          <mxGeometry x="730" y="2494" width="80" height="80" as="geometry" />
        </mxCell>
        <mxCell id="z7WjeKVMrqfT_wvCUD4l-263" style="edgeStyle=orthogonalEdgeStyle;rounded=0;orthogonalLoop=1;jettySize=auto;html=1;entryX=0.5;entryY=0;entryDx=0;entryDy=0;" edge="1" parent="1" source="z7WjeKVMrqfT_wvCUD4l-264" target="z7WjeKVMrqfT_wvCUD4l-255">
          <mxGeometry relative="1" as="geometry" />
        </mxCell>
        <mxCell id="z7WjeKVMrqfT_wvCUD4l-264" value="" style="ellipse;whiteSpace=wrap;html=1;aspect=fixed;" vertex="1" parent="1">
          <mxGeometry x="755" y="2024" width="30" height="30" as="geometry" />
        </mxCell>
        <mxCell id="z7WjeKVMrqfT_wvCUD4l-265" style="edgeStyle=orthogonalEdgeStyle;rounded=0;orthogonalLoop=1;jettySize=auto;html=1;entryX=1;entryY=0.5;entryDx=0;entryDy=0;" edge="1" parent="1" source="z7WjeKVMrqfT_wvCUD4l-266" target="z7WjeKVMrqfT_wvCUD4l-264">
          <mxGeometry relative="1" as="geometry">
            <Array as="points">
              <mxPoint x="960" y="2039" />
            </Array>
          </mxGeometry>
        </mxCell>
        <mxCell id="z7WjeKVMrqfT_wvCUD4l-266" value="&lt;font style=&quot;font-size: 15px;&quot;&gt;เงินไม่พอ&lt;/font&gt;" style="shape=parallelogram;perimeter=parallelogramPerimeter;whiteSpace=wrap;html=1;fixedSize=1;" vertex="1" parent="1">
          <mxGeometry x="900" y="2144" width="120" height="60" as="geometry" />
        </mxCell>
        <mxCell id="z7WjeKVMrqfT_wvCUD4l-267" value="" style="edgeStyle=orthogonalEdgeStyle;rounded=0;orthogonalLoop=1;jettySize=auto;html=1;" edge="1" parent="1" source="z7WjeKVMrqfT_wvCUD4l-270" target="z7WjeKVMrqfT_wvCUD4l-246">
          <mxGeometry relative="1" as="geometry" />
        </mxCell>
        <mxCell id="z7WjeKVMrqfT_wvCUD4l-268" value="" style="edgeStyle=orthogonalEdgeStyle;rounded=0;orthogonalLoop=1;jettySize=auto;html=1;" edge="1" parent="1" source="z7WjeKVMrqfT_wvCUD4l-270" target="z7WjeKVMrqfT_wvCUD4l-523">
          <mxGeometry relative="1" as="geometry" />
        </mxCell>
        <mxCell id="z7WjeKVMrqfT_wvCUD4l-269" value="ไม่" style="edgeLabel;html=1;align=center;verticalAlign=middle;resizable=0;points=[];" vertex="1" connectable="0" parent="z7WjeKVMrqfT_wvCUD4l-268">
          <mxGeometry x="-0.0609" y="1" relative="1" as="geometry">
            <mxPoint as="offset" />
          </mxGeometry>
        </mxCell>
        <mxCell id="z7WjeKVMrqfT_wvCUD4l-270" value="m = sum&lt;div&gt;?&lt;/div&gt;" style="rhombus;whiteSpace=wrap;html=1;" vertex="1" parent="1">
          <mxGeometry x="730" y="2629" width="80" height="80" as="geometry" />
        </mxCell>
        <mxCell id="z7WjeKVMrqfT_wvCUD4l-271" style="edgeStyle=orthogonalEdgeStyle;rounded=0;orthogonalLoop=1;jettySize=auto;html=1;entryX=0.5;entryY=0;entryDx=0;entryDy=0;" edge="1" parent="1" source="z7WjeKVMrqfT_wvCUD4l-272" target="z7WjeKVMrqfT_wvCUD4l-262">
          <mxGeometry relative="1" as="geometry" />
        </mxCell>
        <mxCell id="z7WjeKVMrqfT_wvCUD4l-272" value="" style="ellipse;whiteSpace=wrap;html=1;aspect=fixed;" vertex="1" parent="1">
          <mxGeometry x="755" y="2424" width="30" height="30" as="geometry" />
        </mxCell>
        <mxCell id="z7WjeKVMrqfT_wvCUD4l-273" value="" style="edgeStyle=orthogonalEdgeStyle;rounded=0;orthogonalLoop=1;jettySize=auto;html=1;" edge="1" parent="1" source="z7WjeKVMrqfT_wvCUD4l-276" target="z7WjeKVMrqfT_wvCUD4l-257">
          <mxGeometry relative="1" as="geometry" />
        </mxCell>
        <mxCell id="z7WjeKVMrqfT_wvCUD4l-274" style="edgeStyle=orthogonalEdgeStyle;rounded=0;orthogonalLoop=1;jettySize=auto;html=1;entryX=0.5;entryY=1;entryDx=0;entryDy=0;" edge="1" parent="1" source="z7WjeKVMrqfT_wvCUD4l-276" target="z7WjeKVMrqfT_wvCUD4l-279">
          <mxGeometry relative="1" as="geometry" />
        </mxCell>
        <mxCell id="z7WjeKVMrqfT_wvCUD4l-275" value="ใช่" style="edgeLabel;html=1;align=center;verticalAlign=middle;resizable=0;points=[];" vertex="1" connectable="0" parent="z7WjeKVMrqfT_wvCUD4l-274">
          <mxGeometry x="-0.5376" relative="1" as="geometry">
            <mxPoint as="offset" />
          </mxGeometry>
        </mxCell>
        <mxCell id="z7WjeKVMrqfT_wvCUD4l-276" value="ยกเลิก" style="rhombus;whiteSpace=wrap;html=1;" vertex="1" parent="1">
          <mxGeometry x="730" y="2204" width="80" height="80" as="geometry" />
        </mxCell>
        <mxCell id="z7WjeKVMrqfT_wvCUD4l-277" value="ไม่" style="text;html=1;align=center;verticalAlign=middle;whiteSpace=wrap;rounded=0;" vertex="1" parent="1">
          <mxGeometry x="760" y="2274" width="60" height="30" as="geometry" />
        </mxCell>
        <mxCell id="z7WjeKVMrqfT_wvCUD4l-278" style="edgeStyle=orthogonalEdgeStyle;rounded=0;orthogonalLoop=1;jettySize=auto;html=1;entryX=0;entryY=0.5;entryDx=0;entryDy=0;" edge="1" parent="1" source="z7WjeKVMrqfT_wvCUD4l-279" target="z7WjeKVMrqfT_wvCUD4l-250">
          <mxGeometry relative="1" as="geometry">
            <Array as="points">
              <mxPoint x="450" y="1552" />
            </Array>
          </mxGeometry>
        </mxCell>
        <mxCell id="z7WjeKVMrqfT_wvCUD4l-279" value="clear" style="rounded=0;whiteSpace=wrap;html=1;" vertex="1" parent="1">
          <mxGeometry x="410" y="1914" width="80" height="42" as="geometry" />
        </mxCell>
        <mxCell id="z7WjeKVMrqfT_wvCUD4l-280" value="" style="edgeStyle=orthogonalEdgeStyle;rounded=0;orthogonalLoop=1;jettySize=auto;html=1;" edge="1" parent="1" source="z7WjeKVMrqfT_wvCUD4l-281" target="z7WjeKVMrqfT_wvCUD4l-282">
          <mxGeometry relative="1" as="geometry" />
        </mxCell>
        <mxCell id="z7WjeKVMrqfT_wvCUD4l-281" value="รับของ" style="shape=parallelogram;perimeter=parallelogramPerimeter;whiteSpace=wrap;html=1;fixedSize=1;" vertex="1" parent="1">
          <mxGeometry x="710" y="2980" width="120" height="60" as="geometry" />
        </mxCell>
        <mxCell id="z7WjeKVMrqfT_wvCUD4l-282" value="&lt;font style=&quot;font-size: 20px;&quot; data-font-src=&quot;https://fonts.googleapis.com/css?family=Sarabun&quot; face=&quot;Sarabun&quot;&gt;จบ&lt;/font&gt;" style="ellipse;whiteSpace=wrap;html=1;" vertex="1" parent="1">
          <mxGeometry x="701.5" y="3140" width="137" height="45" as="geometry" />
        </mxCell>
        <mxCell id="z7WjeKVMrqfT_wvCUD4l-283" value="" style="edgeStyle=orthogonalEdgeStyle;rounded=0;orthogonalLoop=1;jettySize=auto;html=1;" edge="1" parent="1" source="z7WjeKVMrqfT_wvCUD4l-284" target="z7WjeKVMrqfT_wvCUD4l-285">
          <mxGeometry relative="1" as="geometry" />
        </mxCell>
        <mxCell id="z7WjeKVMrqfT_wvCUD4l-284" value="แสดงยอดเงิน" style="shape=parallelogram;perimeter=parallelogramPerimeter;whiteSpace=wrap;html=1;fixedSize=1;" vertex="1" parent="1">
          <mxGeometry x="2373.5" y="2640" width="120" height="60" as="geometry" />
        </mxCell>
        <mxCell id="z7WjeKVMrqfT_wvCUD4l-285" value="&lt;font style=&quot;font-size: 18px;&quot;&gt;stop&lt;/font&gt;" style="ellipse;whiteSpace=wrap;html=1;" vertex="1" parent="1">
          <mxGeometry x="2373.5" y="2768" width="120" height="56" as="geometry" />
        </mxCell>
        <mxCell id="z7WjeKVMrqfT_wvCUD4l-286" value="" style="edgeStyle=orthogonalEdgeStyle;rounded=0;orthogonalLoop=1;jettySize=auto;html=1;" edge="1" parent="1" source="z7WjeKVMrqfT_wvCUD4l-287" target="z7WjeKVMrqfT_wvCUD4l-306">
          <mxGeometry relative="1" as="geometry" />
        </mxCell>
        <mxCell id="z7WjeKVMrqfT_wvCUD4l-287" value="&lt;font style=&quot;font-size: 18px;&quot;&gt;start&lt;/font&gt;" style="ellipse;whiteSpace=wrap;html=1;" vertex="1" parent="1">
          <mxGeometry x="2375.5" y="3220" width="160" height="70" as="geometry" />
        </mxCell>
        <mxCell id="z7WjeKVMrqfT_wvCUD4l-288" value="" style="edgeStyle=orthogonalEdgeStyle;rounded=0;orthogonalLoop=1;jettySize=auto;html=1;" edge="1" parent="1" source="z7WjeKVMrqfT_wvCUD4l-289">
          <mxGeometry relative="1" as="geometry">
            <mxPoint x="2456.2352941176473" y="3690.018089272621" as="targetPoint" />
          </mxGeometry>
        </mxCell>
        <mxCell id="z7WjeKVMrqfT_wvCUD4l-289" value="คำนวนเงินที่ต้องทอน&lt;div&gt;เงินที่ลูกค้าจ่าย - ยอดนวมสินค้า = เงินทอน (t)&lt;/div&gt;" style="whiteSpace=wrap;html=1;" vertex="1" parent="1">
          <mxGeometry x="2336.38" y="3510" width="240.25" height="90" as="geometry" />
        </mxCell>
        <mxCell id="z7WjeKVMrqfT_wvCUD4l-290" value="" style="edgeStyle=orthogonalEdgeStyle;rounded=0;orthogonalLoop=1;jettySize=auto;html=1;" edge="1" parent="1" source="z7WjeKVMrqfT_wvCUD4l-293" target="z7WjeKVMrqfT_wvCUD4l-308">
          <mxGeometry relative="1" as="geometry" />
        </mxCell>
        <mxCell id="z7WjeKVMrqfT_wvCUD4l-291" value="yes" style="edgeLabel;html=1;align=center;verticalAlign=middle;resizable=0;points=[];" vertex="1" connectable="0" parent="z7WjeKVMrqfT_wvCUD4l-290">
          <mxGeometry x="-0.0022" y="-4" relative="1" as="geometry">
            <mxPoint x="1" as="offset" />
          </mxGeometry>
        </mxCell>
        <mxCell id="z7WjeKVMrqfT_wvCUD4l-292" value="" style="edgeStyle=orthogonalEdgeStyle;rounded=0;orthogonalLoop=1;jettySize=auto;html=1;" edge="1" parent="1" source="z7WjeKVMrqfT_wvCUD4l-293" target="z7WjeKVMrqfT_wvCUD4l-311">
          <mxGeometry relative="1" as="geometry" />
        </mxCell>
        <mxCell id="z7WjeKVMrqfT_wvCUD4l-293" value="t &amp;gt;= 1000?" style="rhombus;whiteSpace=wrap;html=1;rounded=0;" vertex="1" parent="1">
          <mxGeometry x="2389.25" y="3690" width="134.25" height="115" as="geometry" />
        </mxCell>
        <mxCell id="z7WjeKVMrqfT_wvCUD4l-294" value="" style="edgeStyle=orthogonalEdgeStyle;rounded=0;orthogonalLoop=1;jettySize=auto;html=1;" edge="1" parent="1" source="z7WjeKVMrqfT_wvCUD4l-297" target="z7WjeKVMrqfT_wvCUD4l-299">
          <mxGeometry relative="1" as="geometry" />
        </mxCell>
        <mxCell id="z7WjeKVMrqfT_wvCUD4l-295" value="yes" style="edgeLabel;html=1;align=center;verticalAlign=middle;resizable=0;points=[];" vertex="1" connectable="0" parent="z7WjeKVMrqfT_wvCUD4l-294">
          <mxGeometry x="0.0474" relative="1" as="geometry">
            <mxPoint x="9" as="offset" />
          </mxGeometry>
        </mxCell>
        <mxCell id="z7WjeKVMrqfT_wvCUD4l-296" value="" style="edgeStyle=orthogonalEdgeStyle;rounded=0;orthogonalLoop=1;jettySize=auto;html=1;" edge="1" parent="1" source="z7WjeKVMrqfT_wvCUD4l-297" target="z7WjeKVMrqfT_wvCUD4l-448">
          <mxGeometry relative="1" as="geometry" />
        </mxCell>
        <mxCell id="z7WjeKVMrqfT_wvCUD4l-297" value="1000 &amp;gt;= b10 ?" style="rhombus;whiteSpace=wrap;html=1;" vertex="1" parent="1">
          <mxGeometry x="1905.75" y="3698.75" width="92" height="97.5" as="geometry" />
        </mxCell>
        <mxCell id="z7WjeKVMrqfT_wvCUD4l-298" value="" style="edgeStyle=orthogonalEdgeStyle;rounded=0;orthogonalLoop=1;jettySize=auto;html=1;" edge="1" parent="1" source="z7WjeKVMrqfT_wvCUD4l-299" target="z7WjeKVMrqfT_wvCUD4l-301">
          <mxGeometry relative="1" as="geometry" />
        </mxCell>
        <mxCell id="z7WjeKVMrqfT_wvCUD4l-299" value="จ่ายแบงค์ 1000&lt;div&gt;(b10 ) ใบ&lt;/div&gt;" style="shape=parallelogram;perimeter=parallelogramPerimeter;whiteSpace=wrap;html=1;fixedSize=1;" vertex="1" parent="1">
          <mxGeometry x="1719.75" y="3717.5" width="120" height="60" as="geometry" />
        </mxCell>
        <mxCell id="z7WjeKVMrqfT_wvCUD4l-300" value="" style="edgeStyle=orthogonalEdgeStyle;rounded=0;orthogonalLoop=1;jettySize=auto;html=1;" edge="1" parent="1" source="z7WjeKVMrqfT_wvCUD4l-301" target="z7WjeKVMrqfT_wvCUD4l-303">
          <mxGeometry relative="1" as="geometry" />
        </mxCell>
        <mxCell id="z7WjeKVMrqfT_wvCUD4l-301" value="แบงค์ 1000 - b10&lt;div&gt;= แบงค์1000&lt;/div&gt;" style="whiteSpace=wrap;html=1;" vertex="1" parent="1">
          <mxGeometry x="1519.75" y="3717.5" width="120" height="60" as="geometry" />
        </mxCell>
        <mxCell id="z7WjeKVMrqfT_wvCUD4l-302" value="" style="edgeStyle=orthogonalEdgeStyle;rounded=0;orthogonalLoop=1;jettySize=auto;html=1;" edge="1" parent="1" source="z7WjeKVMrqfT_wvCUD4l-303" target="z7WjeKVMrqfT_wvCUD4l-304">
          <mxGeometry relative="1" as="geometry" />
        </mxCell>
        <mxCell id="z7WjeKVMrqfT_wvCUD4l-303" value="t - 1000(b10)" style="whiteSpace=wrap;html=1;" vertex="1" parent="1">
          <mxGeometry x="1319.75" y="3717.5" width="120" height="60" as="geometry" />
        </mxCell>
        <mxCell id="z7WjeKVMrqfT_wvCUD4l-304" value="t == 0 ?" style="rhombus;whiteSpace=wrap;html=1;" vertex="1" parent="1">
          <mxGeometry x="1139.75" y="3707.5" width="80" height="80" as="geometry" />
        </mxCell>
        <mxCell id="z7WjeKVMrqfT_wvCUD4l-305" style="edgeStyle=orthogonalEdgeStyle;rounded=0;orthogonalLoop=1;jettySize=auto;html=1;entryX=0.5;entryY=0;entryDx=0;entryDy=0;" edge="1" parent="1" source="z7WjeKVMrqfT_wvCUD4l-306" target="z7WjeKVMrqfT_wvCUD4l-289">
          <mxGeometry relative="1" as="geometry" />
        </mxCell>
        <mxCell id="z7WjeKVMrqfT_wvCUD4l-306" value="" style="ellipse;whiteSpace=wrap;html=1;aspect=fixed;" vertex="1" parent="1">
          <mxGeometry x="2440.51" y="3366" width="30" height="30" as="geometry" />
        </mxCell>
        <mxCell id="z7WjeKVMrqfT_wvCUD4l-307" value="" style="edgeStyle=orthogonalEdgeStyle;rounded=0;orthogonalLoop=1;jettySize=auto;html=1;" edge="1" parent="1" source="z7WjeKVMrqfT_wvCUD4l-308" target="z7WjeKVMrqfT_wvCUD4l-297">
          <mxGeometry relative="1" as="geometry" />
        </mxCell>
        <mxCell id="z7WjeKVMrqfT_wvCUD4l-308" value="จำนวนชิ้นที่สามารถทอน&lt;div&gt;b10 = เงินที่ต้องทอน // 1000&amp;nbsp;&lt;/div&gt;" style="rounded=0;whiteSpace=wrap;html=1;" vertex="1" parent="1">
          <mxGeometry x="2079" y="3712.5" width="228.5" height="70" as="geometry" />
        </mxCell>
        <mxCell id="z7WjeKVMrqfT_wvCUD4l-309" value="" style="edgeStyle=orthogonalEdgeStyle;rounded=0;orthogonalLoop=1;jettySize=auto;html=1;" edge="1" parent="1" source="z7WjeKVMrqfT_wvCUD4l-311" target="z7WjeKVMrqfT_wvCUD4l-313">
          <mxGeometry relative="1" as="geometry" />
        </mxCell>
        <mxCell id="z7WjeKVMrqfT_wvCUD4l-310" value="" style="edgeStyle=orthogonalEdgeStyle;rounded=0;orthogonalLoop=1;jettySize=auto;html=1;" edge="1" parent="1" source="z7WjeKVMrqfT_wvCUD4l-311" target="z7WjeKVMrqfT_wvCUD4l-328">
          <mxGeometry relative="1" as="geometry" />
        </mxCell>
        <mxCell id="z7WjeKVMrqfT_wvCUD4l-311" value="t &amp;gt;= 500?" style="rhombus;whiteSpace=wrap;html=1;rounded=0;" vertex="1" parent="1">
          <mxGeometry x="2389.25" y="3885" width="134.25" height="115" as="geometry" />
        </mxCell>
        <mxCell id="z7WjeKVMrqfT_wvCUD4l-312" value="" style="edgeStyle=orthogonalEdgeStyle;rounded=0;orthogonalLoop=1;jettySize=auto;html=1;" edge="1" parent="1" source="z7WjeKVMrqfT_wvCUD4l-313" target="z7WjeKVMrqfT_wvCUD4l-317">
          <mxGeometry relative="1" as="geometry" />
        </mxCell>
        <mxCell id="z7WjeKVMrqfT_wvCUD4l-313" value="จำนวนชิ้นที่สามารถทอน&lt;div&gt;b50 = เงินที่ต้องทอน // 500&amp;nbsp;&lt;/div&gt;" style="rounded=0;whiteSpace=wrap;html=1;" vertex="1" parent="1">
          <mxGeometry x="2608.5" y="3907.5" width="228.5" height="70" as="geometry" />
        </mxCell>
        <mxCell id="z7WjeKVMrqfT_wvCUD4l-314" value="" style="edgeStyle=orthogonalEdgeStyle;rounded=0;orthogonalLoop=1;jettySize=auto;html=1;" edge="1" parent="1" source="z7WjeKVMrqfT_wvCUD4l-317" target="z7WjeKVMrqfT_wvCUD4l-319">
          <mxGeometry relative="1" as="geometry" />
        </mxCell>
        <mxCell id="z7WjeKVMrqfT_wvCUD4l-315" value="yes" style="edgeLabel;html=1;align=center;verticalAlign=middle;resizable=0;points=[];" vertex="1" connectable="0" parent="z7WjeKVMrqfT_wvCUD4l-314">
          <mxGeometry x="-0.2325" relative="1" as="geometry">
            <mxPoint x="-5" as="offset" />
          </mxGeometry>
        </mxCell>
        <mxCell id="z7WjeKVMrqfT_wvCUD4l-316" value="" style="edgeStyle=orthogonalEdgeStyle;rounded=0;orthogonalLoop=1;jettySize=auto;html=1;" edge="1" parent="1" source="z7WjeKVMrqfT_wvCUD4l-317" target="z7WjeKVMrqfT_wvCUD4l-456">
          <mxGeometry relative="1" as="geometry" />
        </mxCell>
        <mxCell id="z7WjeKVMrqfT_wvCUD4l-317" value="500 &amp;gt;= b5 ?" style="rhombus;whiteSpace=wrap;html=1;" vertex="1" parent="1">
          <mxGeometry x="2890" y="3893.75" width="92" height="97.5" as="geometry" />
        </mxCell>
        <mxCell id="z7WjeKVMrqfT_wvCUD4l-318" value="" style="edgeStyle=orthogonalEdgeStyle;rounded=0;orthogonalLoop=1;jettySize=auto;html=1;" edge="1" parent="1" source="z7WjeKVMrqfT_wvCUD4l-319" target="z7WjeKVMrqfT_wvCUD4l-321">
          <mxGeometry relative="1" as="geometry" />
        </mxCell>
        <mxCell id="z7WjeKVMrqfT_wvCUD4l-319" value="จ่ายแบงค์ 500&lt;div&gt;(b5 ) ใบ&lt;/div&gt;" style="shape=parallelogram;perimeter=parallelogramPerimeter;whiteSpace=wrap;html=1;fixedSize=1;" vertex="1" parent="1">
          <mxGeometry x="3047" y="3912.5" width="120" height="60" as="geometry" />
        </mxCell>
        <mxCell id="z7WjeKVMrqfT_wvCUD4l-320" value="" style="edgeStyle=orthogonalEdgeStyle;rounded=0;orthogonalLoop=1;jettySize=auto;html=1;" edge="1" parent="1" source="z7WjeKVMrqfT_wvCUD4l-321" target="z7WjeKVMrqfT_wvCUD4l-323">
          <mxGeometry relative="1" as="geometry" />
        </mxCell>
        <mxCell id="z7WjeKVMrqfT_wvCUD4l-321" value="แบงค์ 500 - b5&lt;div&gt;= แบงค์500&lt;/div&gt;" style="whiteSpace=wrap;html=1;" vertex="1" parent="1">
          <mxGeometry x="3267" y="3912.5" width="120" height="60" as="geometry" />
        </mxCell>
        <mxCell id="z7WjeKVMrqfT_wvCUD4l-322" value="" style="edgeStyle=orthogonalEdgeStyle;rounded=0;orthogonalLoop=1;jettySize=auto;html=1;" edge="1" parent="1" source="z7WjeKVMrqfT_wvCUD4l-323" target="z7WjeKVMrqfT_wvCUD4l-324">
          <mxGeometry relative="1" as="geometry" />
        </mxCell>
        <mxCell id="z7WjeKVMrqfT_wvCUD4l-323" value="t - 500(b5)" style="whiteSpace=wrap;html=1;" vertex="1" parent="1">
          <mxGeometry x="3480" y="3912.5" width="120" height="60" as="geometry" />
        </mxCell>
        <mxCell id="z7WjeKVMrqfT_wvCUD4l-324" value="t == 0 ?" style="rhombus;whiteSpace=wrap;html=1;" vertex="1" parent="1">
          <mxGeometry x="3680" y="3902.5" width="80" height="80" as="geometry" />
        </mxCell>
        <mxCell id="z7WjeKVMrqfT_wvCUD4l-325" value="" style="edgeStyle=orthogonalEdgeStyle;rounded=0;orthogonalLoop=1;jettySize=auto;html=1;" edge="1" parent="1" source="z7WjeKVMrqfT_wvCUD4l-328" target="z7WjeKVMrqfT_wvCUD4l-342">
          <mxGeometry relative="1" as="geometry" />
        </mxCell>
        <mxCell id="z7WjeKVMrqfT_wvCUD4l-326" value="yes" style="edgeLabel;html=1;align=center;verticalAlign=middle;resizable=0;points=[];" vertex="1" connectable="0" parent="z7WjeKVMrqfT_wvCUD4l-325">
          <mxGeometry x="-0.0022" y="-4" relative="1" as="geometry">
            <mxPoint x="1" as="offset" />
          </mxGeometry>
        </mxCell>
        <mxCell id="z7WjeKVMrqfT_wvCUD4l-327" value="" style="edgeStyle=orthogonalEdgeStyle;rounded=0;orthogonalLoop=1;jettySize=auto;html=1;" edge="1" parent="1" source="z7WjeKVMrqfT_wvCUD4l-328" target="z7WjeKVMrqfT_wvCUD4l-345">
          <mxGeometry relative="1" as="geometry" />
        </mxCell>
        <mxCell id="z7WjeKVMrqfT_wvCUD4l-328" value="t &amp;gt;= 100?" style="rhombus;whiteSpace=wrap;html=1;rounded=0;" vertex="1" parent="1">
          <mxGeometry x="2389.25" y="4110" width="134.25" height="115" as="geometry" />
        </mxCell>
        <mxCell id="z7WjeKVMrqfT_wvCUD4l-329" value="" style="edgeStyle=orthogonalEdgeStyle;rounded=0;orthogonalLoop=1;jettySize=auto;html=1;" edge="1" parent="1" source="z7WjeKVMrqfT_wvCUD4l-332" target="z7WjeKVMrqfT_wvCUD4l-334">
          <mxGeometry relative="1" as="geometry" />
        </mxCell>
        <mxCell id="z7WjeKVMrqfT_wvCUD4l-330" value="yes" style="edgeLabel;html=1;align=center;verticalAlign=middle;resizable=0;points=[];" vertex="1" connectable="0" parent="z7WjeKVMrqfT_wvCUD4l-329">
          <mxGeometry x="0.0474" relative="1" as="geometry">
            <mxPoint x="9" as="offset" />
          </mxGeometry>
        </mxCell>
        <mxCell id="z7WjeKVMrqfT_wvCUD4l-331" value="" style="edgeStyle=orthogonalEdgeStyle;rounded=0;orthogonalLoop=1;jettySize=auto;html=1;" edge="1" parent="1" source="z7WjeKVMrqfT_wvCUD4l-332" target="z7WjeKVMrqfT_wvCUD4l-449">
          <mxGeometry relative="1" as="geometry" />
        </mxCell>
        <mxCell id="z7WjeKVMrqfT_wvCUD4l-332" value="100 &amp;gt;=&amp;nbsp; b1 ?" style="rhombus;whiteSpace=wrap;html=1;" vertex="1" parent="1">
          <mxGeometry x="1905.75" y="4118.75" width="92" height="97.5" as="geometry" />
        </mxCell>
        <mxCell id="z7WjeKVMrqfT_wvCUD4l-333" value="" style="edgeStyle=orthogonalEdgeStyle;rounded=0;orthogonalLoop=1;jettySize=auto;html=1;" edge="1" parent="1" source="z7WjeKVMrqfT_wvCUD4l-334" target="z7WjeKVMrqfT_wvCUD4l-336">
          <mxGeometry relative="1" as="geometry" />
        </mxCell>
        <mxCell id="z7WjeKVMrqfT_wvCUD4l-334" value="จ่ายแบงค์ 100&lt;div&gt;(b1 ) ใบ&lt;/div&gt;" style="shape=parallelogram;perimeter=parallelogramPerimeter;whiteSpace=wrap;html=1;fixedSize=1;" vertex="1" parent="1">
          <mxGeometry x="1719.75" y="4137.5" width="120" height="60" as="geometry" />
        </mxCell>
        <mxCell id="z7WjeKVMrqfT_wvCUD4l-335" value="" style="edgeStyle=orthogonalEdgeStyle;rounded=0;orthogonalLoop=1;jettySize=auto;html=1;" edge="1" parent="1" source="z7WjeKVMrqfT_wvCUD4l-336" target="z7WjeKVMrqfT_wvCUD4l-338">
          <mxGeometry relative="1" as="geometry" />
        </mxCell>
        <mxCell id="z7WjeKVMrqfT_wvCUD4l-336" value="แบงค์ 100 - b1&lt;div&gt;= แบงค์100&lt;/div&gt;" style="whiteSpace=wrap;html=1;" vertex="1" parent="1">
          <mxGeometry x="1519.75" y="4137.5" width="120" height="60" as="geometry" />
        </mxCell>
        <mxCell id="z7WjeKVMrqfT_wvCUD4l-337" value="" style="edgeStyle=orthogonalEdgeStyle;rounded=0;orthogonalLoop=1;jettySize=auto;html=1;" edge="1" parent="1" source="z7WjeKVMrqfT_wvCUD4l-338" target="z7WjeKVMrqfT_wvCUD4l-340">
          <mxGeometry relative="1" as="geometry" />
        </mxCell>
        <mxCell id="z7WjeKVMrqfT_wvCUD4l-338" value="t - 100(b1)" style="whiteSpace=wrap;html=1;" vertex="1" parent="1">
          <mxGeometry x="1319.75" y="4137.5" width="120" height="60" as="geometry" />
        </mxCell>
        <mxCell id="z7WjeKVMrqfT_wvCUD4l-339" style="edgeStyle=orthogonalEdgeStyle;rounded=0;orthogonalLoop=1;jettySize=auto;html=1;" edge="1" parent="1" source="z7WjeKVMrqfT_wvCUD4l-340">
          <mxGeometry relative="1" as="geometry">
            <mxPoint x="760" y="4167.5" as="targetPoint" />
          </mxGeometry>
        </mxCell>
        <mxCell id="z7WjeKVMrqfT_wvCUD4l-340" value="t == 0 ?" style="rhombus;whiteSpace=wrap;html=1;" vertex="1" parent="1">
          <mxGeometry x="1139.75" y="4127.5" width="80" height="80" as="geometry" />
        </mxCell>
        <mxCell id="z7WjeKVMrqfT_wvCUD4l-341" value="" style="edgeStyle=orthogonalEdgeStyle;rounded=0;orthogonalLoop=1;jettySize=auto;html=1;" edge="1" parent="1" source="z7WjeKVMrqfT_wvCUD4l-342" target="z7WjeKVMrqfT_wvCUD4l-332">
          <mxGeometry relative="1" as="geometry" />
        </mxCell>
        <mxCell id="z7WjeKVMrqfT_wvCUD4l-342" value="จำนวนชิ้นที่สามารถทอน&lt;div&gt;b1&amp;nbsp; = เงินที่ต้องทอน //100&amp;nbsp;&lt;/div&gt;" style="rounded=0;whiteSpace=wrap;html=1;" vertex="1" parent="1">
          <mxGeometry x="2079" y="4132.5" width="228.5" height="70" as="geometry" />
        </mxCell>
        <mxCell id="z7WjeKVMrqfT_wvCUD4l-343" value="" style="edgeStyle=orthogonalEdgeStyle;rounded=0;orthogonalLoop=1;jettySize=auto;html=1;" edge="1" parent="1" source="z7WjeKVMrqfT_wvCUD4l-345" target="z7WjeKVMrqfT_wvCUD4l-347">
          <mxGeometry relative="1" as="geometry" />
        </mxCell>
        <mxCell id="z7WjeKVMrqfT_wvCUD4l-344" value="" style="edgeStyle=orthogonalEdgeStyle;rounded=0;orthogonalLoop=1;jettySize=auto;html=1;" edge="1" parent="1" source="z7WjeKVMrqfT_wvCUD4l-345" target="z7WjeKVMrqfT_wvCUD4l-363">
          <mxGeometry relative="1" as="geometry" />
        </mxCell>
        <mxCell id="z7WjeKVMrqfT_wvCUD4l-345" value="t &amp;gt;= 50?" style="rhombus;whiteSpace=wrap;html=1;rounded=0;" vertex="1" parent="1">
          <mxGeometry x="2389.25" y="4310" width="134.25" height="115" as="geometry" />
        </mxCell>
        <mxCell id="z7WjeKVMrqfT_wvCUD4l-346" value="" style="edgeStyle=orthogonalEdgeStyle;rounded=0;orthogonalLoop=1;jettySize=auto;html=1;" edge="1" parent="1" source="z7WjeKVMrqfT_wvCUD4l-347" target="z7WjeKVMrqfT_wvCUD4l-351">
          <mxGeometry relative="1" as="geometry" />
        </mxCell>
        <mxCell id="z7WjeKVMrqfT_wvCUD4l-347" value="จำนวนชิ้นที่สามารถทอน&lt;div&gt;b05 = เงินที่ต้องทอน // 50&amp;nbsp;&lt;/div&gt;" style="rounded=0;whiteSpace=wrap;html=1;" vertex="1" parent="1">
          <mxGeometry x="2608.5" y="4332.5" width="228.5" height="70" as="geometry" />
        </mxCell>
        <mxCell id="z7WjeKVMrqfT_wvCUD4l-348" value="" style="edgeStyle=orthogonalEdgeStyle;rounded=0;orthogonalLoop=1;jettySize=auto;html=1;" edge="1" parent="1" source="z7WjeKVMrqfT_wvCUD4l-351" target="z7WjeKVMrqfT_wvCUD4l-353">
          <mxGeometry relative="1" as="geometry" />
        </mxCell>
        <mxCell id="z7WjeKVMrqfT_wvCUD4l-349" value="yes" style="edgeLabel;html=1;align=center;verticalAlign=middle;resizable=0;points=[];" vertex="1" connectable="0" parent="z7WjeKVMrqfT_wvCUD4l-348">
          <mxGeometry x="-0.2325" relative="1" as="geometry">
            <mxPoint x="-5" as="offset" />
          </mxGeometry>
        </mxCell>
        <mxCell id="z7WjeKVMrqfT_wvCUD4l-350" value="" style="edgeStyle=orthogonalEdgeStyle;rounded=0;orthogonalLoop=1;jettySize=auto;html=1;" edge="1" parent="1" source="z7WjeKVMrqfT_wvCUD4l-351" target="z7WjeKVMrqfT_wvCUD4l-455">
          <mxGeometry relative="1" as="geometry" />
        </mxCell>
        <mxCell id="z7WjeKVMrqfT_wvCUD4l-351" value="50 &amp;gt;= b05 ?" style="rhombus;whiteSpace=wrap;html=1;" vertex="1" parent="1">
          <mxGeometry x="2890" y="4318.75" width="92" height="97.5" as="geometry" />
        </mxCell>
        <mxCell id="z7WjeKVMrqfT_wvCUD4l-352" value="" style="edgeStyle=orthogonalEdgeStyle;rounded=0;orthogonalLoop=1;jettySize=auto;html=1;" edge="1" parent="1" source="z7WjeKVMrqfT_wvCUD4l-353" target="z7WjeKVMrqfT_wvCUD4l-355">
          <mxGeometry relative="1" as="geometry" />
        </mxCell>
        <mxCell id="z7WjeKVMrqfT_wvCUD4l-353" value="จ่ายแบงค์ 50&lt;div&gt;(b05 ) ใบ&lt;/div&gt;" style="shape=parallelogram;perimeter=parallelogramPerimeter;whiteSpace=wrap;html=1;fixedSize=1;" vertex="1" parent="1">
          <mxGeometry x="3047" y="4337.5" width="120" height="60" as="geometry" />
        </mxCell>
        <mxCell id="z7WjeKVMrqfT_wvCUD4l-354" value="" style="edgeStyle=orthogonalEdgeStyle;rounded=0;orthogonalLoop=1;jettySize=auto;html=1;" edge="1" parent="1" source="z7WjeKVMrqfT_wvCUD4l-355" target="z7WjeKVMrqfT_wvCUD4l-357">
          <mxGeometry relative="1" as="geometry" />
        </mxCell>
        <mxCell id="z7WjeKVMrqfT_wvCUD4l-355" value="แบงค์ 50 - b05&lt;div&gt;= แบงค์50&lt;/div&gt;" style="whiteSpace=wrap;html=1;" vertex="1" parent="1">
          <mxGeometry x="3267" y="4337.5" width="120" height="60" as="geometry" />
        </mxCell>
        <mxCell id="z7WjeKVMrqfT_wvCUD4l-356" value="" style="edgeStyle=orthogonalEdgeStyle;rounded=0;orthogonalLoop=1;jettySize=auto;html=1;" edge="1" parent="1" source="z7WjeKVMrqfT_wvCUD4l-357" target="z7WjeKVMrqfT_wvCUD4l-359">
          <mxGeometry relative="1" as="geometry" />
        </mxCell>
        <mxCell id="z7WjeKVMrqfT_wvCUD4l-357" value="t - 50(b05)" style="whiteSpace=wrap;html=1;" vertex="1" parent="1">
          <mxGeometry x="3480" y="4337.5" width="120" height="60" as="geometry" />
        </mxCell>
        <mxCell id="z7WjeKVMrqfT_wvCUD4l-358" style="edgeStyle=orthogonalEdgeStyle;rounded=0;orthogonalLoop=1;jettySize=auto;html=1;" edge="1" parent="1" source="z7WjeKVMrqfT_wvCUD4l-359">
          <mxGeometry relative="1" as="geometry">
            <mxPoint x="4140" y="4367.5" as="targetPoint" />
          </mxGeometry>
        </mxCell>
        <mxCell id="z7WjeKVMrqfT_wvCUD4l-359" value="t == 0 ?" style="rhombus;whiteSpace=wrap;html=1;" vertex="1" parent="1">
          <mxGeometry x="3680" y="4327.5" width="80" height="80" as="geometry" />
        </mxCell>
        <mxCell id="z7WjeKVMrqfT_wvCUD4l-360" value="" style="edgeStyle=orthogonalEdgeStyle;rounded=0;orthogonalLoop=1;jettySize=auto;html=1;" edge="1" parent="1" source="z7WjeKVMrqfT_wvCUD4l-363" target="z7WjeKVMrqfT_wvCUD4l-377">
          <mxGeometry relative="1" as="geometry" />
        </mxCell>
        <mxCell id="z7WjeKVMrqfT_wvCUD4l-361" value="yes" style="edgeLabel;html=1;align=center;verticalAlign=middle;resizable=0;points=[];" vertex="1" connectable="0" parent="z7WjeKVMrqfT_wvCUD4l-360">
          <mxGeometry x="-0.0022" y="-4" relative="1" as="geometry">
            <mxPoint x="1" as="offset" />
          </mxGeometry>
        </mxCell>
        <mxCell id="z7WjeKVMrqfT_wvCUD4l-362" value="" style="edgeStyle=orthogonalEdgeStyle;rounded=0;orthogonalLoop=1;jettySize=auto;html=1;" edge="1" parent="1" source="z7WjeKVMrqfT_wvCUD4l-363" target="z7WjeKVMrqfT_wvCUD4l-380">
          <mxGeometry relative="1" as="geometry" />
        </mxCell>
        <mxCell id="z7WjeKVMrqfT_wvCUD4l-363" value="t &amp;gt;= 20?" style="rhombus;whiteSpace=wrap;html=1;rounded=0;" vertex="1" parent="1">
          <mxGeometry x="2389.25" y="4500" width="134.25" height="115" as="geometry" />
        </mxCell>
        <mxCell id="z7WjeKVMrqfT_wvCUD4l-364" value="" style="edgeStyle=orthogonalEdgeStyle;rounded=0;orthogonalLoop=1;jettySize=auto;html=1;" edge="1" parent="1" source="z7WjeKVMrqfT_wvCUD4l-367" target="z7WjeKVMrqfT_wvCUD4l-369">
          <mxGeometry relative="1" as="geometry" />
        </mxCell>
        <mxCell id="z7WjeKVMrqfT_wvCUD4l-365" value="yes" style="edgeLabel;html=1;align=center;verticalAlign=middle;resizable=0;points=[];" vertex="1" connectable="0" parent="z7WjeKVMrqfT_wvCUD4l-364">
          <mxGeometry x="0.0474" relative="1" as="geometry">
            <mxPoint x="9" as="offset" />
          </mxGeometry>
        </mxCell>
        <mxCell id="z7WjeKVMrqfT_wvCUD4l-366" value="" style="edgeStyle=orthogonalEdgeStyle;rounded=0;orthogonalLoop=1;jettySize=auto;html=1;" edge="1" parent="1" source="z7WjeKVMrqfT_wvCUD4l-367" target="z7WjeKVMrqfT_wvCUD4l-450">
          <mxGeometry relative="1" as="geometry" />
        </mxCell>
        <mxCell id="z7WjeKVMrqfT_wvCUD4l-367" value="20 &amp;gt;=&amp;nbsp; b02 ?" style="rhombus;whiteSpace=wrap;html=1;" vertex="1" parent="1">
          <mxGeometry x="1905.75" y="4508.75" width="92" height="97.5" as="geometry" />
        </mxCell>
        <mxCell id="z7WjeKVMrqfT_wvCUD4l-368" value="" style="edgeStyle=orthogonalEdgeStyle;rounded=0;orthogonalLoop=1;jettySize=auto;html=1;" edge="1" parent="1" source="z7WjeKVMrqfT_wvCUD4l-369" target="z7WjeKVMrqfT_wvCUD4l-371">
          <mxGeometry relative="1" as="geometry" />
        </mxCell>
        <mxCell id="z7WjeKVMrqfT_wvCUD4l-369" value="จ่ายแบงค์ 20&lt;div&gt;(b02 ) ใบ&lt;/div&gt;" style="shape=parallelogram;perimeter=parallelogramPerimeter;whiteSpace=wrap;html=1;fixedSize=1;" vertex="1" parent="1">
          <mxGeometry x="1719.75" y="4527.5" width="120" height="60" as="geometry" />
        </mxCell>
        <mxCell id="z7WjeKVMrqfT_wvCUD4l-370" value="" style="edgeStyle=orthogonalEdgeStyle;rounded=0;orthogonalLoop=1;jettySize=auto;html=1;" edge="1" parent="1" source="z7WjeKVMrqfT_wvCUD4l-371" target="z7WjeKVMrqfT_wvCUD4l-373">
          <mxGeometry relative="1" as="geometry" />
        </mxCell>
        <mxCell id="z7WjeKVMrqfT_wvCUD4l-371" value="แบงค์ 20 - b02&lt;div&gt;= แบงค์20&lt;/div&gt;" style="whiteSpace=wrap;html=1;" vertex="1" parent="1">
          <mxGeometry x="1519.75" y="4527.5" width="120" height="60" as="geometry" />
        </mxCell>
        <mxCell id="z7WjeKVMrqfT_wvCUD4l-372" value="" style="edgeStyle=orthogonalEdgeStyle;rounded=0;orthogonalLoop=1;jettySize=auto;html=1;" edge="1" parent="1" source="z7WjeKVMrqfT_wvCUD4l-373" target="z7WjeKVMrqfT_wvCUD4l-375">
          <mxGeometry relative="1" as="geometry" />
        </mxCell>
        <mxCell id="z7WjeKVMrqfT_wvCUD4l-373" value="t - 20(b02)" style="whiteSpace=wrap;html=1;" vertex="1" parent="1">
          <mxGeometry x="1319.75" y="4527.5" width="120" height="60" as="geometry" />
        </mxCell>
        <mxCell id="z7WjeKVMrqfT_wvCUD4l-374" style="edgeStyle=orthogonalEdgeStyle;rounded=0;orthogonalLoop=1;jettySize=auto;html=1;" edge="1" parent="1" source="z7WjeKVMrqfT_wvCUD4l-375">
          <mxGeometry relative="1" as="geometry">
            <mxPoint x="760" y="4557.5" as="targetPoint" />
          </mxGeometry>
        </mxCell>
        <mxCell id="z7WjeKVMrqfT_wvCUD4l-375" value="t == 0 ?" style="rhombus;whiteSpace=wrap;html=1;" vertex="1" parent="1">
          <mxGeometry x="1139.75" y="4517.5" width="80" height="80" as="geometry" />
        </mxCell>
        <mxCell id="z7WjeKVMrqfT_wvCUD4l-376" value="" style="edgeStyle=orthogonalEdgeStyle;rounded=0;orthogonalLoop=1;jettySize=auto;html=1;" edge="1" parent="1" source="z7WjeKVMrqfT_wvCUD4l-377" target="z7WjeKVMrqfT_wvCUD4l-367">
          <mxGeometry relative="1" as="geometry" />
        </mxCell>
        <mxCell id="z7WjeKVMrqfT_wvCUD4l-377" value="จำนวนชิ้นที่สามารถทอน&lt;div&gt;b02 = เงินที่ต้องทอน //20&amp;nbsp;&lt;/div&gt;" style="rounded=0;whiteSpace=wrap;html=1;" vertex="1" parent="1">
          <mxGeometry x="2079" y="4522.5" width="228.5" height="70" as="geometry" />
        </mxCell>
        <mxCell id="z7WjeKVMrqfT_wvCUD4l-378" value="" style="edgeStyle=orthogonalEdgeStyle;rounded=0;orthogonalLoop=1;jettySize=auto;html=1;" edge="1" parent="1" source="z7WjeKVMrqfT_wvCUD4l-380" target="z7WjeKVMrqfT_wvCUD4l-382">
          <mxGeometry relative="1" as="geometry" />
        </mxCell>
        <mxCell id="z7WjeKVMrqfT_wvCUD4l-379" value="" style="edgeStyle=orthogonalEdgeStyle;rounded=0;orthogonalLoop=1;jettySize=auto;html=1;" edge="1" parent="1" source="z7WjeKVMrqfT_wvCUD4l-380" target="z7WjeKVMrqfT_wvCUD4l-398">
          <mxGeometry relative="1" as="geometry" />
        </mxCell>
        <mxCell id="z7WjeKVMrqfT_wvCUD4l-380" value="t &amp;gt;= 10?" style="rhombus;whiteSpace=wrap;html=1;rounded=0;" vertex="1" parent="1">
          <mxGeometry x="2389.25" y="4700" width="134.25" height="115" as="geometry" />
        </mxCell>
        <mxCell id="z7WjeKVMrqfT_wvCUD4l-381" value="" style="edgeStyle=orthogonalEdgeStyle;rounded=0;orthogonalLoop=1;jettySize=auto;html=1;" edge="1" parent="1" source="z7WjeKVMrqfT_wvCUD4l-382" target="z7WjeKVMrqfT_wvCUD4l-386">
          <mxGeometry relative="1" as="geometry" />
        </mxCell>
        <mxCell id="z7WjeKVMrqfT_wvCUD4l-382" value="จำนวนชิ้นที่สามารถทอน&lt;div&gt;c01 = เงินที่ต้องทอน // 10&amp;nbsp;&lt;/div&gt;" style="rounded=0;whiteSpace=wrap;html=1;" vertex="1" parent="1">
          <mxGeometry x="2608.5" y="4722.5" width="228.5" height="70" as="geometry" />
        </mxCell>
        <mxCell id="z7WjeKVMrqfT_wvCUD4l-383" value="" style="edgeStyle=orthogonalEdgeStyle;rounded=0;orthogonalLoop=1;jettySize=auto;html=1;" edge="1" parent="1" source="z7WjeKVMrqfT_wvCUD4l-386" target="z7WjeKVMrqfT_wvCUD4l-388">
          <mxGeometry relative="1" as="geometry" />
        </mxCell>
        <mxCell id="z7WjeKVMrqfT_wvCUD4l-384" value="yes" style="edgeLabel;html=1;align=center;verticalAlign=middle;resizable=0;points=[];" vertex="1" connectable="0" parent="z7WjeKVMrqfT_wvCUD4l-383">
          <mxGeometry x="-0.2325" relative="1" as="geometry">
            <mxPoint x="-5" as="offset" />
          </mxGeometry>
        </mxCell>
        <mxCell id="z7WjeKVMrqfT_wvCUD4l-385" value="" style="edgeStyle=orthogonalEdgeStyle;rounded=0;orthogonalLoop=1;jettySize=auto;html=1;" edge="1" parent="1" source="z7WjeKVMrqfT_wvCUD4l-386" target="z7WjeKVMrqfT_wvCUD4l-454">
          <mxGeometry relative="1" as="geometry" />
        </mxCell>
        <mxCell id="z7WjeKVMrqfT_wvCUD4l-386" value="10 &amp;gt;= c10 ?" style="rhombus;whiteSpace=wrap;html=1;" vertex="1" parent="1">
          <mxGeometry x="2890" y="4708.75" width="92" height="97.5" as="geometry" />
        </mxCell>
        <mxCell id="z7WjeKVMrqfT_wvCUD4l-387" value="" style="edgeStyle=orthogonalEdgeStyle;rounded=0;orthogonalLoop=1;jettySize=auto;html=1;" edge="1" parent="1" source="z7WjeKVMrqfT_wvCUD4l-388" target="z7WjeKVMrqfT_wvCUD4l-390">
          <mxGeometry relative="1" as="geometry" />
        </mxCell>
        <mxCell id="z7WjeKVMrqfT_wvCUD4l-388" value="จ่ายเหรียญ 10&lt;div&gt;(c10 ) เหรียญ&lt;/div&gt;" style="shape=parallelogram;perimeter=parallelogramPerimeter;whiteSpace=wrap;html=1;fixedSize=1;" vertex="1" parent="1">
          <mxGeometry x="3047" y="4727.5" width="120" height="60" as="geometry" />
        </mxCell>
        <mxCell id="z7WjeKVMrqfT_wvCUD4l-389" value="" style="edgeStyle=orthogonalEdgeStyle;rounded=0;orthogonalLoop=1;jettySize=auto;html=1;" edge="1" parent="1" source="z7WjeKVMrqfT_wvCUD4l-390" target="z7WjeKVMrqfT_wvCUD4l-392">
          <mxGeometry relative="1" as="geometry" />
        </mxCell>
        <mxCell id="z7WjeKVMrqfT_wvCUD4l-390" value="&lt;div&gt;เหรียญ 10 - c10&amp;nbsp;&lt;/div&gt;&lt;div&gt;= เหรียญ10&lt;/div&gt;" style="whiteSpace=wrap;html=1;" vertex="1" parent="1">
          <mxGeometry x="3267" y="4727.5" width="120" height="60" as="geometry" />
        </mxCell>
        <mxCell id="z7WjeKVMrqfT_wvCUD4l-391" value="" style="edgeStyle=orthogonalEdgeStyle;rounded=0;orthogonalLoop=1;jettySize=auto;html=1;" edge="1" parent="1" source="z7WjeKVMrqfT_wvCUD4l-392" target="z7WjeKVMrqfT_wvCUD4l-394">
          <mxGeometry relative="1" as="geometry" />
        </mxCell>
        <mxCell id="z7WjeKVMrqfT_wvCUD4l-392" value="t&amp;nbsp; -&amp;nbsp; 10(c10)" style="whiteSpace=wrap;html=1;" vertex="1" parent="1">
          <mxGeometry x="3480" y="4727.5" width="120" height="60" as="geometry" />
        </mxCell>
        <mxCell id="z7WjeKVMrqfT_wvCUD4l-393" style="edgeStyle=orthogonalEdgeStyle;rounded=0;orthogonalLoop=1;jettySize=auto;html=1;" edge="1" parent="1" source="z7WjeKVMrqfT_wvCUD4l-394">
          <mxGeometry relative="1" as="geometry">
            <mxPoint x="4150" y="4757.5" as="targetPoint" />
          </mxGeometry>
        </mxCell>
        <mxCell id="z7WjeKVMrqfT_wvCUD4l-394" value="t == 0 ?" style="rhombus;whiteSpace=wrap;html=1;" vertex="1" parent="1">
          <mxGeometry x="3680" y="4717.5" width="80" height="80" as="geometry" />
        </mxCell>
        <mxCell id="z7WjeKVMrqfT_wvCUD4l-395" value="" style="edgeStyle=orthogonalEdgeStyle;rounded=0;orthogonalLoop=1;jettySize=auto;html=1;" edge="1" parent="1" source="z7WjeKVMrqfT_wvCUD4l-398" target="z7WjeKVMrqfT_wvCUD4l-412">
          <mxGeometry relative="1" as="geometry" />
        </mxCell>
        <mxCell id="z7WjeKVMrqfT_wvCUD4l-396" value="yes" style="edgeLabel;html=1;align=center;verticalAlign=middle;resizable=0;points=[];" vertex="1" connectable="0" parent="z7WjeKVMrqfT_wvCUD4l-395">
          <mxGeometry x="-0.0022" y="-4" relative="1" as="geometry">
            <mxPoint x="1" as="offset" />
          </mxGeometry>
        </mxCell>
        <mxCell id="z7WjeKVMrqfT_wvCUD4l-397" value="" style="edgeStyle=orthogonalEdgeStyle;rounded=0;orthogonalLoop=1;jettySize=auto;html=1;" edge="1" parent="1" source="z7WjeKVMrqfT_wvCUD4l-398" target="z7WjeKVMrqfT_wvCUD4l-415">
          <mxGeometry relative="1" as="geometry" />
        </mxCell>
        <mxCell id="z7WjeKVMrqfT_wvCUD4l-398" value="t &amp;gt;= 5?" style="rhombus;whiteSpace=wrap;html=1;rounded=0;" vertex="1" parent="1">
          <mxGeometry x="2389.25" y="4900" width="134.25" height="115" as="geometry" />
        </mxCell>
        <mxCell id="z7WjeKVMrqfT_wvCUD4l-399" value="" style="edgeStyle=orthogonalEdgeStyle;rounded=0;orthogonalLoop=1;jettySize=auto;html=1;" edge="1" parent="1" source="z7WjeKVMrqfT_wvCUD4l-402" target="z7WjeKVMrqfT_wvCUD4l-404">
          <mxGeometry relative="1" as="geometry" />
        </mxCell>
        <mxCell id="z7WjeKVMrqfT_wvCUD4l-400" value="yes" style="edgeLabel;html=1;align=center;verticalAlign=middle;resizable=0;points=[];" vertex="1" connectable="0" parent="z7WjeKVMrqfT_wvCUD4l-399">
          <mxGeometry x="0.0474" relative="1" as="geometry">
            <mxPoint x="9" as="offset" />
          </mxGeometry>
        </mxCell>
        <mxCell id="z7WjeKVMrqfT_wvCUD4l-401" value="" style="edgeStyle=orthogonalEdgeStyle;rounded=0;orthogonalLoop=1;jettySize=auto;html=1;" edge="1" parent="1" source="z7WjeKVMrqfT_wvCUD4l-402" target="z7WjeKVMrqfT_wvCUD4l-451">
          <mxGeometry relative="1" as="geometry" />
        </mxCell>
        <mxCell id="z7WjeKVMrqfT_wvCUD4l-402" value="5 &amp;gt;=&amp;nbsp; c5 ?" style="rhombus;whiteSpace=wrap;html=1;" vertex="1" parent="1">
          <mxGeometry x="1905.75" y="4908.75" width="92" height="97.5" as="geometry" />
        </mxCell>
        <mxCell id="z7WjeKVMrqfT_wvCUD4l-403" value="" style="edgeStyle=orthogonalEdgeStyle;rounded=0;orthogonalLoop=1;jettySize=auto;html=1;" edge="1" parent="1" source="z7WjeKVMrqfT_wvCUD4l-404" target="z7WjeKVMrqfT_wvCUD4l-406">
          <mxGeometry relative="1" as="geometry" />
        </mxCell>
        <mxCell id="z7WjeKVMrqfT_wvCUD4l-404" value="&lt;div&gt;จ่ายเหรียญ 5&lt;/div&gt;&lt;div&gt;(c5 ) เหรียญ&lt;/div&gt;" style="shape=parallelogram;perimeter=parallelogramPerimeter;whiteSpace=wrap;html=1;fixedSize=1;" vertex="1" parent="1">
          <mxGeometry x="1719.75" y="4927.5" width="120" height="60" as="geometry" />
        </mxCell>
        <mxCell id="z7WjeKVMrqfT_wvCUD4l-405" value="" style="edgeStyle=orthogonalEdgeStyle;rounded=0;orthogonalLoop=1;jettySize=auto;html=1;" edge="1" parent="1" source="z7WjeKVMrqfT_wvCUD4l-406" target="z7WjeKVMrqfT_wvCUD4l-408">
          <mxGeometry relative="1" as="geometry" />
        </mxCell>
        <mxCell id="z7WjeKVMrqfT_wvCUD4l-406" value="&lt;div&gt;เหรียญ 5 - c5&amp;nbsp; = เหรียญ 5&lt;/div&gt;" style="whiteSpace=wrap;html=1;" vertex="1" parent="1">
          <mxGeometry x="1519.75" y="4927.5" width="120" height="60" as="geometry" />
        </mxCell>
        <mxCell id="z7WjeKVMrqfT_wvCUD4l-407" value="" style="edgeStyle=orthogonalEdgeStyle;rounded=0;orthogonalLoop=1;jettySize=auto;html=1;" edge="1" parent="1" source="z7WjeKVMrqfT_wvCUD4l-408" target="z7WjeKVMrqfT_wvCUD4l-410">
          <mxGeometry relative="1" as="geometry" />
        </mxCell>
        <mxCell id="z7WjeKVMrqfT_wvCUD4l-408" value="t - 5(c5)" style="whiteSpace=wrap;html=1;" vertex="1" parent="1">
          <mxGeometry x="1319.75" y="4927.5" width="120" height="60" as="geometry" />
        </mxCell>
        <mxCell id="z7WjeKVMrqfT_wvCUD4l-409" style="edgeStyle=orthogonalEdgeStyle;rounded=0;orthogonalLoop=1;jettySize=auto;html=1;" edge="1" parent="1" source="z7WjeKVMrqfT_wvCUD4l-410">
          <mxGeometry relative="1" as="geometry">
            <mxPoint x="750" y="4957.5" as="targetPoint" />
          </mxGeometry>
        </mxCell>
        <mxCell id="z7WjeKVMrqfT_wvCUD4l-410" value="t == 0 ?" style="rhombus;whiteSpace=wrap;html=1;" vertex="1" parent="1">
          <mxGeometry x="1139.75" y="4917.5" width="80" height="80" as="geometry" />
        </mxCell>
        <mxCell id="z7WjeKVMrqfT_wvCUD4l-411" value="" style="edgeStyle=orthogonalEdgeStyle;rounded=0;orthogonalLoop=1;jettySize=auto;html=1;" edge="1" parent="1" source="z7WjeKVMrqfT_wvCUD4l-412" target="z7WjeKVMrqfT_wvCUD4l-402">
          <mxGeometry relative="1" as="geometry" />
        </mxCell>
        <mxCell id="z7WjeKVMrqfT_wvCUD4l-412" value="จำนวนชิ้นที่สามารถทอน&lt;div&gt;c5 = เงินที่ต้องทอน //5&amp;nbsp;&lt;/div&gt;" style="rounded=0;whiteSpace=wrap;html=1;" vertex="1" parent="1">
          <mxGeometry x="2079" y="4922.5" width="228.5" height="70" as="geometry" />
        </mxCell>
        <mxCell id="z7WjeKVMrqfT_wvCUD4l-413" value="" style="edgeStyle=orthogonalEdgeStyle;rounded=0;orthogonalLoop=1;jettySize=auto;html=1;" edge="1" parent="1" source="z7WjeKVMrqfT_wvCUD4l-415" target="z7WjeKVMrqfT_wvCUD4l-417">
          <mxGeometry relative="1" as="geometry" />
        </mxCell>
        <mxCell id="z7WjeKVMrqfT_wvCUD4l-414" value="" style="edgeStyle=orthogonalEdgeStyle;rounded=0;orthogonalLoop=1;jettySize=auto;html=1;" edge="1" parent="1" source="z7WjeKVMrqfT_wvCUD4l-415" target="z7WjeKVMrqfT_wvCUD4l-433">
          <mxGeometry relative="1" as="geometry" />
        </mxCell>
        <mxCell id="z7WjeKVMrqfT_wvCUD4l-415" value="t &amp;gt;= 2?" style="rhombus;whiteSpace=wrap;html=1;rounded=0;" vertex="1" parent="1">
          <mxGeometry x="2389.25" y="5100" width="134.25" height="115" as="geometry" />
        </mxCell>
        <mxCell id="z7WjeKVMrqfT_wvCUD4l-416" value="" style="edgeStyle=orthogonalEdgeStyle;rounded=0;orthogonalLoop=1;jettySize=auto;html=1;" edge="1" parent="1" source="z7WjeKVMrqfT_wvCUD4l-417" target="z7WjeKVMrqfT_wvCUD4l-421">
          <mxGeometry relative="1" as="geometry" />
        </mxCell>
        <mxCell id="z7WjeKVMrqfT_wvCUD4l-417" value="จำนวนชิ้นที่สามารถทอน&lt;div&gt;c2 = เงินที่ต้องทอน // 2&amp;nbsp;&lt;/div&gt;" style="rounded=0;whiteSpace=wrap;html=1;" vertex="1" parent="1">
          <mxGeometry x="2608.5" y="5122.5" width="228.5" height="70" as="geometry" />
        </mxCell>
        <mxCell id="z7WjeKVMrqfT_wvCUD4l-418" value="" style="edgeStyle=orthogonalEdgeStyle;rounded=0;orthogonalLoop=1;jettySize=auto;html=1;" edge="1" parent="1" source="z7WjeKVMrqfT_wvCUD4l-421" target="z7WjeKVMrqfT_wvCUD4l-423">
          <mxGeometry relative="1" as="geometry" />
        </mxCell>
        <mxCell id="z7WjeKVMrqfT_wvCUD4l-419" value="yes" style="edgeLabel;html=1;align=center;verticalAlign=middle;resizable=0;points=[];" vertex="1" connectable="0" parent="z7WjeKVMrqfT_wvCUD4l-418">
          <mxGeometry x="-0.2325" relative="1" as="geometry">
            <mxPoint x="-5" as="offset" />
          </mxGeometry>
        </mxCell>
        <mxCell id="z7WjeKVMrqfT_wvCUD4l-420" value="" style="edgeStyle=orthogonalEdgeStyle;rounded=0;orthogonalLoop=1;jettySize=auto;html=1;" edge="1" parent="1" source="z7WjeKVMrqfT_wvCUD4l-421" target="z7WjeKVMrqfT_wvCUD4l-453">
          <mxGeometry relative="1" as="geometry" />
        </mxCell>
        <mxCell id="z7WjeKVMrqfT_wvCUD4l-421" value="2 &amp;gt;= c2 ?" style="rhombus;whiteSpace=wrap;html=1;" vertex="1" parent="1">
          <mxGeometry x="2890" y="5108.75" width="92" height="97.5" as="geometry" />
        </mxCell>
        <mxCell id="z7WjeKVMrqfT_wvCUD4l-422" value="" style="edgeStyle=orthogonalEdgeStyle;rounded=0;orthogonalLoop=1;jettySize=auto;html=1;" edge="1" parent="1" source="z7WjeKVMrqfT_wvCUD4l-423" target="z7WjeKVMrqfT_wvCUD4l-425">
          <mxGeometry relative="1" as="geometry" />
        </mxCell>
        <mxCell id="z7WjeKVMrqfT_wvCUD4l-423" value="จ่ายเหรียญ 2&lt;div&gt;(c2 ) เหรียญ&lt;/div&gt;" style="shape=parallelogram;perimeter=parallelogramPerimeter;whiteSpace=wrap;html=1;fixedSize=1;" vertex="1" parent="1">
          <mxGeometry x="3047" y="5127.5" width="120" height="60" as="geometry" />
        </mxCell>
        <mxCell id="z7WjeKVMrqfT_wvCUD4l-424" value="" style="edgeStyle=orthogonalEdgeStyle;rounded=0;orthogonalLoop=1;jettySize=auto;html=1;" edge="1" parent="1" source="z7WjeKVMrqfT_wvCUD4l-425" target="z7WjeKVMrqfT_wvCUD4l-427">
          <mxGeometry relative="1" as="geometry" />
        </mxCell>
        <mxCell id="z7WjeKVMrqfT_wvCUD4l-425" value="&lt;div&gt;เหรียญ 2 - c2&lt;/div&gt;&lt;div&gt;= เหรียญ 2&lt;/div&gt;" style="whiteSpace=wrap;html=1;" vertex="1" parent="1">
          <mxGeometry x="3267" y="5127.5" width="120" height="60" as="geometry" />
        </mxCell>
        <mxCell id="z7WjeKVMrqfT_wvCUD4l-426" value="" style="edgeStyle=orthogonalEdgeStyle;rounded=0;orthogonalLoop=1;jettySize=auto;html=1;" edge="1" parent="1" source="z7WjeKVMrqfT_wvCUD4l-427" target="z7WjeKVMrqfT_wvCUD4l-429">
          <mxGeometry relative="1" as="geometry" />
        </mxCell>
        <mxCell id="z7WjeKVMrqfT_wvCUD4l-427" value="t&amp;nbsp; -&amp;nbsp; 2(c2)" style="whiteSpace=wrap;html=1;" vertex="1" parent="1">
          <mxGeometry x="3480" y="5127.5" width="120" height="60" as="geometry" />
        </mxCell>
        <mxCell id="z7WjeKVMrqfT_wvCUD4l-428" style="edgeStyle=orthogonalEdgeStyle;rounded=0;orthogonalLoop=1;jettySize=auto;html=1;" edge="1" parent="1" source="z7WjeKVMrqfT_wvCUD4l-429">
          <mxGeometry relative="1" as="geometry">
            <mxPoint x="4150" y="5157.5" as="targetPoint" />
          </mxGeometry>
        </mxCell>
        <mxCell id="z7WjeKVMrqfT_wvCUD4l-429" value="t == 0 ?" style="rhombus;whiteSpace=wrap;html=1;" vertex="1" parent="1">
          <mxGeometry x="3680" y="5117.5" width="80" height="80" as="geometry" />
        </mxCell>
        <mxCell id="z7WjeKVMrqfT_wvCUD4l-430" value="" style="edgeStyle=orthogonalEdgeStyle;rounded=0;orthogonalLoop=1;jettySize=auto;html=1;" edge="1" parent="1" source="z7WjeKVMrqfT_wvCUD4l-433" target="z7WjeKVMrqfT_wvCUD4l-447">
          <mxGeometry relative="1" as="geometry" />
        </mxCell>
        <mxCell id="z7WjeKVMrqfT_wvCUD4l-431" value="yes" style="edgeLabel;html=1;align=center;verticalAlign=middle;resizable=0;points=[];" vertex="1" connectable="0" parent="z7WjeKVMrqfT_wvCUD4l-430">
          <mxGeometry x="-0.0022" y="-4" relative="1" as="geometry">
            <mxPoint x="1" as="offset" />
          </mxGeometry>
        </mxCell>
        <mxCell id="z7WjeKVMrqfT_wvCUD4l-432" style="edgeStyle=orthogonalEdgeStyle;rounded=0;orthogonalLoop=1;jettySize=auto;html=1;entryX=0.5;entryY=0;entryDx=0;entryDy=0;" edge="1" parent="1" source="z7WjeKVMrqfT_wvCUD4l-433" target="z7WjeKVMrqfT_wvCUD4l-482">
          <mxGeometry relative="1" as="geometry">
            <mxPoint x="2456.375" y="5640" as="targetPoint" />
          </mxGeometry>
        </mxCell>
        <mxCell id="z7WjeKVMrqfT_wvCUD4l-433" value="t &amp;gt;= 1?" style="rhombus;whiteSpace=wrap;html=1;rounded=0;" vertex="1" parent="1">
          <mxGeometry x="2389.25" y="5310" width="134.25" height="115" as="geometry" />
        </mxCell>
        <mxCell id="z7WjeKVMrqfT_wvCUD4l-434" value="" style="edgeStyle=orthogonalEdgeStyle;rounded=0;orthogonalLoop=1;jettySize=auto;html=1;" edge="1" parent="1" source="z7WjeKVMrqfT_wvCUD4l-437" target="z7WjeKVMrqfT_wvCUD4l-439">
          <mxGeometry relative="1" as="geometry" />
        </mxCell>
        <mxCell id="z7WjeKVMrqfT_wvCUD4l-435" value="yes" style="edgeLabel;html=1;align=center;verticalAlign=middle;resizable=0;points=[];" vertex="1" connectable="0" parent="z7WjeKVMrqfT_wvCUD4l-434">
          <mxGeometry x="0.0474" relative="1" as="geometry">
            <mxPoint x="9" as="offset" />
          </mxGeometry>
        </mxCell>
        <mxCell id="z7WjeKVMrqfT_wvCUD4l-436" value="" style="edgeStyle=orthogonalEdgeStyle;rounded=0;orthogonalLoop=1;jettySize=auto;html=1;" edge="1" parent="1" source="z7WjeKVMrqfT_wvCUD4l-437" target="z7WjeKVMrqfT_wvCUD4l-452">
          <mxGeometry relative="1" as="geometry" />
        </mxCell>
        <mxCell id="z7WjeKVMrqfT_wvCUD4l-437" value="1 &amp;gt;=&amp;nbsp; c1 ?" style="rhombus;whiteSpace=wrap;html=1;" vertex="1" parent="1">
          <mxGeometry x="1905.75" y="5318.75" width="92" height="97.5" as="geometry" />
        </mxCell>
        <mxCell id="z7WjeKVMrqfT_wvCUD4l-438" value="" style="edgeStyle=orthogonalEdgeStyle;rounded=0;orthogonalLoop=1;jettySize=auto;html=1;" edge="1" parent="1" source="z7WjeKVMrqfT_wvCUD4l-439" target="z7WjeKVMrqfT_wvCUD4l-441">
          <mxGeometry relative="1" as="geometry" />
        </mxCell>
        <mxCell id="z7WjeKVMrqfT_wvCUD4l-439" value="&lt;div&gt;จ่ายเหรียญ 1&lt;/div&gt;&lt;div&gt;(c1) เหรียญ&lt;/div&gt;" style="shape=parallelogram;perimeter=parallelogramPerimeter;whiteSpace=wrap;html=1;fixedSize=1;" vertex="1" parent="1">
          <mxGeometry x="1719.75" y="5337.5" width="120" height="60" as="geometry" />
        </mxCell>
        <mxCell id="z7WjeKVMrqfT_wvCUD4l-440" value="" style="edgeStyle=orthogonalEdgeStyle;rounded=0;orthogonalLoop=1;jettySize=auto;html=1;" edge="1" parent="1" source="z7WjeKVMrqfT_wvCUD4l-441" target="z7WjeKVMrqfT_wvCUD4l-443">
          <mxGeometry relative="1" as="geometry" />
        </mxCell>
        <mxCell id="z7WjeKVMrqfT_wvCUD4l-441" value="&lt;div&gt;เหรียญ 1 - c1&amp;nbsp; = เหรียญ 1&lt;/div&gt;" style="whiteSpace=wrap;html=1;" vertex="1" parent="1">
          <mxGeometry x="1519.75" y="5337.5" width="120" height="60" as="geometry" />
        </mxCell>
        <mxCell id="z7WjeKVMrqfT_wvCUD4l-442" value="" style="edgeStyle=orthogonalEdgeStyle;rounded=0;orthogonalLoop=1;jettySize=auto;html=1;" edge="1" parent="1" source="z7WjeKVMrqfT_wvCUD4l-443" target="z7WjeKVMrqfT_wvCUD4l-445">
          <mxGeometry relative="1" as="geometry" />
        </mxCell>
        <mxCell id="z7WjeKVMrqfT_wvCUD4l-443" value="t - 1(c1)" style="whiteSpace=wrap;html=1;" vertex="1" parent="1">
          <mxGeometry x="1319.75" y="5337.5" width="120" height="60" as="geometry" />
        </mxCell>
        <mxCell id="z7WjeKVMrqfT_wvCUD4l-444" style="edgeStyle=orthogonalEdgeStyle;rounded=0;orthogonalLoop=1;jettySize=auto;html=1;" edge="1" parent="1" source="z7WjeKVMrqfT_wvCUD4l-445">
          <mxGeometry relative="1" as="geometry">
            <mxPoint x="760" y="5367.5" as="targetPoint" />
          </mxGeometry>
        </mxCell>
        <mxCell id="z7WjeKVMrqfT_wvCUD4l-445" value="t == 0 ?" style="rhombus;whiteSpace=wrap;html=1;" vertex="1" parent="1">
          <mxGeometry x="1139.75" y="5327.5" width="80" height="80" as="geometry" />
        </mxCell>
        <mxCell id="z7WjeKVMrqfT_wvCUD4l-446" value="" style="edgeStyle=orthogonalEdgeStyle;rounded=0;orthogonalLoop=1;jettySize=auto;html=1;" edge="1" parent="1" source="z7WjeKVMrqfT_wvCUD4l-447">
          <mxGeometry relative="1" as="geometry">
            <mxPoint x="1997.5" y="5368" as="targetPoint" />
          </mxGeometry>
        </mxCell>
        <mxCell id="z7WjeKVMrqfT_wvCUD4l-447" value="จำนวนชิ้นที่สามารถทอน&lt;div&gt;c1 = เงินที่ต้องทอน //51&lt;/div&gt;" style="rounded=0;whiteSpace=wrap;html=1;" vertex="1" parent="1">
          <mxGeometry x="2079" y="5332.5" width="228.5" height="70" as="geometry" />
        </mxCell>
        <mxCell id="z7WjeKVMrqfT_wvCUD4l-448" value="error" style="whiteSpace=wrap;html=1;" vertex="1" parent="1">
          <mxGeometry x="1891.75" y="3895" width="120" height="60" as="geometry" />
        </mxCell>
        <mxCell id="z7WjeKVMrqfT_wvCUD4l-449" value="error" style="whiteSpace=wrap;html=1;" vertex="1" parent="1">
          <mxGeometry x="1891.75" y="4300" width="120" height="60" as="geometry" />
        </mxCell>
        <mxCell id="z7WjeKVMrqfT_wvCUD4l-450" value="error" style="whiteSpace=wrap;html=1;" vertex="1" parent="1">
          <mxGeometry x="1891.75" y="4705" width="120" height="60" as="geometry" />
        </mxCell>
        <mxCell id="z7WjeKVMrqfT_wvCUD4l-451" value="error" style="whiteSpace=wrap;html=1;" vertex="1" parent="1">
          <mxGeometry x="1891.75" y="5105" width="120" height="60" as="geometry" />
        </mxCell>
        <mxCell id="z7WjeKVMrqfT_wvCUD4l-452" value="error" style="whiteSpace=wrap;html=1;" vertex="1" parent="1">
          <mxGeometry x="1891.75" y="5515" width="120" height="60" as="geometry" />
        </mxCell>
        <mxCell id="z7WjeKVMrqfT_wvCUD4l-453" value="error" style="whiteSpace=wrap;html=1;" vertex="1" parent="1">
          <mxGeometry x="2876" y="5305" width="120" height="60" as="geometry" />
        </mxCell>
        <mxCell id="z7WjeKVMrqfT_wvCUD4l-454" value="error" style="whiteSpace=wrap;html=1;" vertex="1" parent="1">
          <mxGeometry x="2876" y="4905" width="120" height="60" as="geometry" />
        </mxCell>
        <mxCell id="z7WjeKVMrqfT_wvCUD4l-455" value="error" style="whiteSpace=wrap;html=1;" vertex="1" parent="1">
          <mxGeometry x="2876" y="4515" width="120" height="60" as="geometry" />
        </mxCell>
        <mxCell id="z7WjeKVMrqfT_wvCUD4l-456" value="error" style="whiteSpace=wrap;html=1;" vertex="1" parent="1">
          <mxGeometry x="2876" y="4090" width="120" height="60" as="geometry" />
        </mxCell>
        <mxCell id="z7WjeKVMrqfT_wvCUD4l-457" value="no" style="text;html=1;align=center;verticalAlign=middle;resizable=0;points=[];autosize=1;strokeColor=none;fillColor=none;" vertex="1" parent="1">
          <mxGeometry x="2940" y="3998" width="40" height="30" as="geometry" />
        </mxCell>
        <mxCell id="z7WjeKVMrqfT_wvCUD4l-458" value="no" style="text;html=1;align=center;verticalAlign=middle;resizable=0;points=[];autosize=1;strokeColor=none;fillColor=none;" vertex="1" parent="1">
          <mxGeometry x="2930" y="4418" width="40" height="30" as="geometry" />
        </mxCell>
        <mxCell id="z7WjeKVMrqfT_wvCUD4l-459" value="no" style="text;html=1;align=center;verticalAlign=middle;resizable=0;points=[];autosize=1;strokeColor=none;fillColor=none;" vertex="1" parent="1">
          <mxGeometry x="2930" y="4818" width="40" height="30" as="geometry" />
        </mxCell>
        <mxCell id="z7WjeKVMrqfT_wvCUD4l-460" value="no" style="text;html=1;align=center;verticalAlign=middle;resizable=0;points=[];autosize=1;strokeColor=none;fillColor=none;" vertex="1" parent="1">
          <mxGeometry x="2940" y="5218" width="40" height="30" as="geometry" />
        </mxCell>
        <mxCell id="z7WjeKVMrqfT_wvCUD4l-461" value="no" style="text;html=1;align=center;verticalAlign=middle;resizable=0;points=[];autosize=1;strokeColor=none;fillColor=none;" vertex="1" parent="1">
          <mxGeometry x="1950" y="5418" width="40" height="30" as="geometry" />
        </mxCell>
        <mxCell id="z7WjeKVMrqfT_wvCUD4l-462" value="no" style="text;html=1;align=center;verticalAlign=middle;resizable=0;points=[];autosize=1;strokeColor=none;fillColor=none;" vertex="1" parent="1">
          <mxGeometry x="1950" y="5015" width="40" height="30" as="geometry" />
        </mxCell>
        <mxCell id="z7WjeKVMrqfT_wvCUD4l-463" value="no" style="text;html=1;align=center;verticalAlign=middle;resizable=0;points=[];autosize=1;strokeColor=none;fillColor=none;" vertex="1" parent="1">
          <mxGeometry x="1960" y="4618" width="40" height="30" as="geometry" />
        </mxCell>
        <mxCell id="z7WjeKVMrqfT_wvCUD4l-464" value="no" style="text;html=1;align=center;verticalAlign=middle;resizable=0;points=[];autosize=1;strokeColor=none;fillColor=none;" vertex="1" parent="1">
          <mxGeometry x="1950" y="4225" width="40" height="30" as="geometry" />
        </mxCell>
        <mxCell id="z7WjeKVMrqfT_wvCUD4l-465" value="no" style="text;html=1;align=center;verticalAlign=middle;resizable=0;points=[];autosize=1;strokeColor=none;fillColor=none;" vertex="1" parent="1">
          <mxGeometry x="1950" y="3805" width="40" height="30" as="geometry" />
        </mxCell>
        <mxCell id="z7WjeKVMrqfT_wvCUD4l-466" value="" style="endArrow=none;html=1;rounded=0;" edge="1" parent="1">
          <mxGeometry width="50" height="50" relative="1" as="geometry">
            <mxPoint x="950" y="5450" as="sourcePoint" />
            <mxPoint x="950" y="3380" as="targetPoint" />
          </mxGeometry>
        </mxCell>
        <mxCell id="z7WjeKVMrqfT_wvCUD4l-467" value="" style="endArrow=classic;html=1;rounded=0;" edge="1" parent="1">
          <mxGeometry width="50" height="50" relative="1" as="geometry">
            <mxPoint x="1180" y="3830" as="sourcePoint" />
            <mxPoint x="950" y="3830" as="targetPoint" />
          </mxGeometry>
        </mxCell>
        <mxCell id="z7WjeKVMrqfT_wvCUD4l-468" value="" style="endArrow=none;html=1;rounded=0;" edge="1" parent="1">
          <mxGeometry width="50" height="50" relative="1" as="geometry">
            <mxPoint x="1180" y="3790" as="sourcePoint" />
            <mxPoint x="1180" y="3830" as="targetPoint" />
          </mxGeometry>
        </mxCell>
        <mxCell id="z7WjeKVMrqfT_wvCUD4l-469" value="no" style="text;html=1;align=center;verticalAlign=middle;resizable=0;points=[];autosize=1;strokeColor=none;fillColor=none;" vertex="1" parent="1">
          <mxGeometry x="1110" y="3798" width="40" height="30" as="geometry" />
        </mxCell>
        <mxCell id="z7WjeKVMrqfT_wvCUD4l-470" value="" style="endArrow=classic;html=1;rounded=0;" edge="1" parent="1">
          <mxGeometry width="50" height="50" relative="1" as="geometry">
            <mxPoint x="1179" y="4247.5" as="sourcePoint" />
            <mxPoint x="949" y="4247.5" as="targetPoint" />
          </mxGeometry>
        </mxCell>
        <mxCell id="z7WjeKVMrqfT_wvCUD4l-471" value="" style="endArrow=none;html=1;rounded=0;" edge="1" parent="1">
          <mxGeometry width="50" height="50" relative="1" as="geometry">
            <mxPoint x="1179" y="4207.5" as="sourcePoint" />
            <mxPoint x="1179" y="4247.5" as="targetPoint" />
          </mxGeometry>
        </mxCell>
        <mxCell id="z7WjeKVMrqfT_wvCUD4l-472" value="no" style="text;html=1;align=center;verticalAlign=middle;resizable=0;points=[];autosize=1;strokeColor=none;fillColor=none;" vertex="1" parent="1">
          <mxGeometry x="1109" y="4215.5" width="40" height="30" as="geometry" />
        </mxCell>
        <mxCell id="z7WjeKVMrqfT_wvCUD4l-473" value="" style="endArrow=classic;html=1;rounded=0;" edge="1" parent="1">
          <mxGeometry width="50" height="50" relative="1" as="geometry">
            <mxPoint x="1179" y="4637.5" as="sourcePoint" />
            <mxPoint x="949" y="4637.5" as="targetPoint" />
          </mxGeometry>
        </mxCell>
        <mxCell id="z7WjeKVMrqfT_wvCUD4l-474" value="" style="endArrow=none;html=1;rounded=0;" edge="1" parent="1">
          <mxGeometry width="50" height="50" relative="1" as="geometry">
            <mxPoint x="1179" y="4597.5" as="sourcePoint" />
            <mxPoint x="1179" y="4637.5" as="targetPoint" />
          </mxGeometry>
        </mxCell>
        <mxCell id="z7WjeKVMrqfT_wvCUD4l-475" value="no" style="text;html=1;align=center;verticalAlign=middle;resizable=0;points=[];autosize=1;strokeColor=none;fillColor=none;" vertex="1" parent="1">
          <mxGeometry x="1109" y="4605.5" width="40" height="30" as="geometry" />
        </mxCell>
        <mxCell id="z7WjeKVMrqfT_wvCUD4l-476" value="" style="endArrow=classic;html=1;rounded=0;" edge="1" parent="1">
          <mxGeometry width="50" height="50" relative="1" as="geometry">
            <mxPoint x="1179" y="5037.5" as="sourcePoint" />
            <mxPoint x="949" y="5037.5" as="targetPoint" />
          </mxGeometry>
        </mxCell>
        <mxCell id="z7WjeKVMrqfT_wvCUD4l-477" value="" style="endArrow=none;html=1;rounded=0;" edge="1" parent="1">
          <mxGeometry width="50" height="50" relative="1" as="geometry">
            <mxPoint x="1179" y="4997.5" as="sourcePoint" />
            <mxPoint x="1179" y="5037.5" as="targetPoint" />
          </mxGeometry>
        </mxCell>
        <mxCell id="z7WjeKVMrqfT_wvCUD4l-478" value="no" style="text;html=1;align=center;verticalAlign=middle;resizable=0;points=[];autosize=1;strokeColor=none;fillColor=none;" vertex="1" parent="1">
          <mxGeometry x="1109" y="5005.5" width="40" height="30" as="geometry" />
        </mxCell>
        <mxCell id="z7WjeKVMrqfT_wvCUD4l-479" value="" style="endArrow=none;html=1;rounded=0;" edge="1" parent="1">
          <mxGeometry width="50" height="50" relative="1" as="geometry">
            <mxPoint x="1179" y="5407.5" as="sourcePoint" />
            <mxPoint x="1180" y="5450" as="targetPoint" />
          </mxGeometry>
        </mxCell>
        <mxCell id="z7WjeKVMrqfT_wvCUD4l-480" value="no" style="text;html=1;align=center;verticalAlign=middle;resizable=0;points=[];autosize=1;strokeColor=none;fillColor=none;" vertex="1" parent="1">
          <mxGeometry x="1109" y="5415.5" width="40" height="30" as="geometry" />
        </mxCell>
        <mxCell id="z7WjeKVMrqfT_wvCUD4l-481" value="" style="edgeStyle=orthogonalEdgeStyle;rounded=0;orthogonalLoop=1;jettySize=auto;html=1;" edge="1" parent="1" source="z7WjeKVMrqfT_wvCUD4l-482" target="z7WjeKVMrqfT_wvCUD4l-516">
          <mxGeometry relative="1" as="geometry" />
        </mxCell>
        <mxCell id="z7WjeKVMrqfT_wvCUD4l-482" value="" style="ellipse;whiteSpace=wrap;html=1;aspect=fixed;" vertex="1" parent="1">
          <mxGeometry x="2441.5099999999998" y="5660" width="30" height="30" as="geometry" />
        </mxCell>
        <mxCell id="z7WjeKVMrqfT_wvCUD4l-483" value="" style="endArrow=none;html=1;rounded=0;" edge="1" parent="1">
          <mxGeometry width="50" height="50" relative="1" as="geometry">
            <mxPoint x="3910" y="5240" as="sourcePoint" />
            <mxPoint x="3910" y="3380" as="targetPoint" />
          </mxGeometry>
        </mxCell>
        <mxCell id="z7WjeKVMrqfT_wvCUD4l-484" value="" style="endArrow=classic;html=1;rounded=0;" edge="1" parent="1">
          <mxGeometry width="50" height="50" relative="1" as="geometry">
            <mxPoint x="3720" y="4030" as="sourcePoint" />
            <mxPoint x="3910" y="4030" as="targetPoint" />
          </mxGeometry>
        </mxCell>
        <mxCell id="z7WjeKVMrqfT_wvCUD4l-485" value="" style="endArrow=none;html=1;rounded=0;entryX=0.5;entryY=1;entryDx=0;entryDy=0;" edge="1" parent="1" target="z7WjeKVMrqfT_wvCUD4l-324">
          <mxGeometry width="50" height="50" relative="1" as="geometry">
            <mxPoint x="3720" y="4030" as="sourcePoint" />
            <mxPoint x="3710" y="3980" as="targetPoint" />
          </mxGeometry>
        </mxCell>
        <mxCell id="z7WjeKVMrqfT_wvCUD4l-486" value="no" style="text;html=1;align=center;verticalAlign=middle;resizable=0;points=[];autosize=1;strokeColor=none;fillColor=none;" vertex="1" parent="1">
          <mxGeometry x="3750" y="3998" width="40" height="30" as="geometry" />
        </mxCell>
        <mxCell id="z7WjeKVMrqfT_wvCUD4l-487" value="" style="endArrow=classic;html=1;rounded=0;" edge="1" parent="1">
          <mxGeometry width="50" height="50" relative="1" as="geometry">
            <mxPoint x="3720" y="4456.05" as="sourcePoint" />
            <mxPoint x="3910" y="4456.05" as="targetPoint" />
          </mxGeometry>
        </mxCell>
        <mxCell id="z7WjeKVMrqfT_wvCUD4l-488" value="" style="endArrow=none;html=1;rounded=0;entryX=0.5;entryY=1;entryDx=0;entryDy=0;" edge="1" parent="1">
          <mxGeometry width="50" height="50" relative="1" as="geometry">
            <mxPoint x="3720" y="4456.05" as="sourcePoint" />
            <mxPoint x="3720" y="4409.05" as="targetPoint" />
          </mxGeometry>
        </mxCell>
        <mxCell id="z7WjeKVMrqfT_wvCUD4l-489" value="no" style="text;html=1;align=center;verticalAlign=middle;resizable=0;points=[];autosize=1;strokeColor=none;fillColor=none;" vertex="1" parent="1">
          <mxGeometry x="3750" y="4424.05" width="40" height="30" as="geometry" />
        </mxCell>
        <mxCell id="z7WjeKVMrqfT_wvCUD4l-490" value="" style="endArrow=classic;html=1;rounded=0;" edge="1" parent="1">
          <mxGeometry width="50" height="50" relative="1" as="geometry">
            <mxPoint x="3720" y="4847.09" as="sourcePoint" />
            <mxPoint x="3910" y="4847.09" as="targetPoint" />
          </mxGeometry>
        </mxCell>
        <mxCell id="z7WjeKVMrqfT_wvCUD4l-491" value="" style="endArrow=none;html=1;rounded=0;entryX=0.5;entryY=1;entryDx=0;entryDy=0;" edge="1" parent="1" target="z7WjeKVMrqfT_wvCUD4l-394">
          <mxGeometry width="50" height="50" relative="1" as="geometry">
            <mxPoint x="3720" y="4847.09" as="sourcePoint" />
            <mxPoint x="3720" y="4800.09" as="targetPoint" />
          </mxGeometry>
        </mxCell>
        <mxCell id="z7WjeKVMrqfT_wvCUD4l-492" value="no" style="text;html=1;align=center;verticalAlign=middle;resizable=0;points=[];autosize=1;strokeColor=none;fillColor=none;" vertex="1" parent="1">
          <mxGeometry x="3750" y="4815.09" width="40" height="30" as="geometry" />
        </mxCell>
        <mxCell id="z7WjeKVMrqfT_wvCUD4l-493" value="" style="endArrow=none;html=1;rounded=0;entryX=0.5;entryY=1;entryDx=0;entryDy=0;" edge="1" parent="1">
          <mxGeometry width="50" height="50" relative="1" as="geometry">
            <mxPoint x="3720" y="5240" as="sourcePoint" />
            <mxPoint x="3720" y="5197.5" as="targetPoint" />
          </mxGeometry>
        </mxCell>
        <mxCell id="z7WjeKVMrqfT_wvCUD4l-494" value="no" style="text;html=1;align=center;verticalAlign=middle;resizable=0;points=[];autosize=1;strokeColor=none;fillColor=none;" vertex="1" parent="1">
          <mxGeometry x="3750" y="5212.5" width="40" height="30" as="geometry" />
        </mxCell>
        <mxCell id="z7WjeKVMrqfT_wvCUD4l-495" value="" style="endArrow=none;html=1;rounded=0;" edge="1" parent="1">
          <mxGeometry width="50" height="50" relative="1" as="geometry">
            <mxPoint x="950" y="5450" as="sourcePoint" />
            <mxPoint x="1180" y="5450" as="targetPoint" />
          </mxGeometry>
        </mxCell>
        <mxCell id="z7WjeKVMrqfT_wvCUD4l-496" value="" style="endArrow=none;html=1;rounded=0;" edge="1" parent="1">
          <mxGeometry width="50" height="50" relative="1" as="geometry">
            <mxPoint x="3720" y="5240" as="sourcePoint" />
            <mxPoint x="3910" y="5240" as="targetPoint" />
          </mxGeometry>
        </mxCell>
        <mxCell id="z7WjeKVMrqfT_wvCUD4l-497" value="" style="endArrow=classic;html=1;rounded=0;" edge="1" parent="1">
          <mxGeometry width="50" height="50" relative="1" as="geometry">
            <mxPoint x="949" y="3380" as="sourcePoint" />
            <mxPoint x="2439" y="3381" as="targetPoint" />
          </mxGeometry>
        </mxCell>
        <mxCell id="z7WjeKVMrqfT_wvCUD4l-498" value="" style="endArrow=classic;html=1;rounded=0;entryX=1;entryY=0.5;entryDx=0;entryDy=0;" edge="1" parent="1" target="z7WjeKVMrqfT_wvCUD4l-306">
          <mxGeometry width="50" height="50" relative="1" as="geometry">
            <mxPoint x="3909" y="3380" as="sourcePoint" />
            <mxPoint x="2629" y="3400" as="targetPoint" />
          </mxGeometry>
        </mxCell>
        <mxCell id="z7WjeKVMrqfT_wvCUD4l-499" value="" style="endArrow=none;html=1;rounded=0;entryX=0;entryY=0.5;entryDx=0;entryDy=0;" edge="1" parent="1" target="z7WjeKVMrqfT_wvCUD4l-304">
          <mxGeometry width="50" height="50" relative="1" as="geometry">
            <mxPoint x="750" y="3750" as="sourcePoint" />
            <mxPoint x="1170" y="3840" as="targetPoint" />
          </mxGeometry>
        </mxCell>
        <mxCell id="z7WjeKVMrqfT_wvCUD4l-500" value="yes" style="text;html=1;align=center;verticalAlign=middle;resizable=0;points=[];autosize=1;strokeColor=none;fillColor=none;" vertex="1" parent="1">
          <mxGeometry x="1020" y="3708" width="40" height="30" as="geometry" />
        </mxCell>
        <mxCell id="z7WjeKVMrqfT_wvCUD4l-501" value="" style="endArrow=none;html=1;rounded=0;entryX=0;entryY=0.5;entryDx=0;entryDy=0;" edge="1" parent="1">
          <mxGeometry width="50" height="50" relative="1" as="geometry">
            <mxPoint x="3760" y="3944" as="sourcePoint" />
            <mxPoint x="4150" y="3941" as="targetPoint" />
          </mxGeometry>
        </mxCell>
        <mxCell id="z7WjeKVMrqfT_wvCUD4l-502" value="yes" style="text;html=1;align=center;verticalAlign=middle;resizable=0;points=[];autosize=1;strokeColor=none;fillColor=none;" vertex="1" parent="1">
          <mxGeometry x="3780" y="3912.5" width="40" height="30" as="geometry" />
        </mxCell>
        <mxCell id="z7WjeKVMrqfT_wvCUD4l-503" value="" style="endArrow=none;html=1;rounded=0;" edge="1" parent="1">
          <mxGeometry width="50" height="50" relative="1" as="geometry">
            <mxPoint x="750" y="3750" as="sourcePoint" />
            <mxPoint x="750" y="5680" as="targetPoint" />
          </mxGeometry>
        </mxCell>
        <mxCell id="z7WjeKVMrqfT_wvCUD4l-504" value="" style="edgeStyle=none;orthogonalLoop=1;jettySize=auto;html=1;rounded=0;" edge="1" parent="1">
          <mxGeometry width="100" relative="1" as="geometry">
            <mxPoint x="750" y="5680" as="sourcePoint" />
            <mxPoint x="2441.5100560319393" y="5677.479000543626" as="targetPoint" />
            <Array as="points" />
          </mxGeometry>
        </mxCell>
        <mxCell id="z7WjeKVMrqfT_wvCUD4l-505" value="" style="endArrow=none;html=1;rounded=0;" edge="1" parent="1">
          <mxGeometry width="50" height="50" relative="1" as="geometry">
            <mxPoint x="4150" y="3940" as="sourcePoint" />
            <mxPoint x="4150" y="5680" as="targetPoint" />
          </mxGeometry>
        </mxCell>
        <mxCell id="z7WjeKVMrqfT_wvCUD4l-506" value="" style="edgeStyle=none;orthogonalLoop=1;jettySize=auto;html=1;rounded=0;entryX=0.905;entryY=0.591;entryDx=0;entryDy=0;entryPerimeter=0;" edge="1" parent="1">
          <mxGeometry width="100" relative="1" as="geometry">
            <mxPoint x="4150" y="5680" as="sourcePoint" />
            <mxPoint x="2471.5" y="5677.7300000000005" as="targetPoint" />
            <Array as="points" />
          </mxGeometry>
        </mxCell>
        <mxCell id="z7WjeKVMrqfT_wvCUD4l-507" value="yes" style="text;html=1;align=center;verticalAlign=middle;resizable=0;points=[];autosize=1;strokeColor=none;fillColor=none;" vertex="1" parent="1">
          <mxGeometry x="1070" y="4128" width="40" height="30" as="geometry" />
        </mxCell>
        <mxCell id="z7WjeKVMrqfT_wvCUD4l-508" value="yes" style="text;html=1;align=center;verticalAlign=middle;resizable=0;points=[];autosize=1;strokeColor=none;fillColor=none;" vertex="1" parent="1">
          <mxGeometry x="1060" y="4518" width="40" height="30" as="geometry" />
        </mxCell>
        <mxCell id="z7WjeKVMrqfT_wvCUD4l-509" value="yes" style="text;html=1;align=center;verticalAlign=middle;resizable=0;points=[];autosize=1;strokeColor=none;fillColor=none;" vertex="1" parent="1">
          <mxGeometry x="1070" y="4918" width="40" height="30" as="geometry" />
        </mxCell>
        <mxCell id="z7WjeKVMrqfT_wvCUD4l-510" value="yes" style="text;html=1;align=center;verticalAlign=middle;resizable=0;points=[];autosize=1;strokeColor=none;fillColor=none;" vertex="1" parent="1">
          <mxGeometry x="1060" y="5335" width="40" height="30" as="geometry" />
        </mxCell>
        <mxCell id="z7WjeKVMrqfT_wvCUD4l-511" value="yes" style="text;html=1;align=center;verticalAlign=middle;resizable=0;points=[];autosize=1;strokeColor=none;fillColor=none;" vertex="1" parent="1">
          <mxGeometry x="3770" y="5120" width="40" height="30" as="geometry" />
        </mxCell>
        <mxCell id="z7WjeKVMrqfT_wvCUD4l-512" value="yes" style="text;html=1;align=center;verticalAlign=middle;resizable=0;points=[];autosize=1;strokeColor=none;fillColor=none;" vertex="1" parent="1">
          <mxGeometry x="3780" y="4728" width="40" height="30" as="geometry" />
        </mxCell>
        <mxCell id="z7WjeKVMrqfT_wvCUD4l-513" value="yes" style="text;html=1;align=center;verticalAlign=middle;resizable=0;points=[];autosize=1;strokeColor=none;fillColor=none;" vertex="1" parent="1">
          <mxGeometry x="3760" y="4338" width="40" height="30" as="geometry" />
        </mxCell>
        <mxCell id="z7WjeKVMrqfT_wvCUD4l-514" value="Text" style="text;html=1;align=center;verticalAlign=middle;resizable=0;points=[];autosize=1;strokeColor=none;fillColor=none;" vertex="1" parent="1">
          <mxGeometry x="1755" y="4418" width="50" height="30" as="geometry" />
        </mxCell>
        <mxCell id="z7WjeKVMrqfT_wvCUD4l-515" value="" style="edgeStyle=orthogonalEdgeStyle;rounded=0;orthogonalLoop=1;jettySize=auto;html=1;" edge="1" parent="1" source="z7WjeKVMrqfT_wvCUD4l-516">
          <mxGeometry relative="1" as="geometry">
            <mxPoint x="2456.5099999999998" y="5895" as="targetPoint" />
          </mxGeometry>
        </mxCell>
        <mxCell id="z7WjeKVMrqfT_wvCUD4l-516" value="เงินทอo (t)" style="shape=parallelogram;perimeter=parallelogramPerimeter;whiteSpace=wrap;html=1;fixedSize=1;" vertex="1" parent="1">
          <mxGeometry x="2396.5099999999998" y="5755" width="120" height="60" as="geometry" />
        </mxCell>
        <mxCell id="z7WjeKVMrqfT_wvCUD4l-517" value="&lt;font style=&quot;font-size: 18px;&quot;&gt;stop&lt;/font&gt;" style="ellipse;whiteSpace=wrap;html=1;" vertex="1" parent="1">
          <mxGeometry x="2375.5" y="5900" width="160" height="70" as="geometry" />
        </mxCell>
        <mxCell id="z7WjeKVMrqfT_wvCUD4l-518" value="" style="edgeStyle=orthogonalEdgeStyle;rounded=0;orthogonalLoop=1;jettySize=auto;html=1;" edge="1" parent="1" source="z7WjeKVMrqfT_wvCUD4l-519" target="z7WjeKVMrqfT_wvCUD4l-287">
          <mxGeometry relative="1" as="geometry" />
        </mxCell>
        <mxCell id="z7WjeKVMrqfT_wvCUD4l-519" value="&lt;font style=&quot;font-size: 21px;&quot;&gt;ทอนเงิน&lt;/font&gt;" style="shape=process;whiteSpace=wrap;html=1;backgroundOutline=1;" vertex="1" parent="1">
          <mxGeometry x="2358.26" y="3040" width="196.5" height="90" as="geometry" />
        </mxCell>
        <mxCell id="z7WjeKVMrqfT_wvCUD4l-520" value="" style="edgeStyle=orthogonalEdgeStyle;rounded=0;orthogonalLoop=1;jettySize=auto;html=1;" edge="1" parent="1" source="z7WjeKVMrqfT_wvCUD4l-521" target="z7WjeKVMrqfT_wvCUD4l-281">
          <mxGeometry relative="1" as="geometry" />
        </mxCell>
        <mxCell id="z7WjeKVMrqfT_wvCUD4l-521" value="" style="ellipse;whiteSpace=wrap;html=1;aspect=fixed;" vertex="1" parent="1">
          <mxGeometry x="755" y="2860" width="30" height="30" as="geometry" />
        </mxCell>
        <mxCell id="z7WjeKVMrqfT_wvCUD4l-522" style="edgeStyle=orthogonalEdgeStyle;rounded=0;orthogonalLoop=1;jettySize=auto;html=1;entryX=1;entryY=0.5;entryDx=0;entryDy=0;" edge="1" parent="1" source="z7WjeKVMrqfT_wvCUD4l-523" target="z7WjeKVMrqfT_wvCUD4l-525">
          <mxGeometry relative="1" as="geometry" />
        </mxCell>
        <mxCell id="z7WjeKVMrqfT_wvCUD4l-523" value="m - sum = t&lt;div&gt;เงินทอน = t&lt;/div&gt;" style="rounded=0;whiteSpace=wrap;html=1;" vertex="1" parent="1">
          <mxGeometry x="545.25" y="2636.5" width="104.75" height="63.5" as="geometry" />
        </mxCell>
        <mxCell id="z7WjeKVMrqfT_wvCUD4l-524" style="edgeStyle=orthogonalEdgeStyle;rounded=0;orthogonalLoop=1;jettySize=auto;html=1;entryX=0.5;entryY=0;entryDx=0;entryDy=0;" edge="1" parent="1" source="z7WjeKVMrqfT_wvCUD4l-525" target="z7WjeKVMrqfT_wvCUD4l-528">
          <mxGeometry relative="1" as="geometry" />
        </mxCell>
        <mxCell id="z7WjeKVMrqfT_wvCUD4l-525" value="&lt;font size=&quot;1&quot;&gt;&lt;b&gt;ทอนเงิน&lt;/b&gt;&lt;/font&gt;" style="shape=process;whiteSpace=wrap;html=1;backgroundOutline=1;" vertex="1" parent="1">
          <mxGeometry x="370" y="2643.75" width="130" height="49" as="geometry" />
        </mxCell>
        <mxCell id="z7WjeKVMrqfT_wvCUD4l-526" style="edgeStyle=orthogonalEdgeStyle;rounded=0;orthogonalLoop=1;jettySize=auto;html=1;entryX=0;entryY=0.5;entryDx=0;entryDy=0;" edge="1" parent="1" source="z7WjeKVMrqfT_wvCUD4l-528" target="z7WjeKVMrqfT_wvCUD4l-521">
          <mxGeometry relative="1" as="geometry">
            <Array as="points">
              <mxPoint x="435" y="2875" />
            </Array>
          </mxGeometry>
        </mxCell>
        <mxCell id="z7WjeKVMrqfT_wvCUD4l-527" style="edgeStyle=orthogonalEdgeStyle;rounded=0;orthogonalLoop=1;jettySize=auto;html=1;entryX=0;entryY=0;entryDx=0;entryDy=0;" edge="1" parent="1" source="z7WjeKVMrqfT_wvCUD4l-528" target="z7WjeKVMrqfT_wvCUD4l-250">
          <mxGeometry relative="1" as="geometry">
            <mxPoint x="850" y="1540" as="targetPoint" />
            <Array as="points">
              <mxPoint x="290" y="2790" />
              <mxPoint x="290" y="1530" />
              <mxPoint x="750" y="1530" />
              <mxPoint x="750" y="1543" />
            </Array>
          </mxGeometry>
        </mxCell>
        <mxCell id="z7WjeKVMrqfT_wvCUD4l-528" value="Error&lt;div&gt;?&lt;/div&gt;" style="rhombus;whiteSpace=wrap;html=1;" vertex="1" parent="1">
          <mxGeometry x="395" y="2750" width="80" height="80" as="geometry" />
        </mxCell>
        <mxCell id="z7WjeKVMrqfT_wvCUD4l-529" value="ไม่" style="text;html=1;align=center;verticalAlign=middle;resizable=0;points=[];autosize=1;strokeColor=none;fillColor=none;" vertex="1" parent="1">
          <mxGeometry x="430" y="2828" width="40" height="30" as="geometry" />
        </mxCell>
        <mxCell id="z7WjeKVMrqfT_wvCUD4l-530" value="ใช่" style="text;html=1;align=center;verticalAlign=middle;resizable=0;points=[];autosize=1;strokeColor=none;fillColor=none;" vertex="1" parent="1">
          <mxGeometry x="760" y="2708" width="40" height="30" as="geometry" />
        </mxCell>
        <mxCell id="z7WjeKVMrqfT_wvCUD4l-531" value="&lt;font style=&quot;font-size: 18px;&quot;&gt;ติดต่อเจ้าหน้าที่&lt;/font&gt;" style="shape=parallelogram;perimeter=parallelogramPerimeter;whiteSpace=wrap;html=1;fixedSize=1;" vertex="1" parent="1">
          <mxGeometry x="200" y="2060" width="180" height="69" as="geometry" />
        </mxCell>
      </root>
    </mxGraphModel>
  </diagram>
</mxfile>
